G04*
G04 #@! TF.GenerationSoftware,Altium Limited,Altium Designer,24.0.1 (36)*
G04*
G04 Layer_Color=32896*
%FSLAX45Y45*%
%MOMM*%
G71*
G04*
G04 #@! TF.SameCoordinates,0B170F52-40F4-4D68-8434-06CE0CB0BF9C*
G04*
G04*
G04 #@! TF.FilePolarity,Positive*
G04*
G01*
G75*
%ADD11C,0.20000*%
%ADD12C,0.25400*%
%ADD50C,0.05000*%
G54D11*
X11785600Y8266000D02*
Y8371000D01*
X10121900Y9866200D02*
Y9971200D01*
X13474699Y8266000D02*
Y8371000D01*
X13371899Y9335400D02*
X13686900D01*
Y9400400D01*
X13371899Y9765400D02*
X13686900D01*
Y9700400D02*
Y9765400D01*
Y9335400D02*
Y9400400D01*
X13371899Y9335400D02*
X13686900D01*
X11767100Y7605600D02*
Y7710600D01*
X13474699Y9828100D02*
Y9933100D01*
X11798300Y9815400D02*
Y9920400D01*
X10121900Y8266000D02*
Y8371000D01*
X11688400Y9322700D02*
X12003400D01*
Y9387700D01*
X11688400Y9752700D02*
X12003400D01*
Y9687700D02*
Y9752700D01*
Y9322700D02*
Y9387700D01*
X11688400Y9322700D02*
X12003400D01*
X11685600Y8433700D02*
X12000600D01*
Y8498700D01*
Y8798700D02*
Y8863700D01*
X11685600D02*
X12000600D01*
Y8433700D02*
Y8498700D01*
X11685600Y8433700D02*
X12000600D01*
X12095100Y8857200D02*
Y9391700D01*
X12365100Y8857200D02*
Y9361200D01*
X10012000Y9360800D02*
X10327000D01*
Y9425800D01*
X10012000Y9790800D02*
X10327000D01*
Y9725800D02*
Y9790800D01*
Y9360800D02*
Y9425800D01*
X10012000Y9360800D02*
X10327000D01*
X10009200Y8446400D02*
X10324200D01*
Y8511400D01*
X10009200Y8876400D02*
X10324200D01*
Y8811400D02*
Y8876400D01*
Y8446400D02*
Y8511400D01*
X10009200Y8446400D02*
X10324200D01*
X13362000D02*
X13677000D01*
Y8511400D01*
Y8811400D02*
Y8876400D01*
X13362000D02*
X13677000D01*
Y8446400D02*
Y8511400D01*
X13362000Y8446400D02*
X13677000D01*
X13771500Y8866600D02*
Y9401100D01*
X14041499Y8866600D02*
Y9370600D01*
X10418700Y8866600D02*
Y9401100D01*
X10688700Y8866600D02*
Y9370600D01*
G54D12*
X11854971Y7340583D02*
X11880363Y7365975D01*
X11931146D01*
X11956538Y7340583D01*
Y7239017D01*
X11931146Y7213625D01*
X11880363D01*
X11854971Y7239017D01*
X11804187Y7213625D02*
X11753404D01*
X11778796D01*
Y7365975D01*
X11804187Y7340583D01*
X11677229D02*
X11651837Y7365975D01*
X11601053D01*
X11575661Y7340583D01*
Y7315192D01*
X11601053Y7289800D01*
X11626445D01*
X11601053D01*
X11575661Y7264408D01*
Y7239017D01*
X11601053Y7213625D01*
X11651837D01*
X11677229Y7239017D01*
X11849071Y7899383D02*
X11874463Y7924775D01*
X11925246D01*
X11950638Y7899383D01*
Y7797817D01*
X11925246Y7772425D01*
X11874463D01*
X11849071Y7797817D01*
X11798288Y7772425D02*
X11747504D01*
X11772896D01*
Y7924775D01*
X11798288Y7899383D01*
X11595153Y7772425D02*
Y7924775D01*
X11671329Y7848600D01*
X11569761D01*
X10208231Y10162523D02*
X10233623Y10187915D01*
X10284406D01*
X10309798Y10162523D01*
Y10060957D01*
X10284406Y10035565D01*
X10233623D01*
X10208231Y10060957D01*
X10157448Y10035565D02*
X10106664D01*
X10132056D01*
Y10187915D01*
X10157448Y10162523D01*
X10030489D02*
X10005097Y10187915D01*
X9954313D01*
X9928921Y10162523D01*
Y10060957D01*
X9954313Y10035565D01*
X10005097D01*
X10030489Y10060957D01*
Y10162523D01*
X13489932Y8186403D02*
X13515323Y8211795D01*
X13566107D01*
X13591499Y8186403D01*
Y8084837D01*
X13566107Y8059445D01*
X13515323D01*
X13489932Y8084837D01*
X13337581Y8211795D02*
X13388365Y8186403D01*
X13439148Y8135620D01*
Y8084837D01*
X13413756Y8059445D01*
X13362973D01*
X13337581Y8084837D01*
Y8110228D01*
X13362973Y8135620D01*
X13439148D01*
X11810992Y8183863D02*
X11836383Y8209255D01*
X11887167D01*
X11912559Y8183863D01*
Y8082297D01*
X11887167Y8056905D01*
X11836383D01*
X11810992Y8082297D01*
X11658641Y8209255D02*
X11760208D01*
Y8133080D01*
X11709425Y8158472D01*
X11684033D01*
X11658641Y8133080D01*
Y8082297D01*
X11684033Y8056905D01*
X11734816D01*
X11760208Y8082297D01*
X10142212Y8176243D02*
X10167603Y8201635D01*
X10218387D01*
X10243779Y8176243D01*
Y8074677D01*
X10218387Y8049285D01*
X10167603D01*
X10142212Y8074677D01*
X10015253Y8049285D02*
Y8201635D01*
X10091428Y8125460D01*
X9989861D01*
X11333472Y9588483D02*
X11358863Y9613875D01*
X11409647D01*
X11435039Y9588483D01*
Y9486917D01*
X11409647Y9461525D01*
X11358863D01*
X11333472Y9486917D01*
X11282688Y9588483D02*
X11257296Y9613875D01*
X11206513D01*
X11181121Y9588483D01*
Y9563092D01*
X11206513Y9537700D01*
X11181121Y9512308D01*
Y9486917D01*
X11206513Y9461525D01*
X11257296D01*
X11282688Y9486917D01*
Y9512308D01*
X11257296Y9537700D01*
X11282688Y9563092D01*
Y9588483D01*
X11257296Y9537700D02*
X11206513D01*
X14079243Y9248099D02*
X14231595D01*
Y9171923D01*
X14206203Y9146531D01*
X14104636D01*
X14079243Y9171923D01*
Y9248099D01*
Y8994181D02*
X14104636Y9044964D01*
X14155420Y9095748D01*
X14206203D01*
X14231595Y9070356D01*
Y9019573D01*
X14206203Y8994181D01*
X14180812D01*
X14155420Y9019573D01*
Y9095748D01*
X12405385Y9230319D02*
X12557735D01*
Y9154143D01*
X12532343Y9128752D01*
X12430777D01*
X12405385Y9154143D01*
Y9230319D01*
Y8976401D02*
Y9077968D01*
X12481560D01*
X12456168Y9027185D01*
Y9001793D01*
X12481560Y8976401D01*
X12532343D01*
X12557735Y9001793D01*
Y9052576D01*
X12532343Y9077968D01*
X10726445Y9253179D02*
X10878795D01*
Y9177003D01*
X10853403Y9151612D01*
X10751837D01*
X10726445Y9177003D01*
Y9253179D01*
X10878795Y9024653D02*
X10726445D01*
X10802620Y9100828D01*
Y8999261D01*
X13568651Y10129503D02*
X13594043Y10154895D01*
X13644826D01*
X13670218Y10129503D01*
Y10027937D01*
X13644826Y10002545D01*
X13594043D01*
X13568651Y10027937D01*
X13517868Y10002545D02*
X13467084D01*
X13492476D01*
Y10154895D01*
X13517868Y10129503D01*
X13289342Y10002545D02*
X13390909D01*
X13289342Y10104112D01*
Y10129503D01*
X13314732Y10154895D01*
X13365517D01*
X13390909Y10129503D01*
X11871939Y10114263D02*
X11897331Y10139655D01*
X11948115D01*
X11973506Y10114263D01*
Y10012697D01*
X11948115Y9987305D01*
X11897331D01*
X11871939Y10012697D01*
X11821156Y9987305D02*
X11770372D01*
X11795764D01*
Y10139655D01*
X11821156Y10114263D01*
X11694197Y9987305D02*
X11643413D01*
X11668805D01*
Y10139655D01*
X11694197Y10114263D01*
X13446751Y9240503D02*
X13472144Y9265895D01*
X13522926D01*
X13548318Y9240503D01*
Y9138937D01*
X13522926Y9113545D01*
X13472144D01*
X13446751Y9138937D01*
X13395969D02*
X13370576Y9113545D01*
X13319794D01*
X13294402Y9138937D01*
Y9240503D01*
X13319794Y9265895D01*
X13370576D01*
X13395969Y9240503D01*
Y9215112D01*
X13370576Y9189720D01*
X13294402D01*
X13512791Y9042383D02*
X13538184Y9067775D01*
X13588966D01*
X13614359Y9042383D01*
Y8940817D01*
X13588966Y8915425D01*
X13538184D01*
X13512791Y8940817D01*
X13462009Y9042383D02*
X13436617Y9067775D01*
X13385834D01*
X13360442Y9042383D01*
Y9016992D01*
X13385834Y8991600D01*
X13411224D01*
X13385834D01*
X13360442Y8966208D01*
Y8940817D01*
X13385834Y8915425D01*
X13436617D01*
X13462009Y8940817D01*
X11338552Y8696943D02*
X11363943Y8722335D01*
X11414727D01*
X11440119Y8696943D01*
Y8595377D01*
X11414727Y8569985D01*
X11363943D01*
X11338552Y8595377D01*
X11186201Y8569985D02*
X11287768D01*
X11186201Y8671552D01*
Y8696943D01*
X11211593Y8722335D01*
X11262376D01*
X11287768Y8696943D01*
X9646912Y9624043D02*
X9672303Y9649435D01*
X9723087D01*
X9748479Y9624043D01*
Y9522477D01*
X9723087Y9497085D01*
X9672303D01*
X9646912Y9522477D01*
X9596128Y9649435D02*
X9494561D01*
Y9624043D01*
X9596128Y9522477D01*
Y9497085D01*
X9664700Y8702023D02*
X9690092Y8727415D01*
X9740875D01*
X9766267Y8702023D01*
Y8600457D01*
X9740875Y8575065D01*
X9690092D01*
X9664700Y8600457D01*
X9613916Y8575065D02*
X9563133D01*
X9588524D01*
Y8727415D01*
X9613916Y8702023D01*
G54D50*
X13114400Y9550400D02*
G03*
X13109399Y9550400I-2500J0D01*
G01*
D02*
G03*
X13114400Y9550400I2500J0D01*
G01*
X11430900Y9537700D02*
G03*
X11425900Y9537700I-2500J0D01*
G01*
D02*
G03*
X11430900Y9537700I2500J0D01*
G01*
X11423100Y8648700D02*
G03*
X11428100Y8648700I2500J0D01*
G01*
D02*
G03*
X11423100Y8648700I-2500J0D01*
G01*
X9754500Y9575800D02*
G03*
X9749500Y9575800I-2500J0D01*
G01*
D02*
G03*
X9754500Y9575800I2500J0D01*
G01*
X9751700Y8661400D02*
G03*
X9746700Y8661400I-2500J0D01*
G01*
D02*
G03*
X9751700Y8661400I2500J0D01*
G01*
X13099500D02*
G03*
X13104500Y8661400I2500J0D01*
G01*
D02*
G03*
X13099500Y8661400I-2500J0D01*
G01*
M02*
