G04*
G04 #@! TF.GenerationSoftware,Altium Limited,Altium Designer,24.0.1 (36)*
G04*
G04 Layer_Color=8388736*
%FSLAX45Y45*%
%MOMM*%
G71*
G04*
G04 #@! TF.SameCoordinates,0B170F52-40F4-4D68-8434-06CE0CB0BF9C*
G04*
G04*
G04 #@! TF.FilePolarity,Negative*
G04*
G01*
G75*
%ADD13R,1.01000X1.49000*%
%ADD14R,1.49000X1.01000*%
%ADD15R,1.07000X1.57000*%
%ADD16R,1.65000X2.30000*%
%ADD17R,1.62500X0.75000*%
%ADD18R,1.50000X1.05000*%
%ADD19R,0.75000X1.62500*%
%ADD20R,1.50000X2.50000*%
%ADD21R,7.00000X7.00000*%
%ADD22C,1.75000*%
%ADD23R,1.75000X1.75000*%
%ADD24R,1.75000X1.75000*%
%ADD25R,2.15000X2.15000*%
%ADD26C,2.15000*%
%ADD27R,2.15000X2.15000*%
%ADD28C,5.80000*%
G54D13*
X14354640Y8536940D02*
D03*
X14518640D02*
D03*
X14775900Y8356600D02*
D03*
X14611900D02*
D03*
G54D14*
X11518900Y8122200D02*
D03*
Y8286200D02*
D03*
X10731500Y8604800D02*
D03*
Y8768800D02*
D03*
X12407900Y8592100D02*
D03*
Y8756100D02*
D03*
X14097000Y8611700D02*
D03*
Y8775700D02*
D03*
G54D15*
X14610899Y8178800D02*
D03*
X14776900D02*
D03*
G54D16*
X11341100Y8913600D02*
D03*
Y9323600D02*
D03*
X13017500Y8915400D02*
D03*
Y9325400D02*
D03*
X9664700Y8913600D02*
D03*
Y9323600D02*
D03*
G54D17*
X11485100Y7222400D02*
D03*
Y7349400D02*
D03*
Y7476400D02*
D03*
Y7603400D02*
D03*
Y7730400D02*
D03*
Y7857400D02*
D03*
Y7984400D02*
D03*
X12027500D02*
D03*
Y7857400D02*
D03*
Y7730400D02*
D03*
Y7603400D02*
D03*
Y7476400D02*
D03*
Y7349400D02*
D03*
Y7222400D02*
D03*
G54D18*
X12306300Y9861300D02*
D03*
Y9671300D02*
D03*
X11341100Y8305300D02*
D03*
Y8115300D02*
D03*
X11709400Y9683000D02*
D03*
Y9873000D02*
D03*
X12230100Y8591800D02*
D03*
Y8781800D02*
D03*
X11341100Y8452100D02*
D03*
Y8642100D02*
D03*
X13906500Y8604500D02*
D03*
Y8794500D02*
D03*
Y8947400D02*
D03*
Y9137400D02*
D03*
X12230100Y8934700D02*
D03*
Y9124700D02*
D03*
X10553700Y8604500D02*
D03*
Y8794500D02*
D03*
Y8947400D02*
D03*
Y9137400D02*
D03*
X13982700Y9658600D02*
D03*
Y9848600D02*
D03*
X13385800Y9645900D02*
D03*
Y9835900D02*
D03*
X10680700Y9671300D02*
D03*
Y9861300D02*
D03*
X10033000Y9696700D02*
D03*
Y9886700D02*
D03*
G54D19*
X11595100Y8847400D02*
D03*
X11722100D02*
D03*
X11849100D02*
D03*
X11976100D02*
D03*
Y9389800D02*
D03*
X11849100D02*
D03*
X11722100D02*
D03*
X11595100D02*
D03*
X13271500Y8860100D02*
D03*
X13398500D02*
D03*
X13525500D02*
D03*
X13652499D02*
D03*
Y9402500D02*
D03*
X13525500D02*
D03*
X13398500D02*
D03*
X13271500D02*
D03*
X9918700D02*
D03*
X10045700D02*
D03*
X10172700D02*
D03*
X10299700D02*
D03*
Y8860100D02*
D03*
X10172700D02*
D03*
X10045700D02*
D03*
X9918700D02*
D03*
X14782800Y9199300D02*
D03*
X14655800D02*
D03*
X14528799D02*
D03*
X14401801D02*
D03*
Y8656900D02*
D03*
X14528799D02*
D03*
X14655800D02*
D03*
X14782800D02*
D03*
G54D20*
X12469780Y10108643D02*
D03*
X12929781D02*
D03*
X12168000Y10108900D02*
D03*
X11708000D02*
D03*
X10793300Y10109200D02*
D03*
X11253300D02*
D03*
X13384631Y10109057D02*
D03*
X13844632D02*
D03*
X14146400Y10105000D02*
D03*
X14606400D02*
D03*
X10491600Y10108900D02*
D03*
X10031600D02*
D03*
G54D21*
X12699781Y10798643D02*
D03*
X11938000Y10798900D02*
D03*
X11023300Y10799200D02*
D03*
X13614632Y10799057D02*
D03*
X14376401Y10795000D02*
D03*
X10261600Y10798900D02*
D03*
G54D22*
X13208000Y7274560D02*
D03*
Y7528560D02*
D03*
X14528799Y9624060D02*
D03*
X14274800D02*
D03*
X10528300Y7510780D02*
D03*
Y7256780D02*
D03*
X12937399Y7527200D02*
D03*
Y7273200D02*
D03*
X10257700Y7510780D02*
D03*
Y7256780D02*
D03*
G54D23*
X13208000Y7782560D02*
D03*
X10528300Y7764780D02*
D03*
X12937399Y7781200D02*
D03*
X10257700Y7764780D02*
D03*
G54D24*
X14782800Y9624060D02*
D03*
G54D25*
X13200000Y11709400D02*
D03*
G54D26*
X12700000D02*
D03*
X12200000D02*
D03*
X9321800Y10295000D02*
D03*
G54D27*
Y10795000D02*
D03*
G54D28*
X9118600Y11938000D02*
D03*
X14706599D02*
D03*
X14693900Y7289800D02*
D03*
X9131300D02*
D03*
M02*
