G04*
G04 #@! TF.GenerationSoftware,Altium Limited,Altium Designer,24.0.1 (36)*
G04*
G04 Layer_Color=65535*
%FSLAX45Y45*%
%MOMM*%
G71*
G04*
G04 #@! TF.SameCoordinates,0B170F52-40F4-4D68-8434-06CE0CB0BF9C*
G04*
G04*
G04 #@! TF.FilePolarity,Positive*
G04*
G01*
G75*
%ADD10C,0.25000*%
%ADD11C,0.20000*%
%ADD12C,0.25400*%
G36*
X10544277Y11764464D02*
X10541669D01*
Y11763160D01*
X10540365D01*
Y11761856D01*
X10539061D01*
Y11760552D01*
X10537757D01*
Y11759247D01*
X10536453D01*
Y11757943D01*
X10532541D01*
Y11756639D01*
X10529933D01*
Y11755335D01*
X10527325D01*
Y11754031D01*
X10526021D01*
Y11752727D01*
X10524717D01*
Y11751423D01*
X10520805D01*
Y11750120D01*
X10519501D01*
Y11748815D01*
X10516893D01*
Y11747511D01*
X10515589D01*
Y11746207D01*
X10512981D01*
Y11744903D01*
X10510373D01*
Y11743599D01*
X10509069D01*
Y11742295D01*
X10506461D01*
Y11740991D01*
X10503853D01*
Y11739687D01*
X10499940D01*
Y11738383D01*
X10498637D01*
Y11737079D01*
X10496029D01*
Y11735775D01*
X10493420D01*
Y11734471D01*
X10490812D01*
Y11733167D01*
X10488204D01*
Y11731863D01*
X10485596D01*
Y11730559D01*
X10482988D01*
Y11729255D01*
X10480380D01*
Y11727951D01*
X10477772D01*
Y11726647D01*
X10473860D01*
Y11725343D01*
X10471252D01*
Y11724039D01*
X10468644D01*
Y11722735D01*
X10466036D01*
Y11721431D01*
X10463428D01*
Y11720127D01*
X10459516D01*
Y11718823D01*
X10458212D01*
Y11717519D01*
X10455604D01*
Y11716215D01*
X10452996D01*
Y11714911D01*
X10450388D01*
Y11713607D01*
X10447780D01*
Y11712303D01*
X10446476D01*
Y11710999D01*
X10442564D01*
Y11709695D01*
X10439956D01*
Y11708391D01*
X10437348D01*
Y11707087D01*
X10436044D01*
Y11705783D01*
X10432132D01*
Y11704479D01*
X10430827D01*
Y11703175D01*
X10426915D01*
Y11701871D01*
X10425612D01*
Y11700567D01*
X10421700D01*
Y11699263D01*
X10420395D01*
Y11697959D01*
X10417787D01*
Y11696655D01*
X10415179D01*
Y11695351D01*
X10412571D01*
Y11694047D01*
X10409963D01*
Y11692743D01*
X10407355D01*
Y11691439D01*
X10404747D01*
Y11690135D01*
X10402139D01*
Y11688831D01*
X10400835D01*
Y11687527D01*
X10398227D01*
Y11686222D01*
X10395619D01*
Y11684918D01*
X10394315D01*
Y11683614D01*
X10391707D01*
Y11682310D01*
X10390403D01*
Y11681006D01*
X10387795D01*
Y11679702D01*
X10386491D01*
Y11678398D01*
X10383883D01*
Y11677095D01*
X10382579D01*
Y11675790D01*
X10381275D01*
Y11674486D01*
X10379971D01*
Y11673182D01*
X10377363D01*
Y11671878D01*
X10376059D01*
Y11670574D01*
X10374755D01*
Y11669270D01*
X10373451D01*
Y11667966D01*
X10372147D01*
Y11666662D01*
X10370843D01*
Y11665358D01*
X10369539D01*
Y11664054D01*
X10368235D01*
Y11662750D01*
X10366931D01*
Y11661446D01*
X10365627D01*
Y11660142D01*
X10364323D01*
Y11658838D01*
X10363019D01*
Y11657534D01*
X10361715D01*
Y11656230D01*
X10360411D01*
Y11654926D01*
X10359107D01*
Y11653622D01*
X10357802D01*
Y11652318D01*
X10356498D01*
Y11651014D01*
X10355194D01*
Y11649710D01*
X10353890D01*
Y11647102D01*
X10352587D01*
Y11645798D01*
X10351283D01*
Y11644494D01*
X10349979D01*
Y11643190D01*
X10348675D01*
Y11641886D01*
X10346066D01*
Y11640582D01*
X10342154D01*
Y11639278D01*
X10340850D01*
Y11640582D01*
X10335634D01*
Y11641886D01*
X10333026D01*
Y11643190D01*
X10331722D01*
Y11644494D01*
X10330418D01*
Y11645798D01*
X10329114D01*
Y11647102D01*
X10326506D01*
Y11648406D01*
X10325202D01*
Y11649710D01*
X10323898D01*
Y11651014D01*
X10322594D01*
Y11652318D01*
X10321290D01*
Y11654926D01*
X10319986D01*
Y11656230D01*
X10318682D01*
Y11660142D01*
X10323898D01*
Y11658838D01*
X10326506D01*
Y11657534D01*
X10331722D01*
Y11656230D01*
X10344762D01*
Y11657534D01*
X10347370D01*
Y11658838D01*
X10348675D01*
Y11660142D01*
X10349979D01*
Y11661446D01*
X10351283D01*
Y11662750D01*
X10352587D01*
Y11664054D01*
X10353890D01*
Y11665358D01*
X10355194D01*
Y11667966D01*
X10356498D01*
Y11670574D01*
X10357802D01*
Y11673182D01*
X10359107D01*
Y11675790D01*
X10360411D01*
Y11679702D01*
X10361715D01*
Y11694047D01*
X10360411D01*
Y11696655D01*
X10359107D01*
Y11697959D01*
X10357802D01*
Y11700567D01*
X10356498D01*
Y11701871D01*
X10355194D01*
Y11703175D01*
X10353890D01*
Y11704479D01*
X10351283D01*
Y11705783D01*
X10308250D01*
Y11707087D01*
X10256089D01*
Y11705783D01*
X10211753D01*
Y11707087D01*
X10192192D01*
Y11705783D01*
X10189584D01*
Y11707087D01*
X10188280D01*
Y11705783D01*
X10167416D01*
Y11704479D01*
X10163504D01*
Y11703175D01*
X10160896D01*
Y11701871D01*
X10159592D01*
Y11699263D01*
X10158288D01*
Y11697959D01*
X10156984D01*
Y11695351D01*
X10155680D01*
Y11679702D01*
X10156984D01*
Y11675790D01*
X10158288D01*
Y11671878D01*
X10159592D01*
Y11669270D01*
X10160896D01*
Y11667966D01*
X10162200D01*
Y11665358D01*
X10163504D01*
Y11664054D01*
X10164808D01*
Y11661446D01*
X10166112D01*
Y11660142D01*
X10167416D01*
Y11658838D01*
X10170024D01*
Y11657534D01*
X10171328D01*
Y11656230D01*
X10176544D01*
Y11654926D01*
X10180456D01*
Y11656230D01*
X10185672D01*
Y11657534D01*
X10189584D01*
Y11658838D01*
X10193496D01*
Y11660142D01*
X10198712D01*
Y11656230D01*
X10197408D01*
Y11654926D01*
X10196104D01*
Y11653622D01*
X10194800D01*
Y11652318D01*
X10193496D01*
Y11651014D01*
X10192192D01*
Y11649710D01*
X10190888D01*
Y11648406D01*
X10189584D01*
Y11647102D01*
X10188280D01*
Y11645798D01*
X10186976D01*
Y11644494D01*
X10184368D01*
Y11643190D01*
X10183064D01*
Y11641886D01*
X10180456D01*
Y11640582D01*
X10176544D01*
Y11639278D01*
X10172632D01*
Y11640582D01*
X10170024D01*
Y11641886D01*
X10168720D01*
Y11643190D01*
X10167416D01*
Y11644494D01*
X10166112D01*
Y11645798D01*
X10164808D01*
Y11647102D01*
X10163504D01*
Y11648406D01*
X10162200D01*
Y11649710D01*
X10160896D01*
Y11651014D01*
X10159592D01*
Y11653622D01*
X10156984D01*
Y11656230D01*
X10155680D01*
Y11657534D01*
X10154376D01*
Y11658838D01*
X10151768D01*
Y11660142D01*
X10150464D01*
Y11662750D01*
X10149160D01*
Y11664054D01*
X10146552D01*
Y11665358D01*
X10145248D01*
Y11666662D01*
X10143944D01*
Y11667966D01*
X10142640D01*
Y11669270D01*
X10141336D01*
Y11670574D01*
X10140032D01*
Y11671878D01*
X10138728D01*
Y11673182D01*
X10137423D01*
Y11674486D01*
X10136119D01*
Y11675790D01*
X10134815D01*
Y11677095D01*
X10133512D01*
Y11678398D01*
X10130904D01*
Y11679702D01*
X10129600D01*
Y11681006D01*
X10128295D01*
Y11682310D01*
X10125687D01*
Y11683614D01*
X10124383D01*
Y11684918D01*
X10121775D01*
Y11686222D01*
X10119167D01*
Y11687527D01*
X10117863D01*
Y11688831D01*
X10115255D01*
Y11690135D01*
X10112647D01*
Y11691439D01*
X10110039D01*
Y11692743D01*
X10107431D01*
Y11694047D01*
X10104823D01*
Y11695351D01*
X10102215D01*
Y11696655D01*
X10099607D01*
Y11697959D01*
X10096999D01*
Y11699263D01*
X10095695D01*
Y11700567D01*
X10091783D01*
Y11701871D01*
X10089175D01*
Y11703175D01*
X10086567D01*
Y11704479D01*
X10083959D01*
Y11705783D01*
X10081351D01*
Y11707087D01*
X10078743D01*
Y11708391D01*
X10076135D01*
Y11709695D01*
X10073527D01*
Y11710999D01*
X10072223D01*
Y11712303D01*
X10069615D01*
Y11713607D01*
X10065703D01*
Y11714911D01*
X10064398D01*
Y11716215D01*
X10061790D01*
Y11717519D01*
X10059183D01*
Y11718823D01*
X10056575D01*
Y11720127D01*
X10053966D01*
Y11721431D01*
X10051358D01*
Y11722735D01*
X10048750D01*
Y11724039D01*
X10046142D01*
Y11725343D01*
X10042230D01*
Y11726647D01*
X10039622D01*
Y11727951D01*
X10035710D01*
Y11729255D01*
X10033102D01*
Y11730559D01*
X10030494D01*
Y11731863D01*
X10027886D01*
Y11733167D01*
X10025278D01*
Y11734471D01*
X10023974D01*
Y11735775D01*
X10021366D01*
Y11737079D01*
X10018758D01*
Y11738383D01*
X10016150D01*
Y11739687D01*
X10013542D01*
Y11740991D01*
X10010934D01*
Y11742295D01*
X10009630D01*
Y11743599D01*
X10007022D01*
Y11744903D01*
X10004414D01*
Y11746207D01*
X10001806D01*
Y11747511D01*
X9999198D01*
Y11748815D01*
X9997894D01*
Y11750120D01*
X9995286D01*
Y11751423D01*
X9992678D01*
Y11752727D01*
X9990069D01*
Y11754031D01*
X9988765D01*
Y11755335D01*
X9986158D01*
Y11756639D01*
X9984854D01*
Y11757943D01*
X9982245D01*
Y11759247D01*
X9979637D01*
Y11760552D01*
X9977029D01*
Y11761856D01*
X9974421D01*
Y11763160D01*
X9973117D01*
Y11764464D01*
X9969205D01*
Y11765768D01*
X9967901D01*
Y11767072D01*
X9965293D01*
Y11768376D01*
X9962685D01*
Y11769680D01*
X9961381D01*
Y11770984D01*
X9960077D01*
Y12179141D01*
X10544277D01*
Y11764464D01*
D02*
G37*
G36*
X10279562Y11674486D02*
X10284777D01*
Y11673182D01*
X10287386D01*
Y11671878D01*
X10291298D01*
Y11670574D01*
X10296514D01*
Y11669270D01*
X10300426D01*
Y11667966D01*
X10301730D01*
Y11666662D01*
X10304338D01*
Y11665358D01*
X10305642D01*
Y11664054D01*
X10308250D01*
Y11656230D01*
X10306946D01*
Y11653622D01*
X10305642D01*
Y11649710D01*
X10304338D01*
Y11647102D01*
X10303034D01*
Y11645798D01*
X10301730D01*
Y11643190D01*
X10300426D01*
Y11641886D01*
X10299122D01*
Y11639278D01*
X10297818D01*
Y11637974D01*
X10296514D01*
Y11635366D01*
X10295210D01*
Y11634062D01*
X10293906D01*
Y11631454D01*
X10292602D01*
Y11630150D01*
X10291298D01*
Y11628846D01*
X10289994D01*
Y11626238D01*
X10288690D01*
Y11624934D01*
X10287386D01*
Y11623630D01*
X10286082D01*
Y11622326D01*
X10284777D01*
Y11619718D01*
X10283473D01*
Y11618414D01*
X10282169D01*
Y11615806D01*
X10280865D01*
Y11609285D01*
X10287386D01*
Y11610589D01*
X10292602D01*
Y11611893D01*
X10300426D01*
Y11607981D01*
X10299122D01*
Y11605373D01*
X10297818D01*
Y11604070D01*
X10296514D01*
Y11601461D01*
X10293906D01*
Y11600157D01*
X10292602D01*
Y11598853D01*
X10291298D01*
Y11597549D01*
X10289994D01*
Y11596245D01*
X10288690D01*
Y11594941D01*
X10228705D01*
Y11596245D01*
X10227401D01*
Y11597549D01*
X10226097D01*
Y11598853D01*
X10223489D01*
Y11600157D01*
X10222185D01*
Y11601461D01*
X10220881D01*
Y11604070D01*
X10219577D01*
Y11605373D01*
X10218273D01*
Y11607981D01*
X10216969D01*
Y11611893D01*
X10224793D01*
Y11610589D01*
X10231313D01*
Y11609285D01*
X10237833D01*
Y11613197D01*
X10236529D01*
Y11617110D01*
X10235225D01*
Y11618414D01*
X10233921D01*
Y11619718D01*
X10232617D01*
Y11622326D01*
X10231313D01*
Y11623630D01*
X10230009D01*
Y11624934D01*
X10228705D01*
Y11626238D01*
X10227401D01*
Y11627542D01*
X10226097D01*
Y11630150D01*
X10224793D01*
Y11631454D01*
X10223489D01*
Y11632758D01*
X10222185D01*
Y11635366D01*
X10220881D01*
Y11636670D01*
X10219577D01*
Y11639278D01*
X10218273D01*
Y11640582D01*
X10216969D01*
Y11641886D01*
X10215665D01*
Y11644494D01*
X10214361D01*
Y11647102D01*
X10213057D01*
Y11649710D01*
X10211753D01*
Y11652318D01*
X10210448D01*
Y11654926D01*
X10209144D01*
Y11660142D01*
X10207840D01*
Y11664054D01*
X10210448D01*
Y11665358D01*
X10213057D01*
Y11666662D01*
X10214361D01*
Y11667966D01*
X10216969D01*
Y11669270D01*
X10220881D01*
Y11670574D01*
X10226097D01*
Y11671878D01*
X10230009D01*
Y11673182D01*
X10232617D01*
Y11674486D01*
X10237833D01*
Y11675790D01*
X10279562D01*
Y11674486D01*
D02*
G37*
%LPC*%
G36*
X10132208Y12108724D02*
X10124383D01*
Y12107420D01*
X10123079D01*
Y12106116D01*
X10121775D01*
Y12103508D01*
X10120471D01*
Y12102204D01*
X10117863D01*
Y12100900D01*
X10116559D01*
Y12099596D01*
X10115255D01*
Y12098292D01*
X10113951D01*
Y12095684D01*
X10112647D01*
Y12093076D01*
X10111343D01*
Y12069604D01*
X10112647D01*
Y12056564D01*
X10111343D01*
Y12046131D01*
X10112647D01*
Y12042219D01*
X10113951D01*
Y12039611D01*
X10115255D01*
Y12037003D01*
X10116559D01*
Y12033091D01*
X10117863D01*
Y12030483D01*
X10119167D01*
Y12027875D01*
X10120471D01*
Y12025267D01*
X10121775D01*
Y12021355D01*
X10123079D01*
Y12017443D01*
X10124383D01*
Y12013531D01*
X10125687D01*
Y12009619D01*
X10126991D01*
Y12005707D01*
X10128295D01*
Y12004403D01*
X10129600D01*
Y12003099D01*
X10130904D01*
Y12001795D01*
X10132208D01*
Y11999187D01*
X10133511D01*
Y11996579D01*
X10134815D01*
Y11993971D01*
X10136119D01*
Y11983539D01*
X10134815D01*
Y11979627D01*
X10136119D01*
Y11977018D01*
X10137423D01*
Y11975714D01*
X10138728D01*
Y11973106D01*
X10140032D01*
Y11971802D01*
X10141336D01*
Y11970498D01*
X10142640D01*
Y11969194D01*
X10143944D01*
Y11967890D01*
X10145248D01*
Y11966586D01*
X10146552D01*
Y11965282D01*
X10147856D01*
Y11963978D01*
X10149160D01*
Y11962674D01*
X10150464D01*
Y11961370D01*
X10151768D01*
Y11960066D01*
X10153072D01*
Y11957458D01*
X10154376D01*
Y11956154D01*
X10155680D01*
Y11953546D01*
X10156984D01*
Y11952242D01*
X10158288D01*
Y11949634D01*
X10159592D01*
Y11944418D01*
X10160896D01*
Y11939202D01*
X10162200D01*
Y11937898D01*
X10163504D01*
Y11936594D01*
X10167416D01*
Y11935290D01*
X10183064D01*
Y11936594D01*
X10185672D01*
Y11937898D01*
X10188280D01*
Y11939202D01*
X10189584D01*
Y11940506D01*
X10190888D01*
Y11941810D01*
X10192192D01*
Y11943114D01*
X10193496D01*
Y11944418D01*
X10196104D01*
Y11945722D01*
X10197408D01*
Y11947026D01*
X10198712D01*
Y11948330D01*
X10200016D01*
Y11949634D01*
X10201320D01*
Y11950938D01*
X10203929D01*
Y11952242D01*
X10206536D01*
Y11953546D01*
X10210448D01*
Y11954850D01*
X10211753D01*
Y11953546D01*
X10213057D01*
Y11952242D01*
X10214361D01*
Y11949634D01*
X10215665D01*
Y11947026D01*
X10216969D01*
Y11943114D01*
X10218273D01*
Y11940506D01*
X10219577D01*
Y11937898D01*
X10222185D01*
Y11939202D01*
X10223489D01*
Y11941810D01*
X10222185D01*
Y11949634D01*
X10220881D01*
Y11952242D01*
X10219577D01*
Y11956154D01*
X10218273D01*
Y11960066D01*
X10219577D01*
Y11962674D01*
X10220881D01*
Y11963978D01*
X10223489D01*
Y11965282D01*
X10227401D01*
Y11966586D01*
X10231313D01*
Y11967890D01*
X10233921D01*
Y11969194D01*
X10235225D01*
Y11970498D01*
X10236529D01*
Y11971802D01*
X10237833D01*
Y11973106D01*
X10239137D01*
Y11974410D01*
X10240441D01*
Y11978323D01*
X10241745D01*
Y11980931D01*
X10243049D01*
Y11984843D01*
X10244353D01*
Y11990059D01*
X10245657D01*
Y11991363D01*
X10246961D01*
Y11993971D01*
X10248265D01*
Y11995275D01*
X10250873D01*
Y11996579D01*
X10252177D01*
Y11997883D01*
X10260001D01*
Y11996579D01*
X10262609D01*
Y11995275D01*
X10265217D01*
Y11993971D01*
X10266521D01*
Y11992667D01*
X10267825D01*
Y11991363D01*
X10269129D01*
Y11990059D01*
X10270433D01*
Y11987451D01*
X10271737D01*
Y11986147D01*
X10273041D01*
Y11984843D01*
X10274345D01*
Y11982235D01*
X10275650D01*
Y11980931D01*
X10276954D01*
Y11978323D01*
X10278258D01*
Y11962674D01*
X10279561D01*
Y11963978D01*
X10280865D01*
Y11965282D01*
X10282169D01*
Y11969194D01*
X10283473D01*
Y11971802D01*
X10284777D01*
Y11973106D01*
X10291298D01*
Y11970498D01*
X10292602D01*
Y11963978D01*
X10291298D01*
Y11961370D01*
X10289994D01*
Y11958762D01*
X10288690D01*
Y11957458D01*
X10287386D01*
Y11952242D01*
X10288690D01*
Y11950938D01*
X10291298D01*
Y11952242D01*
X10295210D01*
Y11953546D01*
X10296514D01*
Y11956154D01*
X10297818D01*
Y11957458D01*
X10300426D01*
Y11958762D01*
X10305642D01*
Y11957458D01*
X10310858D01*
Y11956154D01*
X10313466D01*
Y11954850D01*
X10317378D01*
Y11953546D01*
X10318682D01*
Y11952242D01*
X10322594D01*
Y11950938D01*
X10323898D01*
Y11948330D01*
X10325202D01*
Y11947026D01*
X10326506D01*
Y11948330D01*
X10330418D01*
Y11947026D01*
X10331722D01*
Y11952242D01*
X10333026D01*
Y11953546D01*
X10334330D01*
Y11954850D01*
X10335634D01*
Y11956154D01*
X10346066D01*
Y11954850D01*
X10353890D01*
Y11956154D01*
X10357802D01*
Y11962674D01*
X10355194D01*
Y11963978D01*
X10353890D01*
Y11966586D01*
X10352586D01*
Y11973106D01*
X10353890D01*
Y11978323D01*
X10355194D01*
Y11982235D01*
X10356498D01*
Y11986147D01*
X10357802D01*
Y11988755D01*
X10359107D01*
Y11990059D01*
X10360411D01*
Y11991363D01*
X10361715D01*
Y11992667D01*
X10363019D01*
Y11993971D01*
X10364323D01*
Y11995275D01*
X10366931D01*
Y11996579D01*
X10369539D01*
Y11997883D01*
X10370843D01*
Y11999187D01*
X10373451D01*
Y12000491D01*
X10374755D01*
Y12001795D01*
X10376059D01*
Y12004403D01*
X10378667D01*
Y12013531D01*
X10377363D01*
Y12016139D01*
X10376059D01*
Y12020051D01*
X10374755D01*
Y12023963D01*
X10376059D01*
Y12026571D01*
X10377363D01*
Y12029179D01*
X10378667D01*
Y12031787D01*
X10379971D01*
Y12034395D01*
X10381275D01*
Y12035699D01*
X10382579D01*
Y12038307D01*
X10383883D01*
Y12042219D01*
X10385187D01*
Y12046131D01*
X10386491D01*
Y12056564D01*
X10387795D01*
Y12060476D01*
X10389099D01*
Y12064388D01*
X10390403D01*
Y12068300D01*
X10391707D01*
Y12072212D01*
X10393011D01*
Y12081340D01*
X10391707D01*
Y12083948D01*
X10390403D01*
Y12086556D01*
X10387795D01*
Y12087860D01*
X10379971D01*
Y12089164D01*
X10378667D01*
Y12094380D01*
X10376059D01*
Y12095684D01*
X10374755D01*
Y12096988D01*
X10373451D01*
Y12098292D01*
X10372147D01*
Y12096988D01*
X10370843D01*
Y12095684D01*
X10368235D01*
Y12091772D01*
X10366931D01*
Y12090468D01*
X10365627D01*
Y12089164D01*
X10364323D01*
Y12087860D01*
X10363019D01*
Y12085252D01*
X10361715D01*
Y12086556D01*
X10359107D01*
Y12085252D01*
X10353890D01*
Y12083948D01*
X10352586D01*
Y12082644D01*
X10349979D01*
Y12081340D01*
X10348675D01*
Y12080036D01*
X10347370D01*
Y12078732D01*
X10346066D01*
Y12077428D01*
X10344762D01*
Y12076124D01*
X10343458D01*
Y12074820D01*
X10342154D01*
Y12073516D01*
X10340850D01*
Y12072212D01*
X10339546D01*
Y12070908D01*
X10338242D01*
Y12069604D01*
X10336938D01*
Y12068300D01*
X10333026D01*
Y12066996D01*
X10331722D01*
Y12065692D01*
X10329114D01*
Y12064388D01*
X10326506D01*
Y12063084D01*
X10325202D01*
Y12061780D01*
X10322594D01*
Y12060476D01*
X10321290D01*
Y12059172D01*
X10318682D01*
Y12057868D01*
X10317378D01*
Y12056564D01*
X10313466D01*
Y12055260D01*
X10310858D01*
Y12053956D01*
X10309554D01*
Y12052652D01*
X10306946D01*
Y12051347D01*
X10305642D01*
Y12050043D01*
X10304338D01*
Y12048739D01*
X10303034D01*
Y12047435D01*
X10300426D01*
Y12046131D01*
X10284777D01*
Y12044827D01*
X10283473D01*
Y12042219D01*
X10282169D01*
Y12040915D01*
X10280865D01*
Y12038307D01*
X10279561D01*
Y12037003D01*
X10278258D01*
Y12034395D01*
X10276954D01*
Y12031787D01*
X10275650D01*
Y12030483D01*
X10273041D01*
Y12029179D01*
X10270433D01*
Y12027875D01*
X10267825D01*
Y12026571D01*
X10266521D01*
Y12023963D01*
X10265217D01*
Y12022659D01*
X10263913D01*
Y12020051D01*
X10262609D01*
Y12018747D01*
X10261305D01*
Y12017443D01*
X10260001D01*
Y12016139D01*
X10253481D01*
Y12017443D01*
X10252177D01*
Y12018747D01*
X10250873D01*
Y12021355D01*
X10249569D01*
Y12022659D01*
X10248265D01*
Y12025267D01*
X10246961D01*
Y12027875D01*
X10245657D01*
Y12031787D01*
X10244353D01*
Y12046131D01*
X10243049D01*
Y12047435D01*
X10237833D01*
Y12046131D01*
X10235225D01*
Y12044827D01*
X10233921D01*
Y12042219D01*
X10230009D01*
Y12040915D01*
X10226097D01*
Y12042219D01*
X10223489D01*
Y12044827D01*
X10222185D01*
Y12046131D01*
X10220881D01*
Y12047435D01*
X10219577D01*
Y12048739D01*
X10218273D01*
Y12051347D01*
X10216969D01*
Y12052652D01*
X10215665D01*
Y12053956D01*
X10211753D01*
Y12055260D01*
X10203929D01*
Y12056564D01*
X10202625D01*
Y12057868D01*
X10200016D01*
Y12060476D01*
X10198712D01*
Y12061780D01*
X10197408D01*
Y12063084D01*
X10196104D01*
Y12064388D01*
X10194800D01*
Y12065692D01*
X10193496D01*
Y12066996D01*
X10192192D01*
Y12068300D01*
X10190888D01*
Y12069604D01*
X10188280D01*
Y12072212D01*
X10186976D01*
Y12073516D01*
X10185672D01*
Y12074820D01*
X10184368D01*
Y12076124D01*
X10183064D01*
Y12078732D01*
X10181760D01*
Y12081340D01*
X10180456D01*
Y12082644D01*
X10179152D01*
Y12083948D01*
X10177848D01*
Y12085252D01*
X10176544D01*
Y12086556D01*
X10175240D01*
Y12087860D01*
X10172632D01*
Y12089164D01*
X10170024D01*
Y12090468D01*
X10166112D01*
Y12091772D01*
X10164808D01*
Y12093076D01*
X10162200D01*
Y12094380D01*
X10160896D01*
Y12096988D01*
X10159592D01*
Y12098292D01*
X10158288D01*
Y12099596D01*
X10155680D01*
Y12100900D01*
X10153072D01*
Y12102204D01*
X10149160D01*
Y12103508D01*
X10146552D01*
Y12104812D01*
X10143944D01*
Y12106116D01*
X10140032D01*
Y12107420D01*
X10132208D01*
Y12108724D01*
D02*
G37*
G36*
X10451692Y11944418D02*
X10449084D01*
Y11941810D01*
X10446476D01*
Y11940506D01*
X10445172D01*
Y11939202D01*
X10443868D01*
Y11937898D01*
X10442564D01*
Y11935290D01*
X10441260D01*
Y11933986D01*
X10439956D01*
Y11932682D01*
X10438652D01*
Y11930074D01*
X10437348D01*
Y11927466D01*
X10436044D01*
Y11926162D01*
X10434740D01*
Y11924858D01*
X10433436D01*
Y11922250D01*
X10432132D01*
Y11920946D01*
X10430827D01*
Y11919642D01*
X10429523D01*
Y11918338D01*
X10428219D01*
Y11917034D01*
X10426915D01*
Y11915730D01*
X10425611D01*
Y11914426D01*
X10424308D01*
Y11913122D01*
X10423004D01*
Y11911818D01*
X10421700D01*
Y11910514D01*
X10420395D01*
Y11909210D01*
X10419091D01*
Y11907906D01*
X10417787D01*
Y11906602D01*
X10416483D01*
Y11905298D01*
X10415179D01*
Y11903993D01*
X10413875D01*
Y11902689D01*
X10412571D01*
Y11901385D01*
X10411267D01*
Y11900081D01*
X10409963D01*
Y11898777D01*
X10407355D01*
Y11897473D01*
X10406051D01*
Y11896169D01*
X10404747D01*
Y11894865D01*
X10403443D01*
Y11893561D01*
X10400835D01*
Y11892257D01*
X10399531D01*
Y11890953D01*
X10396923D01*
Y11889649D01*
X10395619D01*
Y11888345D01*
X10393011D01*
Y11887041D01*
X10390403D01*
Y11885737D01*
X10389099D01*
Y11884433D01*
X10386491D01*
Y11883129D01*
X10385187D01*
Y11881825D01*
X10382579D01*
Y11880521D01*
X10379971D01*
Y11879217D01*
X10378667D01*
Y11877913D01*
X10376059D01*
Y11876609D01*
X10373451D01*
Y11875305D01*
X10370843D01*
Y11874001D01*
X10368235D01*
Y11872697D01*
X10363019D01*
Y11871393D01*
X10348675D01*
Y11870089D01*
X10347370D01*
Y11871393D01*
X10344762D01*
Y11870089D01*
X10343458D01*
Y11871393D01*
X10326506D01*
Y11872697D01*
X10319986D01*
Y11874001D01*
X10316074D01*
Y11875305D01*
X10313466D01*
Y11876609D01*
X10309554D01*
Y11877913D01*
X10306946D01*
Y11879217D01*
X10304338D01*
Y11880521D01*
X10301730D01*
Y11881825D01*
X10300426D01*
Y11883129D01*
X10297818D01*
Y11884433D01*
X10296514D01*
Y11885737D01*
X10295210D01*
Y11887041D01*
X10293906D01*
Y11888345D01*
X10292602D01*
Y11889649D01*
X10291298D01*
Y11890953D01*
X10288690D01*
Y11892257D01*
X10287386D01*
Y11893561D01*
X10286082D01*
Y11894865D01*
X10284777D01*
Y11896169D01*
X10282169D01*
Y11897473D01*
X10279561D01*
Y11898777D01*
X10275650D01*
Y11900081D01*
X10266521D01*
Y11898777D01*
X10263913D01*
Y11892257D01*
X10262609D01*
Y11879217D01*
X10263913D01*
Y11874001D01*
X10265217D01*
Y11872697D01*
X10266521D01*
Y11870089D01*
X10267825D01*
Y11868785D01*
X10270433D01*
Y11867481D01*
X10271737D01*
Y11866177D01*
X10273041D01*
Y11864873D01*
X10274345D01*
Y11863569D01*
X10275650D01*
Y11862265D01*
X10276954D01*
Y11860961D01*
X10278258D01*
Y11859657D01*
X10279561D01*
Y11858353D01*
X10280865D01*
Y11857049D01*
X10283473D01*
Y11855745D01*
X10284777D01*
Y11854441D01*
X10286082D01*
Y11853137D01*
X10287386D01*
Y11851833D01*
X10289994D01*
Y11850529D01*
X10291298D01*
Y11849225D01*
X10293906D01*
Y11847921D01*
X10296514D01*
Y11846617D01*
X10300426D01*
Y11845313D01*
X10305642D01*
Y11844009D01*
X10310858D01*
Y11842705D01*
X10316074D01*
Y11841401D01*
X10336938D01*
Y11842705D01*
X10343458D01*
Y11844009D01*
X10348675D01*
Y11845313D01*
X10353890D01*
Y11846617D01*
X10360411D01*
Y11847921D01*
X10364323D01*
Y11849225D01*
X10366931D01*
Y11850529D01*
X10370843D01*
Y11851833D01*
X10374755D01*
Y11853137D01*
X10378667D01*
Y11854441D01*
X10381275D01*
Y11855745D01*
X10385187D01*
Y11857049D01*
X10389099D01*
Y11858353D01*
X10391707D01*
Y11859657D01*
X10394315D01*
Y11860961D01*
X10398227D01*
Y11862265D01*
X10400835D01*
Y11863569D01*
X10402139D01*
Y11864873D01*
X10403443D01*
Y11866177D01*
X10404747D01*
Y11867481D01*
X10406051D01*
Y11868785D01*
X10407355D01*
Y11870089D01*
X10409963D01*
Y11871393D01*
X10411267D01*
Y11872697D01*
X10412571D01*
Y11874001D01*
X10413875D01*
Y11875305D01*
X10415179D01*
Y11876609D01*
X10416483D01*
Y11877913D01*
X10419091D01*
Y11879217D01*
X10420395D01*
Y11880521D01*
X10421700D01*
Y11881825D01*
X10424308D01*
Y11883129D01*
X10425611D01*
Y11884433D01*
X10426915D01*
Y11885737D01*
X10428219D01*
Y11887041D01*
X10429523D01*
Y11889649D01*
X10430827D01*
Y11890953D01*
X10432132D01*
Y11892257D01*
X10433436D01*
Y11893561D01*
X10434740D01*
Y11894865D01*
X10436044D01*
Y11897473D01*
X10437348D01*
Y11898777D01*
X10438652D01*
Y11900081D01*
X10439956D01*
Y11902689D01*
X10441260D01*
Y11903993D01*
X10442564D01*
Y11905298D01*
X10443868D01*
Y11907906D01*
X10445172D01*
Y11910514D01*
X10446476D01*
Y11911818D01*
X10447780D01*
Y11913122D01*
X10449084D01*
Y11915730D01*
X10450388D01*
Y11918338D01*
X10451692D01*
Y11923554D01*
X10452996D01*
Y11928770D01*
X10451692D01*
Y11944418D01*
D02*
G37*
G36*
X10063094Y11940506D02*
X10060486D01*
Y11939202D01*
X10059183D01*
Y11937898D01*
X10057879D01*
Y11936594D01*
X10056575D01*
Y11933986D01*
X10055270D01*
Y11928770D01*
X10053966D01*
Y11926162D01*
X10055270D01*
Y11923554D01*
X10053966D01*
Y11922250D01*
X10055270D01*
Y11919642D01*
X10056575D01*
Y11917034D01*
X10057879D01*
Y11915730D01*
X10059183D01*
Y11913122D01*
X10060486D01*
Y11911818D01*
X10061790D01*
Y11910514D01*
X10063094D01*
Y11909210D01*
X10064398D01*
Y11907906D01*
X10065703D01*
Y11906602D01*
X10067007D01*
Y11903993D01*
X10068311D01*
Y11902689D01*
X10069615D01*
Y11901385D01*
X10070919D01*
Y11900081D01*
X10072223D01*
Y11898777D01*
X10073527D01*
Y11897473D01*
X10074831D01*
Y11894865D01*
X10076135D01*
Y11893561D01*
X10077439D01*
Y11892257D01*
X10078743D01*
Y11889649D01*
X10081351D01*
Y11887041D01*
X10082655D01*
Y11885737D01*
X10083959D01*
Y11884433D01*
X10085263D01*
Y11883129D01*
X10086567D01*
Y11881825D01*
X10087871D01*
Y11880521D01*
X10089175D01*
Y11879217D01*
X10090479D01*
Y11877913D01*
X10093087D01*
Y11876609D01*
X10094391D01*
Y11875305D01*
X10095695D01*
Y11874001D01*
X10096999D01*
Y11872697D01*
X10098303D01*
Y11871393D01*
X10100911D01*
Y11870089D01*
X10102215D01*
Y11868785D01*
X10103519D01*
Y11867481D01*
X10104823D01*
Y11866177D01*
X10107431D01*
Y11864873D01*
X10108735D01*
Y11863569D01*
X10111343D01*
Y11862265D01*
X10112647D01*
Y11860961D01*
X10115255D01*
Y11859657D01*
X10116559D01*
Y11858353D01*
X10119167D01*
Y11857049D01*
X10121775D01*
Y11855745D01*
X10123079D01*
Y11854441D01*
X10125687D01*
Y11853137D01*
X10129600D01*
Y11851833D01*
X10133511D01*
Y11850529D01*
X10137423D01*
Y11849225D01*
X10140032D01*
Y11847921D01*
X10143944D01*
Y11846617D01*
X10151768D01*
Y11845313D01*
X10160896D01*
Y11844009D01*
X10176544D01*
Y11845313D01*
X10189584D01*
Y11846617D01*
X10200016D01*
Y11847921D01*
X10209144D01*
Y11849225D01*
X10216969D01*
Y11850529D01*
X10219577D01*
Y11851833D01*
X10222185D01*
Y11853137D01*
X10224793D01*
Y11854441D01*
X10226097D01*
Y11855745D01*
X10227401D01*
Y11857049D01*
X10230009D01*
Y11858353D01*
X10231313D01*
Y11859657D01*
X10232617D01*
Y11860961D01*
X10233921D01*
Y11862265D01*
X10235225D01*
Y11863569D01*
X10236529D01*
Y11864873D01*
X10237833D01*
Y11866177D01*
X10239137D01*
Y11867481D01*
X10240441D01*
Y11868785D01*
X10241745D01*
Y11870089D01*
X10244353D01*
Y11871393D01*
X10245657D01*
Y11872697D01*
X10246961D01*
Y11875305D01*
X10248265D01*
Y11896169D01*
X10246961D01*
Y11898777D01*
X10245657D01*
Y11900081D01*
X10233921D01*
Y11898777D01*
X10231313D01*
Y11897473D01*
X10228705D01*
Y11896169D01*
X10226097D01*
Y11894865D01*
X10224793D01*
Y11893561D01*
X10222185D01*
Y11892257D01*
X10220881D01*
Y11890953D01*
X10219577D01*
Y11889649D01*
X10218273D01*
Y11888345D01*
X10216969D01*
Y11887041D01*
X10214361D01*
Y11885737D01*
X10213057D01*
Y11884433D01*
X10211753D01*
Y11883129D01*
X10207840D01*
Y11881825D01*
X10206536D01*
Y11880521D01*
X10203929D01*
Y11879217D01*
X10201320D01*
Y11877913D01*
X10197408D01*
Y11876609D01*
X10194800D01*
Y11875305D01*
X10192192D01*
Y11874001D01*
X10186976D01*
Y11872697D01*
X10181760D01*
Y11871393D01*
X10156984D01*
Y11872697D01*
X10150464D01*
Y11874001D01*
X10145248D01*
Y11875305D01*
X10141336D01*
Y11876609D01*
X10137423D01*
Y11877913D01*
X10134815D01*
Y11879217D01*
X10132208D01*
Y11880521D01*
X10129600D01*
Y11881825D01*
X10126991D01*
Y11883129D01*
X10125687D01*
Y11884433D01*
X10123079D01*
Y11885737D01*
X10121775D01*
Y11887041D01*
X10120471D01*
Y11888345D01*
X10117863D01*
Y11889649D01*
X10115255D01*
Y11890953D01*
X10113951D01*
Y11892257D01*
X10111343D01*
Y11893561D01*
X10110039D01*
Y11894865D01*
X10108735D01*
Y11896169D01*
X10107431D01*
Y11897473D01*
X10106127D01*
Y11898777D01*
X10104823D01*
Y11900081D01*
X10103519D01*
Y11901385D01*
X10102215D01*
Y11902689D01*
X10100911D01*
Y11903993D01*
X10099607D01*
Y11905298D01*
X10098303D01*
Y11906602D01*
X10096999D01*
Y11907906D01*
X10095695D01*
Y11909210D01*
X10094391D01*
Y11910514D01*
X10093087D01*
Y11911818D01*
X10091783D01*
Y11913122D01*
X10089175D01*
Y11914426D01*
X10087871D01*
Y11915730D01*
X10086567D01*
Y11917034D01*
X10085263D01*
Y11918338D01*
X10083959D01*
Y11919642D01*
X10082655D01*
Y11920946D01*
X10081351D01*
Y11922250D01*
X10080047D01*
Y11923554D01*
X10078743D01*
Y11924858D01*
X10077439D01*
Y11926162D01*
X10076135D01*
Y11927466D01*
X10074831D01*
Y11930074D01*
X10073527D01*
Y11931378D01*
X10072223D01*
Y11932682D01*
X10070919D01*
Y11933986D01*
X10069615D01*
Y11935290D01*
X10068311D01*
Y11936594D01*
X10067007D01*
Y11937898D01*
X10065703D01*
Y11939202D01*
X10063094D01*
Y11940506D01*
D02*
G37*
G36*
X10494725Y11944418D02*
X10492116D01*
Y11940506D01*
X10490812D01*
Y11930074D01*
X10489508D01*
Y11910514D01*
X10488204D01*
Y11906602D01*
X10486900D01*
Y11903993D01*
X10484292D01*
Y11902689D01*
X10481684D01*
Y11900081D01*
X10479076D01*
Y11898777D01*
X10477772D01*
Y11894865D01*
X10476468D01*
Y11892257D01*
X10475164D01*
Y11890953D01*
X10473860D01*
Y11889649D01*
X10472556D01*
Y11888345D01*
X10471252D01*
Y11885737D01*
X10469948D01*
Y11884433D01*
X10468644D01*
Y11883129D01*
X10467340D01*
Y11881825D01*
X10466036D01*
Y11880521D01*
X10464732D01*
Y11879217D01*
X10462124D01*
Y11877913D01*
X10460820D01*
Y11876609D01*
X10458212D01*
Y11875305D01*
X10456908D01*
Y11874001D01*
X10455604D01*
Y11871393D01*
X10456908D01*
Y11870089D01*
X10458212D01*
Y11868785D01*
X10459516D01*
Y11866177D01*
X10460820D01*
Y11860961D01*
X10459516D01*
Y11859657D01*
X10458212D01*
Y11858353D01*
X10456908D01*
Y11857049D01*
X10455604D01*
Y11855745D01*
X10452996D01*
Y11854441D01*
X10449084D01*
Y11853137D01*
X10446476D01*
Y11851833D01*
X10441260D01*
Y11850529D01*
X10437348D01*
Y11849225D01*
X10434740D01*
Y11847921D01*
X10430827D01*
Y11846617D01*
X10428219D01*
Y11845313D01*
X10425611D01*
Y11844009D01*
X10421700D01*
Y11842705D01*
X10419091D01*
Y11841401D01*
X10416483D01*
Y11840097D01*
X10413875D01*
Y11838793D01*
X10411267D01*
Y11837489D01*
X10408659D01*
Y11836185D01*
X10406051D01*
Y11834881D01*
X10404747D01*
Y11833577D01*
X10402139D01*
Y11832273D01*
X10399531D01*
Y11830968D01*
X10396923D01*
Y11829664D01*
X10395619D01*
Y11828360D01*
X10393011D01*
Y11827056D01*
X10390403D01*
Y11825752D01*
X10387795D01*
Y11824448D01*
X10383883D01*
Y11823144D01*
X10381275D01*
Y11821840D01*
X10378667D01*
Y11820536D01*
X10377363D01*
Y11819232D01*
X10374755D01*
Y11817928D01*
X10372147D01*
Y11816624D01*
X10369539D01*
Y11815320D01*
X10366931D01*
Y11814016D01*
X10364323D01*
Y11812712D01*
X10360411D01*
Y11811408D01*
X10355194D01*
Y11810104D01*
X10349979D01*
Y11808800D01*
X10344762D01*
Y11807496D01*
X10339546D01*
Y11806192D01*
X10333026D01*
Y11804888D01*
X10331722D01*
Y11806192D01*
X10327810D01*
Y11804888D01*
X10323898D01*
Y11806192D01*
X10321290D01*
Y11804888D01*
X10314770D01*
Y11803584D01*
X10309554D01*
Y11802280D01*
X10305642D01*
Y11800976D01*
X10303034D01*
Y11799672D01*
X10296514D01*
Y11798368D01*
X10261305D01*
Y11799672D01*
X10228705D01*
Y11800976D01*
X10197408D01*
Y11799672D01*
X10155680D01*
Y11800976D01*
X10151768D01*
Y11802280D01*
X10149160D01*
Y11803584D01*
X10147856D01*
Y11804888D01*
X10146552D01*
Y11806192D01*
X10145248D01*
Y11808800D01*
X10143944D01*
Y11810104D01*
X10141336D01*
Y11811408D01*
X10140032D01*
Y11812712D01*
X10137423D01*
Y11814016D01*
X10133511D01*
Y11815320D01*
X10126991D01*
Y11816624D01*
X10124383D01*
Y11815320D01*
X10115255D01*
Y11814016D01*
X10112647D01*
Y11811408D01*
X10111343D01*
Y11810104D01*
X10110039D01*
Y11808800D01*
X10108735D01*
Y11806192D01*
X10107431D01*
Y11804888D01*
X10106127D01*
Y11803584D01*
X10093087D01*
Y11804888D01*
X10090479D01*
Y11806192D01*
X10087871D01*
Y11807496D01*
X10086567D01*
Y11808800D01*
X10085263D01*
Y11811408D01*
X10086567D01*
Y11814016D01*
X10087871D01*
Y11816624D01*
X10089175D01*
Y11817928D01*
X10090479D01*
Y11820536D01*
X10091783D01*
Y11821840D01*
X10093087D01*
Y11824448D01*
X10094391D01*
Y11829664D01*
X10095695D01*
Y11837489D01*
X10090479D01*
Y11836185D01*
X10087871D01*
Y11834881D01*
X10085263D01*
Y11833577D01*
X10082655D01*
Y11832273D01*
X10081351D01*
Y11830968D01*
X10080047D01*
Y11829664D01*
X10078743D01*
Y11828360D01*
X10077439D01*
Y11827056D01*
X10076135D01*
Y11825752D01*
X10073527D01*
Y11824448D01*
X10068311D01*
Y11823144D01*
X10061790D01*
Y11824448D01*
X10059183D01*
Y11825752D01*
X10057879D01*
Y11827056D01*
X10056575D01*
Y11828360D01*
X10055270D01*
Y11833577D01*
X10053966D01*
Y11837489D01*
X10052662D01*
Y11842705D01*
X10051358D01*
Y11845313D01*
X10050054D01*
Y11849225D01*
X10048750D01*
Y11851833D01*
X10050054D01*
Y11854441D01*
X10051358D01*
Y11855745D01*
X10052662D01*
Y11857049D01*
X10053966D01*
Y11858353D01*
X10055270D01*
Y11859657D01*
X10056575D01*
Y11860961D01*
X10057879D01*
Y11863569D01*
X10059183D01*
Y11867481D01*
X10056575D01*
Y11868785D01*
X10047446D01*
Y11870089D01*
X10037014D01*
Y11872697D01*
X10035710D01*
Y11875305D01*
X10038318D01*
Y11876609D01*
X10039622D01*
Y11877913D01*
X10042230D01*
Y11879217D01*
X10046142D01*
Y11880521D01*
X10050054D01*
Y11881825D01*
X10051358D01*
Y11883129D01*
X10053966D01*
Y11884433D01*
X10055270D01*
Y11888345D01*
X10053966D01*
Y11890953D01*
X10052662D01*
Y11893561D01*
X10051358D01*
Y11894865D01*
X10050054D01*
Y11896169D01*
X10048750D01*
Y11897473D01*
X10047446D01*
Y11898777D01*
X10046142D01*
Y11900081D01*
X10044838D01*
Y11901385D01*
X10042230D01*
Y11902689D01*
X10039622D01*
Y11903993D01*
X10037014D01*
Y11905298D01*
X10034406D01*
Y11906602D01*
X10031798D01*
Y11907906D01*
X10029190D01*
Y11909210D01*
X10026582D01*
Y11910514D01*
X10022670D01*
Y11911818D01*
X10013542D01*
Y11910514D01*
X10010934D01*
Y11909210D01*
X10009630D01*
Y11906602D01*
X10008326D01*
Y11896169D01*
X10009630D01*
Y11889649D01*
X10010934D01*
Y11884433D01*
X10012238D01*
Y11880521D01*
X10013542D01*
Y11877913D01*
X10014846D01*
Y11875305D01*
X10016150D01*
Y11872697D01*
X10017454D01*
Y11871393D01*
X10018758D01*
Y11868785D01*
X10020062D01*
Y11867481D01*
X10021366D01*
Y11866177D01*
X10022670D01*
Y11863569D01*
X10023974D01*
Y11862265D01*
X10025278D01*
Y11855745D01*
X10023974D01*
Y11845313D01*
X10025278D01*
Y11842705D01*
X10026582D01*
Y11840097D01*
X10029190D01*
Y11838793D01*
X10030494D01*
Y11837489D01*
X10031798D01*
Y11836185D01*
X10034406D01*
Y11834881D01*
X10035710D01*
Y11833577D01*
X10038318D01*
Y11832273D01*
X10039622D01*
Y11830968D01*
X10040926D01*
Y11829664D01*
X10042230D01*
Y11827056D01*
X10044838D01*
Y11821840D01*
X10046142D01*
Y11820536D01*
X10047446D01*
Y11819232D01*
X10048750D01*
Y11816624D01*
X10050054D01*
Y11815320D01*
X10051358D01*
Y11814016D01*
X10052662D01*
Y11812712D01*
X10053966D01*
Y11811408D01*
X10055270D01*
Y11810104D01*
X10056575D01*
Y11808800D01*
X10057879D01*
Y11807496D01*
X10059183D01*
Y11806192D01*
X10060486D01*
Y11804888D01*
X10061790D01*
Y11803584D01*
X10063094D01*
Y11802280D01*
X10064398D01*
Y11800976D01*
X10065703D01*
Y11799672D01*
X10067007D01*
Y11798368D01*
X10068311D01*
Y11797064D01*
X10069615D01*
Y11795760D01*
X10070919D01*
Y11794456D01*
X10072223D01*
Y11793152D01*
X10073527D01*
Y11791848D01*
X10074831D01*
Y11790544D01*
X10076135D01*
Y11789240D01*
X10077439D01*
Y11787936D01*
X10078743D01*
Y11786632D01*
X10080047D01*
Y11785328D01*
X10082655D01*
Y11784024D01*
X10083959D01*
Y11782720D01*
X10085263D01*
Y11781416D01*
X10086567D01*
Y11780112D01*
X10087871D01*
Y11778808D01*
X10089175D01*
Y11777504D01*
X10090479D01*
Y11776200D01*
X10094391D01*
Y11774896D01*
X10103519D01*
Y11773592D01*
X10108735D01*
Y11772288D01*
X10111343D01*
Y11770984D01*
X10112647D01*
Y11769680D01*
X10113951D01*
Y11768376D01*
X10116559D01*
Y11767072D01*
X10119167D01*
Y11765768D01*
X10121775D01*
Y11764464D01*
X10128295D01*
Y11763160D01*
X10141336D01*
Y11761856D01*
X10149160D01*
Y11760552D01*
X10151768D01*
Y11759247D01*
X10155680D01*
Y11757943D01*
X10158288D01*
Y11756639D01*
X10160896D01*
Y11755335D01*
X10162200D01*
Y11754031D01*
X10166112D01*
Y11752727D01*
X10171328D01*
Y11751423D01*
X10172632D01*
Y11752727D01*
X10188280D01*
Y11751423D01*
X10190888D01*
Y11750119D01*
X10193496D01*
Y11748815D01*
X10196104D01*
Y11747511D01*
X10236529D01*
Y11746207D01*
X10243049D01*
Y11744903D01*
X10262609D01*
Y11746207D01*
X10280865D01*
Y11747511D01*
X10295210D01*
Y11748815D01*
X10304338D01*
Y11750119D01*
X10313466D01*
Y11751423D01*
X10323898D01*
Y11752727D01*
X10333026D01*
Y11754031D01*
X10339546D01*
Y11755335D01*
X10343458D01*
Y11756639D01*
X10347370D01*
Y11757943D01*
X10349979D01*
Y11759247D01*
X10352586D01*
Y11760552D01*
X10355194D01*
Y11761856D01*
X10356498D01*
Y11763160D01*
X10359107D01*
Y11764464D01*
X10360411D01*
Y11765768D01*
X10361715D01*
Y11767072D01*
X10364323D01*
Y11768376D01*
X10365627D01*
Y11769680D01*
X10366931D01*
Y11770984D01*
X10369539D01*
Y11772288D01*
X10370843D01*
Y11773592D01*
X10372147D01*
Y11774896D01*
X10374755D01*
Y11776200D01*
X10376059D01*
Y11777504D01*
X10378667D01*
Y11778808D01*
X10379971D01*
Y11780112D01*
X10382579D01*
Y11781416D01*
X10385187D01*
Y11782720D01*
X10387795D01*
Y11784024D01*
X10391707D01*
Y11785328D01*
X10393011D01*
Y11786632D01*
X10395619D01*
Y11787936D01*
X10396923D01*
Y11789240D01*
X10398227D01*
Y11790544D01*
X10399531D01*
Y11791848D01*
X10400835D01*
Y11794456D01*
X10402139D01*
Y11797064D01*
X10403443D01*
Y11798368D01*
X10404747D01*
Y11802280D01*
X10406051D01*
Y11803584D01*
X10407355D01*
Y11804888D01*
X10408659D01*
Y11806192D01*
X10413875D01*
Y11807496D01*
X10416483D01*
Y11806192D01*
X10421700D01*
Y11807496D01*
X10425611D01*
Y11808800D01*
X10428219D01*
Y11810104D01*
X10429523D01*
Y11811408D01*
X10430827D01*
Y11812712D01*
X10433436D01*
Y11814016D01*
X10434740D01*
Y11815320D01*
X10437348D01*
Y11816624D01*
X10439956D01*
Y11817928D01*
X10441260D01*
Y11819232D01*
X10443868D01*
Y11820536D01*
X10446476D01*
Y11821840D01*
X10447780D01*
Y11823144D01*
X10450388D01*
Y11824448D01*
X10451692D01*
Y11825752D01*
X10452996D01*
Y11827056D01*
X10454300D01*
Y11828360D01*
X10455604D01*
Y11829664D01*
X10456908D01*
Y11830968D01*
X10458212D01*
Y11833577D01*
X10459516D01*
Y11837489D01*
X10460820D01*
Y11841401D01*
X10462124D01*
Y11844009D01*
X10463428D01*
Y11846617D01*
X10464732D01*
Y11849225D01*
X10466036D01*
Y11853137D01*
X10467340D01*
Y11855745D01*
X10468644D01*
Y11859657D01*
X10469948D01*
Y11863569D01*
X10471252D01*
Y11864873D01*
X10472556D01*
Y11868785D01*
X10473860D01*
Y11870089D01*
X10475164D01*
Y11872697D01*
X10476468D01*
Y11875305D01*
X10477772D01*
Y11876609D01*
X10479076D01*
Y11879217D01*
X10480380D01*
Y11880521D01*
X10481684D01*
Y11883129D01*
X10482988D01*
Y11884433D01*
X10484292D01*
Y11887041D01*
X10485596D01*
Y11889649D01*
X10486900D01*
Y11890953D01*
X10488204D01*
Y11893561D01*
X10489508D01*
Y11894865D01*
X10490812D01*
Y11897473D01*
X10492116D01*
Y11900081D01*
X10493420D01*
Y11903993D01*
X10494725D01*
Y11906602D01*
X10496029D01*
Y11940506D01*
X10494725D01*
Y11944418D01*
D02*
G37*
%LPD*%
G36*
X10343458Y12044827D02*
X10346066D01*
Y12039611D01*
X10347370D01*
Y12038307D01*
X10346066D01*
Y12035699D01*
X10344762D01*
Y12033091D01*
X10343458D01*
Y12030483D01*
X10342154D01*
Y12029179D01*
X10340850D01*
Y12027875D01*
X10339546D01*
Y12026571D01*
X10338242D01*
Y12025267D01*
X10336938D01*
Y12023963D01*
X10334330D01*
Y12022659D01*
X10333026D01*
Y12021355D01*
X10330418D01*
Y12020051D01*
X10327810D01*
Y12018747D01*
X10323898D01*
Y12017443D01*
X10318682D01*
Y12018747D01*
X10313466D01*
Y12020051D01*
X10310858D01*
Y12021355D01*
X10309554D01*
Y12022659D01*
X10306946D01*
Y12023963D01*
X10305642D01*
Y12026571D01*
X10304338D01*
Y12027875D01*
X10303034D01*
Y12031787D01*
X10304338D01*
Y12033091D01*
X10305642D01*
Y12035699D01*
X10308250D01*
Y12037003D01*
X10310858D01*
Y12035699D01*
X10312162D01*
Y12034395D01*
X10314770D01*
Y12033091D01*
X10317378D01*
Y12031787D01*
X10318682D01*
Y12030483D01*
X10321290D01*
Y12029179D01*
X10325202D01*
Y12030483D01*
X10327810D01*
Y12031787D01*
X10329114D01*
Y12033091D01*
X10330418D01*
Y12035699D01*
X10331722D01*
Y12037003D01*
X10333026D01*
Y12039611D01*
X10334330D01*
Y12042220D01*
X10335634D01*
Y12043523D01*
X10336938D01*
Y12044827D01*
X10340850D01*
Y12046131D01*
X10343458D01*
Y12044827D01*
D02*
G37*
G36*
X10163504Y12033091D02*
X10166112D01*
Y12031787D01*
X10167416D01*
Y12030483D01*
X10170024D01*
Y12027875D01*
X10171328D01*
Y12025267D01*
X10172632D01*
Y12023963D01*
X10173936D01*
Y12021355D01*
X10175240D01*
Y12020051D01*
X10177848D01*
Y12018747D01*
X10180456D01*
Y12020051D01*
X10183064D01*
Y12021355D01*
X10184368D01*
Y12022659D01*
X10185672D01*
Y12023963D01*
X10186976D01*
Y12025267D01*
X10188280D01*
Y12026571D01*
X10189584D01*
Y12027875D01*
X10190888D01*
Y12029179D01*
X10192192D01*
Y12030483D01*
X10193496D01*
Y12031787D01*
X10200016D01*
Y12030483D01*
X10202625D01*
Y12027875D01*
X10203929D01*
Y12022659D01*
X10202625D01*
Y12020051D01*
X10201320D01*
Y12018747D01*
X10200016D01*
Y12016139D01*
X10197408D01*
Y12014835D01*
X10196104D01*
Y12013531D01*
X10194800D01*
Y12012227D01*
X10193496D01*
Y12010923D01*
X10190888D01*
Y12009619D01*
X10184368D01*
Y12008315D01*
X10181760D01*
Y12009619D01*
X10177848D01*
Y12010923D01*
X10175240D01*
Y12012227D01*
X10173936D01*
Y12014835D01*
X10171328D01*
Y12016139D01*
X10170024D01*
Y12017443D01*
X10167416D01*
Y12018747D01*
X10166112D01*
Y12020051D01*
X10164808D01*
Y12021355D01*
X10163504D01*
Y12022659D01*
X10162200D01*
Y12023963D01*
X10160896D01*
Y12025267D01*
X10159592D01*
Y12027875D01*
X10158288D01*
Y12031787D01*
X10159592D01*
Y12034395D01*
X10163504D01*
Y12033091D01*
D02*
G37*
%LPC*%
G36*
X10262609Y11661446D02*
X10257393D01*
Y11660142D01*
X10253481D01*
Y11657534D01*
X10258697D01*
Y11656230D01*
X10262609D01*
Y11657534D01*
X10263913D01*
Y11660142D01*
X10262609D01*
Y11661446D01*
D02*
G37*
G36*
X10261305Y11626238D02*
X10256089D01*
Y11624934D01*
Y11623630D01*
X10257393D01*
Y11622326D01*
X10256089D01*
Y11621022D01*
X10262609D01*
Y11624934D01*
X10261305D01*
Y11626238D01*
D02*
G37*
%LPD*%
G54D10*
X13522490Y11709400D02*
G03*
X13522490Y11709400I-12500J0D01*
G01*
X9334300Y11100000D02*
G03*
X9334300Y11100000I-12500J0D01*
G01*
G54D11*
X14436639Y8484440D02*
Y8589440D01*
X13333000Y7122560D02*
Y7782560D01*
X13083000Y7122560D02*
X13333000D01*
X13083000D02*
Y7934560D01*
X13208000D01*
X11466400Y8204200D02*
X11571400D01*
X10679000Y8686800D02*
X10784000D01*
X12355400Y8674100D02*
X12460400D01*
X14693900Y8304100D02*
Y8409100D01*
X14044501Y8693700D02*
X14149500D01*
X11206100Y8866600D02*
Y9370600D01*
X11476100Y8866600D02*
Y9401100D01*
X11951300Y7154900D02*
X12103800D01*
X11916300Y7170900D02*
Y8035900D01*
X11596300D02*
X11916300D01*
X11596300Y7170900D02*
Y8035900D01*
Y7170900D02*
X11916300D01*
X12253800Y9766300D02*
X12358800D01*
X12882500Y8868400D02*
Y9372400D01*
X13152499Y8868400D02*
Y9402900D01*
X11288600Y8210300D02*
X11393600D01*
X14934801Y9624060D02*
Y9749060D01*
X14122800D02*
X14934801D01*
X14122800Y9499060D02*
Y9749060D01*
Y9499060D02*
X14782800D01*
X10403300Y7916780D02*
X10528300D01*
X10403300Y7104780D02*
Y7916780D01*
Y7104780D02*
X10653300D01*
Y7764780D01*
X12812399Y7933200D02*
X12937399D01*
X12812399Y7121200D02*
Y7933200D01*
Y7121200D02*
X13062399D01*
Y7781200D01*
X10132700Y7916780D02*
X10257700D01*
X10132700Y7104780D02*
Y7916780D01*
Y7104780D02*
X10382700D01*
Y7764780D01*
X9799700Y8866600D02*
Y9401100D01*
X9529700Y8866600D02*
Y9370600D01*
X13450000Y11199380D02*
Y12259420D01*
X11950028Y11199380D02*
Y12259420D01*
X13450000D01*
X11950028Y11199380D02*
X13450000D01*
X11540600Y8958600D02*
Y9278600D01*
X12030600D01*
Y8958600D02*
Y9278600D01*
X11540600Y8958600D02*
X12030600D01*
X11527600Y8771100D02*
Y8923600D01*
X11656900Y9778000D02*
X11761900D01*
X13036281Y10337643D02*
Y10411143D01*
X12363281Y10337643D02*
X13036281D01*
X12363281D02*
Y10411143D01*
X11601500Y10337900D02*
Y10411400D01*
Y10337900D02*
X12274500D01*
Y10411400D01*
X11359800Y10338200D02*
Y10411700D01*
X10686800Y10338200D02*
X11359800D01*
X10686800D02*
Y10411700D01*
X8791800Y11045000D02*
X9861800D01*
X8791800Y10045000D02*
Y11045000D01*
X9861800Y10045000D02*
Y11045000D01*
X8791800Y10045000D02*
X9861800D01*
X13217000Y8971300D02*
Y9291300D01*
X13707001D01*
Y8971300D02*
Y9291300D01*
X13217000Y8971300D02*
X13707001D01*
X13203999Y8783800D02*
Y8936300D01*
X9851200Y8783800D02*
Y8936300D01*
X9864200Y8971300D02*
X10354200D01*
Y9291300D01*
X9864200D02*
X10354200D01*
X9864200Y8971300D02*
Y9291300D01*
X12177600Y8686800D02*
X12282600D01*
X11288600Y8547100D02*
X11393600D01*
X13853999Y8699500D02*
X13959000D01*
X13853999Y9042400D02*
X13959000D01*
X12177600Y9029700D02*
X12282600D01*
X10501200Y8699500D02*
X10606200D01*
X10501200Y9042400D02*
X10606200D01*
X13930200Y9753600D02*
X14035201D01*
X13333299Y9740900D02*
X13438300D01*
X10628200Y9766300D02*
X10733200D01*
X9980500Y9791700D02*
X10085500D01*
X13951132Y10338057D02*
Y10411557D01*
X13278133Y10338057D02*
X13951132D01*
X13278133D02*
Y10411557D01*
X14837300Y8768100D02*
Y9088100D01*
X14347301Y8768100D02*
X14837300D01*
X14347301D02*
Y9088100D01*
X14837300D01*
X14850301Y9123100D02*
Y9275600D01*
X14712900Y10334000D02*
Y10407500D01*
X14039900Y10334000D02*
X14712900D01*
X14039900D02*
Y10407500D01*
X9925100Y10337900D02*
Y10411400D01*
Y10337900D02*
X10598100D01*
Y10411400D01*
G54D12*
X11188700Y11912551D02*
Y11760200D01*
X11239483Y11810983D01*
X11290267Y11760200D01*
Y11912551D01*
X11493401D02*
Y11810983D01*
X11544185Y11760200D01*
X11594969Y11810983D01*
Y11912551D01*
X11798103D02*
Y11785592D01*
X11823495Y11760200D01*
X11874278D01*
X11899670Y11785592D01*
Y11912551D01*
X14219852Y9850015D02*
X14208189Y9861678D01*
X14184863D01*
X14173199Y9850015D01*
Y9803363D01*
X14184863Y9791700D01*
X14208189D01*
X14219852Y9803363D01*
Y9826689D01*
X14196526D01*
X14243178Y9791700D02*
Y9861678D01*
X14289828Y9791700D01*
Y9861678D01*
X14313155D02*
Y9791700D01*
X14348145D01*
X14359807Y9803363D01*
Y9850015D01*
X14348145Y9861678D01*
X14313155D01*
X14677052D02*
X14665388Y9873340D01*
X14642062D01*
X14630400Y9861678D01*
Y9815026D01*
X14642062Y9803363D01*
X14665388D01*
X14677052Y9815026D01*
X14700378Y9873340D02*
Y9815026D01*
X14712041Y9803363D01*
X14735365D01*
X14747029Y9815026D01*
Y9873340D01*
X14770355Y9803363D02*
Y9873340D01*
X14805344D01*
X14817007Y9861678D01*
Y9838352D01*
X14805344Y9826689D01*
X14770355D01*
X14793681D02*
X14817007Y9803363D01*
X14840334Y9791700D02*
X14886984D01*
X14956963Y9861678D02*
X14945299Y9873340D01*
X14921973D01*
X14910310Y9861678D01*
Y9850015D01*
X14921973Y9838352D01*
X14945299D01*
X14956963Y9826689D01*
Y9815026D01*
X14945299Y9803363D01*
X14921973D01*
X14910310Y9815026D01*
X9851300Y7304041D02*
Y7245726D01*
X9862963Y7234063D01*
X9886289D01*
X9897952Y7245726D01*
Y7304041D01*
X9921278Y7222400D02*
X9967930D01*
X9991255Y7304041D02*
X10014581D01*
X10002918D01*
Y7234063D01*
X9991255D01*
X10014581D01*
X10049570D02*
Y7304041D01*
X10096222Y7234063D01*
Y7304041D01*
X9851300Y7570741D02*
Y7524089D01*
X9874626Y7500763D01*
X9897952Y7524089D01*
Y7570741D01*
X9921278Y7489100D02*
X9967930D01*
X9991255Y7570741D02*
X10014581D01*
X10002918D01*
Y7500763D01*
X9991255D01*
X10014581D01*
X10049570D02*
Y7570741D01*
X10096222Y7500763D01*
Y7570741D01*
X9851300Y7837441D02*
Y7767463D01*
X9874626Y7790789D01*
X9897952Y7767463D01*
Y7837441D01*
X9921278Y7755800D02*
X9967930D01*
X9991255Y7837441D02*
X10014581D01*
X10002918D01*
Y7767463D01*
X9991255D01*
X10014581D01*
X10049570D02*
Y7837441D01*
X10096222Y7767463D01*
Y7837441D01*
X10680700Y7851500D02*
Y7781523D01*
X10704026Y7804849D01*
X10727352Y7781523D01*
Y7851500D01*
X10750678Y7769860D02*
X10797329D01*
X10820655Y7851500D02*
Y7781523D01*
X10867307D01*
X10890633Y7851500D02*
Y7781523D01*
Y7816512D01*
X10937284D01*
Y7851500D01*
Y7781523D01*
X10960610Y7769860D02*
X11007262D01*
X11077239Y7839838D02*
X11065576Y7851500D01*
X11042250D01*
X11030588Y7839838D01*
Y7828175D01*
X11042250Y7816512D01*
X11065576D01*
X11077239Y7804849D01*
Y7793186D01*
X11065576Y7781523D01*
X11042250D01*
X11030588Y7793186D01*
X11100565Y7851500D02*
Y7781523D01*
X11123891Y7804849D01*
X11147217Y7781523D01*
Y7851500D01*
X10683240Y7572100D02*
Y7525449D01*
X10706566Y7502123D01*
X10729892Y7525449D01*
Y7572100D01*
X10753218Y7490460D02*
X10799869D01*
X10823195Y7572100D02*
Y7502123D01*
X10869847D01*
X10893173Y7572100D02*
Y7502123D01*
Y7537112D01*
X10939824D01*
Y7572100D01*
Y7502123D01*
X10963150Y7490460D02*
X11009802D01*
X11079779Y7560438D02*
X11068116Y7572100D01*
X11044790D01*
X11033128Y7560438D01*
Y7548775D01*
X11044790Y7537112D01*
X11068116D01*
X11079779Y7525449D01*
Y7513786D01*
X11068116Y7502123D01*
X11044790D01*
X11033128Y7513786D01*
X11103105Y7572100D02*
Y7502123D01*
X11126431Y7525449D01*
X11149757Y7502123D01*
Y7572100D01*
X10683240Y7302860D02*
Y7244546D01*
X10694903Y7232883D01*
X10718229D01*
X10729892Y7244546D01*
Y7302860D01*
X10753218Y7221220D02*
X10799869D01*
X10823195Y7302860D02*
Y7232883D01*
X10869847D01*
X10893173Y7302860D02*
Y7232883D01*
Y7267872D01*
X10939824D01*
Y7302860D01*
Y7232883D01*
X10963150Y7221220D02*
X11009802D01*
X11079779Y7291198D02*
X11068116Y7302860D01*
X11044790D01*
X11033128Y7291198D01*
Y7279535D01*
X11044790Y7267872D01*
X11068116D01*
X11079779Y7256209D01*
Y7244546D01*
X11068116Y7232883D01*
X11044790D01*
X11033128Y7244546D01*
X11103105Y7302860D02*
Y7232883D01*
X11126431Y7256209D01*
X11149757Y7232883D01*
Y7302860D01*
X13412132Y7321678D02*
X13365480D01*
Y7286689D01*
X13388806Y7298352D01*
X13400468D01*
X13412132Y7286689D01*
Y7263363D01*
X13400468Y7251700D01*
X13377142D01*
X13365480Y7263363D01*
X13435458Y7321678D02*
Y7275026D01*
X13458783Y7251700D01*
X13482109Y7275026D01*
Y7321678D01*
X13417212Y7551315D02*
X13405550Y7562978D01*
X13382224D01*
X13370560Y7551315D01*
Y7504663D01*
X13382224Y7493000D01*
X13405550D01*
X13417212Y7504663D01*
Y7527989D01*
X13393886D01*
X13440538Y7493000D02*
Y7562978D01*
X13487189Y7493000D01*
Y7562978D01*
X13510515D02*
Y7493000D01*
X13545505D01*
X13557167Y7504663D01*
Y7551315D01*
X13545505Y7562978D01*
X13510515D01*
X13357860Y7826100D02*
X13381186D01*
X13369524D01*
Y7756123D01*
X13357860D01*
X13381186D01*
X13416174Y7744460D02*
X13462827D01*
X13532803Y7814438D02*
X13521141Y7826100D01*
X13497815D01*
X13486153Y7814438D01*
Y7802775D01*
X13497815Y7791112D01*
X13521141D01*
X13532803Y7779449D01*
Y7767786D01*
X13521141Y7756123D01*
X13497815D01*
X13486153Y7767786D01*
X13602782Y7826100D02*
X13556129D01*
Y7756123D01*
X13602782D01*
X13556129Y7791112D02*
X13579456D01*
X13626106Y7756123D02*
Y7826100D01*
X13672758Y7756123D01*
Y7826100D01*
X13742735Y7814438D02*
X13731073Y7826100D01*
X13707748D01*
X13696085Y7814438D01*
Y7802775D01*
X13707748Y7791112D01*
X13731073D01*
X13742735Y7779449D01*
Y7767786D01*
X13731073Y7756123D01*
X13707748D01*
X13696085Y7767786D01*
X12628452Y7800378D02*
X12616789Y7812041D01*
X12593463D01*
X12581800Y7800378D01*
Y7788715D01*
X12593463Y7777052D01*
X12616789D01*
X12628452Y7765389D01*
Y7753726D01*
X12616789Y7742063D01*
X12593463D01*
X12581800Y7753726D01*
X12651778Y7730400D02*
X12698430D01*
X12721755Y7812041D02*
Y7753726D01*
X12733418Y7742063D01*
X12756744D01*
X12768407Y7753726D01*
Y7812041D01*
X12628452Y7533678D02*
X12616789Y7545341D01*
X12593463D01*
X12581800Y7533678D01*
Y7522015D01*
X12593463Y7510352D01*
X12616789D01*
X12628452Y7498689D01*
Y7487026D01*
X12616789Y7475363D01*
X12593463D01*
X12581800Y7487026D01*
X12651778Y7463700D02*
X12698430D01*
X12721755Y7545341D02*
Y7498689D01*
X12745081Y7475363D01*
X12768407Y7498689D01*
Y7545341D01*
X12628452Y7266978D02*
X12616789Y7278641D01*
X12593463D01*
X12581800Y7266978D01*
Y7255315D01*
X12593463Y7243652D01*
X12616789D01*
X12628452Y7231989D01*
Y7220326D01*
X12616789Y7208663D01*
X12593463D01*
X12581800Y7220326D01*
X12651778Y7197000D02*
X12698430D01*
X12721755Y7278641D02*
Y7208663D01*
X12745081Y7231989D01*
X12768407Y7208663D01*
Y7278641D01*
X9296400Y9982200D02*
X9397967D01*
X9271000Y11226783D02*
X9372567D01*
X9321783Y11277567D02*
Y11176000D01*
X8813799Y11080400D02*
X8864583D01*
X8839191D01*
Y11232751D01*
X8813799Y11207359D01*
X9042325Y11080400D02*
X8940758D01*
X9042325Y11181967D01*
Y11207359D01*
X9016933Y11232751D01*
X8966150D01*
X8940758Y11207359D01*
X9093109Y11232751D02*
Y11131183D01*
X9143892Y11080400D01*
X9194676Y11131183D01*
Y11232751D01*
X11635748Y8168652D02*
X11623052Y8155957D01*
Y8130565D01*
X11635748Y8117869D01*
X11686532D01*
X11699228Y8130565D01*
Y8155957D01*
X11686532Y8168652D01*
X11699228Y8244828D02*
Y8194044D01*
X11648444Y8244828D01*
X11635748D01*
X11623052Y8232132D01*
Y8206740D01*
X11635748Y8194044D01*
X11699228Y8270219D02*
Y8295611D01*
Y8282915D01*
X11623052D01*
X11635748Y8270219D01*
X14234167Y8658877D02*
X14221472Y8646181D01*
Y8620789D01*
X14234167Y8608093D01*
X14284952D01*
X14297649Y8620789D01*
Y8646181D01*
X14284952Y8658877D01*
X14297649Y8735052D02*
Y8684268D01*
X14246864Y8735052D01*
X14234167D01*
X14221472Y8722356D01*
Y8696964D01*
X14234167Y8684268D01*
Y8760444D02*
X14221472Y8773140D01*
Y8798532D01*
X14234167Y8811227D01*
X14284952D01*
X14297649Y8798532D01*
Y8773140D01*
X14284952Y8760444D01*
X14234167D01*
X14400545Y8191492D02*
X14387849Y8204188D01*
X14362457D01*
X14349760Y8191492D01*
Y8140708D01*
X14362457Y8128012D01*
X14387849D01*
X14400545Y8140708D01*
X14425935Y8128012D02*
X14451328D01*
X14438632D01*
Y8204188D01*
X14425935Y8191492D01*
X14489417Y8140708D02*
X14502112Y8128012D01*
X14527504D01*
X14540199Y8140708D01*
Y8191492D01*
X14527504Y8204188D01*
X14502112D01*
X14489417Y8191492D01*
Y8178796D01*
X14502112Y8166100D01*
X14540199D01*
X12542528Y8634744D02*
X12529832Y8622049D01*
Y8596657D01*
X12542528Y8583961D01*
X12593312D01*
X12606008Y8596657D01*
Y8622049D01*
X12593312Y8634744D01*
X12606008Y8660136D02*
Y8685528D01*
Y8672832D01*
X12529832D01*
X12542528Y8660136D01*
X12529832Y8774399D02*
X12542528Y8749008D01*
X12567920Y8723616D01*
X12593312D01*
X12606008Y8736312D01*
Y8761704D01*
X12593312Y8774399D01*
X12580616D01*
X12567920Y8761704D01*
Y8723616D01*
X10843268Y8639824D02*
X10830572Y8627129D01*
Y8601737D01*
X10843268Y8589041D01*
X10894052D01*
X10906748Y8601737D01*
Y8627129D01*
X10894052Y8639824D01*
X10906748Y8665216D02*
Y8690608D01*
Y8677912D01*
X10830572D01*
X10843268Y8665216D01*
X10830572Y8779479D02*
Y8728696D01*
X10868660D01*
X10855964Y8754088D01*
Y8766784D01*
X10868660Y8779479D01*
X10894052D01*
X10906748Y8766784D01*
Y8741392D01*
X10894052Y8728696D01*
X14400545Y8371832D02*
X14387849Y8384528D01*
X14362457D01*
X14349760Y8371832D01*
Y8321048D01*
X14362457Y8308352D01*
X14387849D01*
X14400545Y8321048D01*
X14425935Y8308352D02*
X14451328D01*
X14438632D01*
Y8384528D01*
X14425935Y8371832D01*
X14489417D02*
X14502112Y8384528D01*
X14527504D01*
X14540199Y8371832D01*
Y8359136D01*
X14527504Y8346440D01*
X14540199Y8333744D01*
Y8321048D01*
X14527504Y8308352D01*
X14502112D01*
X14489417Y8321048D01*
Y8333744D01*
X14502112Y8346440D01*
X14489417Y8359136D01*
Y8371832D01*
X14502112Y8346440D02*
X14527504D01*
X11565862Y7133476D02*
X11616646D01*
X11591254D01*
Y6981125D01*
X11565862D01*
X11616646D01*
X11794388Y7108084D02*
X11768996Y7133476D01*
X11718213D01*
X11692821Y7108084D01*
Y7006517D01*
X11718213Y6981125D01*
X11768996D01*
X11794388Y7006517D01*
X11921347Y6981125D02*
Y7133476D01*
X11845172Y7057300D01*
X11946739D01*
X11606093Y8621506D02*
X11656876D01*
X11631484D01*
Y8469156D01*
X11606093D01*
X11656876D01*
X11834619Y8596114D02*
X11809227Y8621506D01*
X11758443D01*
X11733051Y8596114D01*
Y8494547D01*
X11758443Y8469156D01*
X11809227D01*
X11834619Y8494547D01*
X11986969Y8469156D02*
X11885402D01*
X11986969Y8570723D01*
Y8596114D01*
X11961578Y8621506D01*
X11910794D01*
X11885402Y8596114D01*
X13282494Y8634206D02*
X13333276D01*
X13307884D01*
Y8481856D01*
X13282494D01*
X13333276D01*
X13511018Y8608814D02*
X13485628Y8634206D01*
X13434843D01*
X13409451Y8608814D01*
Y8507247D01*
X13434843Y8481856D01*
X13485628D01*
X13511018Y8507247D01*
X13561803Y8608814D02*
X13587193Y8634206D01*
X13637978D01*
X13663370Y8608814D01*
Y8583423D01*
X13637978Y8558031D01*
X13612585D01*
X13637978D01*
X13663370Y8532639D01*
Y8507247D01*
X13637978Y8481856D01*
X13587193D01*
X13561803Y8507247D01*
X9980484Y8634206D02*
X10031268D01*
X10005876D01*
Y8481856D01*
X9980484D01*
X10031268D01*
X10209011Y8608814D02*
X10183619Y8634206D01*
X10132835D01*
X10107443Y8608814D01*
Y8507247D01*
X10132835Y8481856D01*
X10183619D01*
X10209011Y8507247D01*
X10259794Y8481856D02*
X10310578D01*
X10285186D01*
Y8634206D01*
X10259794Y8608814D01*
X10490188Y8991621D02*
X10414012D01*
Y9029708D01*
X10426708Y9042404D01*
X10452100D01*
X10464796Y9029708D01*
Y8991621D01*
Y9017012D02*
X10490188Y9042404D01*
X10414012Y9067796D02*
Y9118579D01*
X10426708D01*
X10477492Y9067796D01*
X10490188D01*
X10477488Y8636021D02*
X10401312D01*
Y8674108D01*
X10414008Y8686804D01*
X10439400D01*
X10452096Y8674108D01*
Y8636021D01*
Y8661412D02*
X10477488Y8686804D01*
X10414008Y8712196D02*
X10401312Y8724892D01*
Y8750284D01*
X10414008Y8762979D01*
X10426704D01*
X10439400Y8750284D01*
X10452096Y8762979D01*
X10464792D01*
X10477488Y8750284D01*
Y8724892D01*
X10464792Y8712196D01*
X10452096D01*
X10439400Y8724892D01*
X10426704Y8712196D01*
X10414008D01*
X10439400Y8724892D02*
Y8750284D01*
X12425668Y8973841D02*
X12349492D01*
Y9011928D01*
X12362188Y9024624D01*
X12387580D01*
X12400276Y9011928D01*
Y8973841D01*
Y8999232D02*
X12425668Y9024624D01*
X12412972Y9050016D02*
X12425668Y9062712D01*
Y9088104D01*
X12412972Y9100799D01*
X12362188D01*
X12349492Y9088104D01*
Y9062712D01*
X12362188Y9050016D01*
X12374884D01*
X12387580Y9062712D01*
Y9100799D01*
X12115788Y8589041D02*
X12039612D01*
Y8627129D01*
X12052308Y8639824D01*
X12077700D01*
X12090396Y8627129D01*
Y8589041D01*
Y8614433D02*
X12115788Y8639824D01*
Y8665216D02*
Y8690608D01*
Y8677912D01*
X12039612D01*
X12052308Y8665216D01*
Y8728696D02*
X12039612Y8741392D01*
Y8766784D01*
X12052308Y8779479D01*
X12103092D01*
X12115788Y8766784D01*
Y8741392D01*
X12103092Y8728696D01*
X12052308D01*
X14102068Y8970037D02*
X14025893D01*
Y9008124D01*
X14038588Y9020820D01*
X14063980D01*
X14076675Y9008124D01*
Y8970037D01*
Y8995429D02*
X14102068Y9020820D01*
Y9046212D02*
Y9071604D01*
Y9058908D01*
X14025893D01*
X14038588Y9046212D01*
X14102068Y9109691D02*
Y9135083D01*
Y9122387D01*
X14025893D01*
X14038588Y9109691D01*
X13789648Y8594121D02*
X13713472D01*
Y8632209D01*
X13726167Y8644904D01*
X13751559D01*
X13764256Y8632209D01*
Y8594121D01*
Y8619513D02*
X13789648Y8644904D01*
Y8670296D02*
Y8695688D01*
Y8682992D01*
X13713472D01*
X13726167Y8670296D01*
X13789648Y8784559D02*
Y8733776D01*
X13738864Y8784559D01*
X13726167D01*
X13713472Y8771864D01*
Y8746472D01*
X13726167Y8733776D01*
X11242028Y8451881D02*
X11165852D01*
Y8489969D01*
X11178548Y8502664D01*
X11203940D01*
X11216636Y8489969D01*
Y8451881D01*
Y8477273D02*
X11242028Y8502664D01*
Y8528056D02*
Y8553448D01*
Y8540752D01*
X11165852D01*
X11178548Y8528056D01*
Y8591536D02*
X11165852Y8604232D01*
Y8629624D01*
X11178548Y8642319D01*
X11191244D01*
X11203940Y8629624D01*
Y8616928D01*
Y8629624D01*
X11216636Y8642319D01*
X11229332D01*
X11242028Y8629624D01*
Y8604232D01*
X11229332Y8591536D01*
X11244568Y8116601D02*
X11168392D01*
Y8154689D01*
X11181088Y8167384D01*
X11206480D01*
X11219176Y8154689D01*
Y8116601D01*
Y8141993D02*
X11244568Y8167384D01*
Y8192776D02*
Y8218168D01*
Y8205472D01*
X11168392D01*
X11181088Y8192776D01*
X11244568Y8294344D02*
X11168392D01*
X11206480Y8256256D01*
Y8307039D01*
X10255156Y10122454D02*
Y10224021D01*
X10229764Y10249413D01*
X10178981D01*
X10153589Y10224021D01*
Y10122454D01*
X10178981Y10097062D01*
X10229764D01*
X10204372Y10147846D02*
X10255156Y10097062D01*
X10229764D02*
X10255156Y10122454D01*
X10305940Y10097062D02*
X10356723D01*
X10331331D01*
Y10249413D01*
X10305940Y10224021D01*
X14369955Y10119914D02*
Y10221481D01*
X14344563Y10246873D01*
X14293781D01*
X14268388Y10221481D01*
Y10119914D01*
X14293781Y10094522D01*
X14344563D01*
X14319173Y10145306D02*
X14369955Y10094522D01*
X14344563D02*
X14369955Y10119914D01*
X14522307Y10246873D02*
X14471523Y10221481D01*
X14420740Y10170697D01*
Y10119914D01*
X14446130Y10094522D01*
X14496915D01*
X14522307Y10119914D01*
Y10145306D01*
X14496915Y10170697D01*
X14420740D01*
X13607956Y10122454D02*
Y10224021D01*
X13582564Y10249413D01*
X13531781D01*
X13506389Y10224021D01*
Y10122454D01*
X13531781Y10097062D01*
X13582564D01*
X13557172Y10147846D02*
X13607956Y10097062D01*
X13582564D02*
X13607956Y10122454D01*
X13760307Y10249413D02*
X13658740D01*
Y10173237D01*
X13709523Y10198629D01*
X13734915D01*
X13760307Y10173237D01*
Y10122454D01*
X13734915Y10097062D01*
X13684131D01*
X13658740Y10122454D01*
X12693556D02*
Y10224021D01*
X12668164Y10249413D01*
X12617381D01*
X12591989Y10224021D01*
Y10122454D01*
X12617381Y10097062D01*
X12668164D01*
X12642772Y10147846D02*
X12693556Y10097062D01*
X12668164D02*
X12693556Y10122454D01*
X12820515Y10097062D02*
Y10249413D01*
X12744340Y10173237D01*
X12845908D01*
X11931556Y10122454D02*
Y10224021D01*
X11906164Y10249413D01*
X11855381D01*
X11829989Y10224021D01*
Y10122454D01*
X11855381Y10097062D01*
X11906164D01*
X11880772Y10147846D02*
X11931556Y10097062D01*
X11906164D02*
X11931556Y10122454D01*
X11982340Y10224021D02*
X12007731Y10249413D01*
X12058515D01*
X12083907Y10224021D01*
Y10198629D01*
X12058515Y10173237D01*
X12033123D01*
X12058515D01*
X12083907Y10147846D01*
Y10122454D01*
X12058515Y10097062D01*
X12007731D01*
X11982340Y10122454D01*
X10957568Y10149857D02*
Y10251423D01*
X10932177Y10276815D01*
X10881393D01*
X10856001Y10251423D01*
Y10149857D01*
X10881393Y10124465D01*
X10932177D01*
X10906785Y10175248D02*
X10957568Y10124465D01*
X10932177D02*
X10957568Y10149857D01*
X11109919Y10124465D02*
X11008352D01*
X11109919Y10226032D01*
Y10251423D01*
X11084527Y10276815D01*
X11033744D01*
X11008352Y10251423D01*
X11176115Y12039625D02*
Y12191975D01*
X11226899Y12141192D01*
X11277682Y12191975D01*
Y12039625D01*
X11404641Y12191975D02*
X11353858D01*
X11328466Y12166583D01*
Y12065017D01*
X11353858Y12039625D01*
X11404641D01*
X11430033Y12065017D01*
Y12166583D01*
X11404641Y12191975D01*
X11480817D02*
X11582384D01*
X11531600D01*
Y12039625D01*
X11709343Y12191975D02*
X11658559D01*
X11633167Y12166583D01*
Y12065017D01*
X11658559Y12039625D01*
X11709343D01*
X11734734Y12065017D01*
Y12166583D01*
X11709343Y12191975D01*
X11785518Y12039625D02*
Y12191975D01*
X11861693D01*
X11887085Y12166583D01*
Y12115800D01*
X11861693Y12090408D01*
X11785518D01*
X11836301D02*
X11887085Y12039625D01*
X13616982Y9682505D02*
Y9834855D01*
X13693156D01*
X13718549Y9809463D01*
Y9758680D01*
X13693156Y9733288D01*
X13616982D01*
X13667764D02*
X13718549Y9682505D01*
X13870898Y9834855D02*
X13820116Y9809463D01*
X13769331Y9758680D01*
Y9707897D01*
X13794724Y9682505D01*
X13845506D01*
X13870898Y9707897D01*
Y9733288D01*
X13845506Y9758680D01*
X13769331D01*
X13022621Y9669805D02*
Y9822155D01*
X13098798D01*
X13124188Y9796763D01*
Y9745980D01*
X13098798Y9720588D01*
X13022621D01*
X13073405D02*
X13124188Y9669805D01*
X13276540Y9822155D02*
X13174973D01*
Y9745980D01*
X13225755Y9771372D01*
X13251147D01*
X13276540Y9745980D01*
Y9695197D01*
X13251147Y9669805D01*
X13200365D01*
X13174973Y9695197D01*
X11950741Y9677425D02*
Y9829775D01*
X12026917D01*
X12052308Y9804383D01*
Y9753600D01*
X12026917Y9728208D01*
X11950741D01*
X12001525D02*
X12052308Y9677425D01*
X12179267D02*
Y9829775D01*
X12103092Y9753600D01*
X12204659D01*
X11338601Y9692665D02*
Y9845015D01*
X11414777D01*
X11440168Y9819623D01*
Y9768840D01*
X11414777Y9743448D01*
X11338601D01*
X11389385D02*
X11440168Y9692665D01*
X11490952Y9819623D02*
X11516344Y9845015D01*
X11567127D01*
X11592519Y9819623D01*
Y9794232D01*
X11567127Y9768840D01*
X11541735D01*
X11567127D01*
X11592519Y9743448D01*
Y9718057D01*
X11567127Y9692665D01*
X11516344D01*
X11490952Y9718057D01*
X10322601Y9697745D02*
Y9850095D01*
X10398777D01*
X10424168Y9824703D01*
Y9773920D01*
X10398777Y9748528D01*
X10322601D01*
X10373385D02*
X10424168Y9697745D01*
X10576519D02*
X10474952D01*
X10576519Y9799312D01*
Y9824703D01*
X10551127Y9850095D01*
X10500344D01*
X10474952Y9824703D01*
X9738393Y9707905D02*
Y9860255D01*
X9814568D01*
X9839960Y9834863D01*
Y9784080D01*
X9814568Y9758688D01*
X9738393D01*
X9789177D02*
X9839960Y9707905D01*
X9890744D02*
X9941527D01*
X9916136D01*
Y9860255D01*
X9890744Y9834863D01*
X14212115Y9019040D02*
Y9052363D01*
Y9035702D01*
X14312083D01*
Y9019040D01*
Y9052363D01*
X14228777Y9168992D02*
X14212115Y9152331D01*
Y9119008D01*
X14228777Y9102347D01*
X14295422D01*
X14312083Y9119008D01*
Y9152331D01*
X14295422Y9168992D01*
X14212115Y9268960D02*
Y9202315D01*
X14262099D01*
X14245438Y9235637D01*
Y9252298D01*
X14262099Y9268960D01*
X14295422D01*
X14312083Y9252298D01*
Y9218976D01*
X14295422Y9202315D01*
X12684785Y9006881D02*
X12837135D01*
Y9083057D01*
X12811743Y9108448D01*
X12710177D01*
X12684785Y9083057D01*
Y9006881D01*
X12710177Y9159232D02*
X12684785Y9184624D01*
Y9235407D01*
X12710177Y9260799D01*
X12735568D01*
X12760960Y9235407D01*
Y9210015D01*
Y9235407D01*
X12786352Y9260799D01*
X12811743D01*
X12837135Y9235407D01*
Y9184624D01*
X12811743Y9159232D01*
X11008385Y8986561D02*
X11160735D01*
Y9062737D01*
X11135343Y9088128D01*
X11033777D01*
X11008385Y9062737D01*
Y8986561D01*
X11160735Y9240479D02*
Y9138912D01*
X11059168Y9240479D01*
X11033777D01*
X11008385Y9215087D01*
Y9164304D01*
X11033777Y9138912D01*
X9334525Y9029733D02*
X9486875D01*
Y9105908D01*
X9461483Y9131300D01*
X9359917D01*
X9334525Y9105908D01*
Y9029733D01*
X9486875Y9182084D02*
Y9232867D01*
Y9207476D01*
X9334525D01*
X9359917Y9182084D01*
X14158920Y8543286D02*
X14146857Y8555348D01*
X14122733D01*
X14110669Y8543286D01*
Y8495035D01*
X14122733Y8482972D01*
X14146857D01*
X14158920Y8495035D01*
X14183046Y8482972D02*
X14207172D01*
X14195110D01*
Y8555348D01*
X14183046Y8543286D01*
X14243359Y8555348D02*
X14291611D01*
Y8543286D01*
X14243359Y8495035D01*
Y8482972D01*
M02*
