M48
;Layer_Color=9474304
;FILE_FORMAT=4:4
METRIC,LZ
;TYPE=PLATED
T01F00S00C0.3000
T02F00S00C1.1000
T03F00S00C1.5500
T04F00S00C3.0000
%
T01
X01197436Y00747776
X01221927Y0074469
X0127508Y0077597
X01339596Y00741172
X01352296Y00741426
X0132856Y0071207
X0116293Y0072224
X01152398Y00747268
X0116293Y0078574
X0118833Y0079844
X01134385
X011557Y0083967
X0116036Y0084967
X0113411Y0088859
X0115951Y0095377
X0118491
X011303Y01005078
Y01012698
Y01020826
X0112522Y01016762
Y01009142
Y01001014
X01120394Y01005078
Y01012698
Y01020826
X011684Y010541
Y0106426
Y0107442
Y0108458
Y0109474
Y0110617
X01051306Y01106424
Y01094994
Y01084834
Y01074674
Y01064514
Y01054354
X01025906
Y01064514
Y01075064
Y01084834
Y01094994
Y01106424
X01000506
Y01094994
Y01084834
Y01074674
Y01064514
Y01054354
X0099187Y0095758
X0101727
X0105537Y0093236
X01029716Y0088646
X0096647Y0088859
X01197102Y00884428
X0122301Y0093142
X01301496Y0089027
X01364742Y0088646
X014097Y0087757
X0139065Y0093236
X0135255Y0095377
X0132715Y0095504
X0129794Y01004824
Y01012444
Y01020572
X0129286Y01016508
Y01008888
Y0100076
X01288034Y01004824
Y01012444
Y01020572
X0133604Y010541
Y0106426
Y0107442
Y0108458
Y0109474
Y0110617
X0136144
Y0109474
Y0108458
Y0107481
Y0106426
Y010541
X0138684
Y0106426
Y0107442
Y0108458
Y0109474
Y0110617
X01455674Y01020572
Y01012444
Y01004824
X014605Y01008888
Y01016508
X0146558Y01012444
Y01004824
X014605Y0100076
X0146558Y01020572
Y008509
X012192Y010541
Y0106426
Y0107442
Y0108458
Y0109474
Y0110617
X011938
Y0109474
Y0108458
Y0107481
Y0106426
Y010541
T02
X0129374Y0072732
Y0075272
Y0077812
X013208Y00778256
Y00752856
Y00727456
X0105283Y00725678
Y00751078
Y00776478
X0102577
Y00751078
Y00725678
X0142748Y00962406
X0145288
X0147828
T03
X0093218Y010295
Y010795
X0122Y0117094
X0127
X0132
T04
X0146939Y0072898
X0091313
X0147066Y011938
X0091186
M30
