G04*
G04 #@! TF.GenerationSoftware,Altium Limited,Altium Designer,24.0.1 (36)*
G04*
G04 Layer_Physical_Order=1*
G04 Layer_Color=255*
%FSLAX45Y45*%
%MOMM*%
G71*
G04*
G04 #@! TF.SameCoordinates,0B170F52-40F4-4D68-8434-06CE0CB0BF9C*
G04*
G04*
G04 #@! TF.FilePolarity,Positive*
G04*
G01*
G75*
%ADD20R,1.50000X2.50000*%
%ADD21R,7.00000X7.00000*%
%ADD29R,0.91000X1.39000*%
%ADD30R,1.39000X0.91000*%
%ADD31R,0.97000X1.47000*%
%ADD32R,1.55000X2.20000*%
%ADD33R,1.52500X0.65000*%
%ADD34R,1.40000X0.95000*%
%ADD35R,0.65000X1.52500*%
%ADD36C,0.70000*%
%ADD37C,2.50000*%
%ADD38C,7.00000*%
%ADD39C,1.50000*%
%ADD40C,1.65000*%
%ADD41R,1.65000X1.65000*%
%ADD42R,1.65000X1.65000*%
%ADD43R,2.05000X2.05000*%
%ADD44C,2.05000*%
%ADD45R,2.05000X2.05000*%
%ADD46C,5.70000*%
%ADD47C,0.50000*%
G36*
X14553481Y12213514D02*
X14541504Y12207412D01*
X14501392Y12178269D01*
X14466331Y12143209D01*
X14437189Y12103096D01*
X14414677Y12058918D01*
X14399358Y12011763D01*
X14391600Y11962791D01*
Y11913209D01*
X14399358Y11864237D01*
X14414677Y11817082D01*
X14437189Y11772904D01*
X14442445Y11765667D01*
X14432759Y11757393D01*
X14211221Y11978931D01*
X14165738Y12017777D01*
X14114738Y12049029D01*
X14087109Y12060474D01*
X14059479Y12071919D01*
X14001318Y12085882D01*
X13941689Y12090575D01*
X13436600D01*
X13376971Y12085882D01*
X13318811Y12071919D01*
X13263550Y12049029D01*
X13212550Y12017777D01*
X13167068Y11978931D01*
X13128223Y11933449D01*
X13096971Y11882450D01*
X13080174Y11841900D01*
X13067500D01*
Y11799778D01*
X13060118Y11769029D01*
X13055424Y11709400D01*
X13060118Y11649771D01*
X13067500Y11619022D01*
Y11607051D01*
X13054800Y11604525D01*
X13039629Y11641150D01*
X13008377Y11692149D01*
X12969531Y11737631D01*
X12924049Y11776477D01*
X12873050Y11807729D01*
X12817789Y11830619D01*
X12759629Y11844582D01*
X12700000Y11849275D01*
X12640371Y11844582D01*
X12582211Y11830619D01*
X12526950Y11807729D01*
X12475951Y11776477D01*
X12430469Y11737631D01*
X12391623Y11692149D01*
X12360371Y11641150D01*
X12337481Y11585889D01*
X12323518Y11527729D01*
X12318825Y11468100D01*
Y11191258D01*
X12318000Y11178900D01*
X11636255D01*
X11631395Y11190633D01*
X11768987Y11328225D01*
X11950700D01*
X12010329Y11332918D01*
X12068489Y11346881D01*
X12123750Y11369771D01*
X12174749Y11401023D01*
X12220231Y11439869D01*
X12259077Y11485351D01*
X12290329Y11536350D01*
X12313219Y11591611D01*
X12327182Y11649771D01*
X12329671Y11681400D01*
X12332500Y11691956D01*
Y11726844D01*
X12329671Y11737400D01*
X12327182Y11769029D01*
X12313219Y11827189D01*
X12290329Y11882450D01*
X12259077Y11933449D01*
X12220231Y11978931D01*
X12174749Y12017777D01*
X12123750Y12049029D01*
X12068489Y12071919D01*
X12010329Y12085882D01*
X11950700Y12090575D01*
X11611099D01*
X11551470Y12085882D01*
X11493309Y12071919D01*
X11438049Y12049029D01*
X11387050Y12017777D01*
X11341568Y11978931D01*
X10753769Y11391132D01*
X10714923Y11345650D01*
X10683671Y11294651D01*
X10672226Y11267021D01*
X10660781Y11239391D01*
X10648610Y11188696D01*
X10641600Y11178900D01*
X9881600D01*
Y10418900D01*
X10585233D01*
X10590093Y10407167D01*
X10446826Y10263900D01*
X10386600D01*
Y10165783D01*
X10385694Y10158900D01*
X10385694Y10158898D01*
Y10108900D01*
X10386600Y10102018D01*
Y10082661D01*
X10383308Y10082227D01*
X10367496Y10075678D01*
X10353918Y10065259D01*
X10144733Y9856074D01*
X10133000Y9860934D01*
Y9953900D01*
X10136600D01*
Y10263900D01*
X9926600D01*
Y9953900D01*
X9933000D01*
Y9809200D01*
X10096683D01*
X10107821Y9796500D01*
X10107139Y9791324D01*
Y9774200D01*
X9933000D01*
Y9649109D01*
X9923452Y9640735D01*
X9918700Y9641361D01*
X9901732Y9639127D01*
X9885920Y9632577D01*
X9872342Y9622158D01*
X9861923Y9608580D01*
X9855373Y9592768D01*
X9853139Y9575800D01*
Y9468061D01*
X9711100D01*
X9694131Y9465827D01*
X9688756Y9463600D01*
X9557200D01*
Y9183600D01*
X9772200D01*
Y9336939D01*
X9856200D01*
Y9296250D01*
X9981199D01*
Y9296250D01*
X9983201D01*
Y9296250D01*
X10108199D01*
Y9296250D01*
X10110201D01*
Y9296250D01*
X10235199D01*
Y9296250D01*
X10237201D01*
Y9296250D01*
X10362200D01*
Y9383536D01*
X10363027Y9385532D01*
X10365261Y9402500D01*
Y9431144D01*
X10485758Y9551641D01*
X10485760Y9551644D01*
X10535056Y9600939D01*
X10580700D01*
Y9593800D01*
X10780700D01*
Y9748800D01*
X10580700D01*
Y9732061D01*
X10507900D01*
X10490931Y9729827D01*
X10475120Y9723277D01*
X10461541Y9712858D01*
X10393042Y9644358D01*
X10257434Y9508750D01*
X10238261D01*
Y9575800D01*
Y9764168D01*
X10427432Y9953340D01*
X10451600D01*
X10455858Y9953900D01*
X10596600D01*
Y10102018D01*
X10597506Y10108900D01*
Y10115032D01*
X10676567Y10194093D01*
X10688300Y10189233D01*
Y10023460D01*
X10687739Y10019200D01*
Y9938800D01*
X10580700D01*
Y9783800D01*
X10780700D01*
Y9846083D01*
X10786011Y9851394D01*
X10786081Y9851423D01*
X10799658Y9861842D01*
X10810077Y9875420D01*
X10816627Y9891232D01*
X10818861Y9908200D01*
Y9954200D01*
X10898300D01*
Y10264200D01*
X10763267D01*
X10758407Y10275933D01*
X10823486Y10341012D01*
X10823487Y10341013D01*
X10840317Y10362947D01*
X10850897Y10388490D01*
X10854506Y10415900D01*
X10866150Y10419200D01*
X11008370D01*
X11023300Y10418025D01*
X11038230Y10419200D01*
X11403300D01*
Y10784270D01*
X11404475Y10799200D01*
Y10963713D01*
X11546267Y11105505D01*
X11558000Y11100645D01*
Y10418900D01*
X12261633D01*
X12266493Y10407167D01*
X12123226Y10263900D01*
X12063000D01*
Y10165783D01*
X12062094Y10158900D01*
X12063000Y10152017D01*
Y10085861D01*
X12039600D01*
X12022632Y10083627D01*
X12006820Y10077077D01*
X11993241Y10066658D01*
X11821133Y9894550D01*
X11809400Y9899410D01*
Y9950500D01*
X11813000Y9953900D01*
X11813000D01*
Y10263900D01*
X11603000D01*
Y9953900D01*
X11609400Y9950500D01*
Y9795500D01*
X11783539D01*
Y9760500D01*
X11609400D01*
Y9614188D01*
X11597773Y9602909D01*
X11595100Y9603261D01*
X11578132Y9601027D01*
X11562320Y9594477D01*
X11548742Y9584058D01*
X11538323Y9570480D01*
X11531773Y9554668D01*
X11529539Y9537700D01*
Y9455361D01*
X11448600D01*
Y9463600D01*
X11233600D01*
Y9183600D01*
X11448600D01*
Y9324239D01*
X11532600D01*
Y9283550D01*
X11657599D01*
Y9283550D01*
X11659601D01*
Y9283550D01*
X11784599D01*
Y9283550D01*
X11786601D01*
Y9283550D01*
X11911599D01*
Y9283550D01*
X11913601D01*
Y9283550D01*
X12038600D01*
Y9370836D01*
X12039427Y9372832D01*
X12041661Y9389800D01*
Y9447639D01*
X12187262Y9593239D01*
X12293800D01*
X12298058Y9593800D01*
X12406300D01*
Y9748800D01*
X12206300D01*
Y9724361D01*
X12160105D01*
X12143137Y9722127D01*
X12127325Y9715577D01*
X12113747Y9705158D01*
X11929742Y9521153D01*
X11927361Y9518050D01*
X11914661Y9522361D01*
Y9537700D01*
Y9802644D01*
X12065917Y9953900D01*
X12273000D01*
Y10114126D01*
X12353047Y10194174D01*
X12364781Y10189313D01*
Y10072903D01*
X12364220Y10068643D01*
Y9941961D01*
X12361059Y9938800D01*
X12206300D01*
Y9783800D01*
X12406300D01*
Y9803264D01*
X12408856Y9804323D01*
X12422434Y9814742D01*
X12476139Y9868447D01*
X12486558Y9882025D01*
X12493107Y9897837D01*
X12495341Y9914805D01*
Y9953643D01*
X12574780D01*
Y10263643D01*
X12439111D01*
X12434250Y10275376D01*
X12499667Y10340794D01*
X12516498Y10362728D01*
X12527078Y10388270D01*
X12530687Y10415680D01*
X12542526Y10418643D01*
X12684853D01*
X12699781Y10417468D01*
X12714708Y10418643D01*
X13079781D01*
Y10781144D01*
X13081175Y10798863D01*
Y11468100D01*
X13076482Y11527729D01*
X13070003Y11554718D01*
X13080328Y11566111D01*
X13084906Y11565478D01*
X13096971Y11536350D01*
X13128223Y11485351D01*
X13167068Y11439869D01*
X13212550Y11401023D01*
X13263550Y11369771D01*
X13318811Y11346881D01*
X13376971Y11332918D01*
X13436600Y11328225D01*
X13783801D01*
X13921237Y11190790D01*
X13916377Y11179057D01*
X13234631D01*
Y10419057D01*
X13938264D01*
X13943124Y10407323D01*
X13799858Y10264057D01*
X13739632D01*
Y10165940D01*
X13738725Y10159057D01*
X13738725Y10159055D01*
Y10109057D01*
X13739632Y10102175D01*
Y10083824D01*
X13728690Y10082384D01*
X13712878Y10075834D01*
X13699300Y10065415D01*
X13497533Y9863649D01*
X13485800Y9868509D01*
Y9913400D01*
X13450777D01*
Y9954057D01*
X13489632D01*
Y10264057D01*
X13279633D01*
Y9954057D01*
X13319655D01*
Y9913400D01*
X13285800D01*
Y9758400D01*
X13459940D01*
Y9723400D01*
X13285800D01*
Y9623709D01*
X13276253Y9615335D01*
X13271500Y9615961D01*
X13254532Y9613727D01*
X13238721Y9607177D01*
X13225142Y9596758D01*
X13214723Y9583180D01*
X13208173Y9567368D01*
X13205939Y9550400D01*
Y9468061D01*
X13062100D01*
X13045131Y9465827D01*
X13044101Y9465400D01*
X12910001D01*
Y9185400D01*
X13125000D01*
Y9336939D01*
X13209000D01*
Y9296250D01*
X13334000D01*
Y9296250D01*
X13336002D01*
Y9296250D01*
X13460999D01*
Y9296250D01*
X13463000D01*
Y9296250D01*
X13577299D01*
X13587999Y9296250D01*
Y9296250D01*
X13590001D01*
Y9296250D01*
X13714999D01*
Y9411033D01*
X13884506Y9580539D01*
X13970200D01*
X13974458Y9581100D01*
X14082700D01*
Y9736100D01*
X13882700D01*
Y9711661D01*
X13857350D01*
X13840382Y9709427D01*
X13824570Y9702877D01*
X13810992Y9692459D01*
X13627284Y9508750D01*
X13591061D01*
Y9537700D01*
Y9771743D01*
X13772813Y9953496D01*
X13804633D01*
X13808890Y9954057D01*
X13949631D01*
Y10102175D01*
X13950539Y10109057D01*
Y10115189D01*
X14029668Y10194318D01*
X14041400Y10189458D01*
Y10042717D01*
X13980437Y9981753D01*
X13970018Y9968175D01*
X13963467Y9952364D01*
X13961234Y9935395D01*
Y9926100D01*
X13882700D01*
Y9771100D01*
X14082700D01*
Y9827183D01*
X14083572Y9828320D01*
X14090121Y9844131D01*
X14092355Y9861100D01*
Y9908239D01*
X14134117Y9950000D01*
X14251401D01*
Y10260000D01*
X14111942D01*
X14107082Y10271733D01*
X14159846Y10324499D01*
X14176286Y10337113D01*
X14193117Y10359047D01*
X14203697Y10384590D01*
X14207306Y10412000D01*
Y10415000D01*
X14361470D01*
X14376401Y10413825D01*
X14391330Y10415000D01*
X14756400D01*
Y10780070D01*
X14757574Y10795000D01*
Y11274689D01*
X14752882Y11334318D01*
X14738919Y11392479D01*
X14716029Y11447739D01*
X14684776Y11498738D01*
X14645932Y11544221D01*
X14525993Y11664159D01*
X14534267Y11673846D01*
X14541504Y11668588D01*
X14585683Y11646078D01*
X14632837Y11630757D01*
X14681808Y11623000D01*
X14731390D01*
X14780363Y11630757D01*
X14827518Y11646078D01*
X14871696Y11668588D01*
X14911809Y11697731D01*
X14946869Y11732791D01*
X14976012Y11772904D01*
X14980914Y11782525D01*
X14993263Y11779561D01*
X14993263Y7424087D01*
X14980563Y7421038D01*
X14963312Y7454896D01*
X14934169Y7495009D01*
X14899109Y7530069D01*
X14858997Y7559212D01*
X14814818Y7581722D01*
X14767664Y7597043D01*
X14718690Y7604800D01*
X14669109D01*
X14620137Y7597043D01*
X14572981Y7581722D01*
X14528804Y7559212D01*
X14488692Y7530069D01*
X14453632Y7495009D01*
X14424487Y7454896D01*
X14401978Y7410718D01*
X14386658Y7363563D01*
X14378900Y7314591D01*
Y7265009D01*
X14386658Y7216037D01*
X14401978Y7168882D01*
X14424487Y7124704D01*
X14453632Y7084591D01*
X14488692Y7049531D01*
X14528804Y7020388D01*
X14572981Y6997878D01*
X14576822Y6996630D01*
X14574837Y6984087D01*
X13257785Y6984086D01*
X13253473Y6996787D01*
X13257455Y6999842D01*
X13331955Y7074342D01*
X13342374Y7087920D01*
X13348924Y7103732D01*
X13351157Y7120701D01*
X13348924Y7137669D01*
X13342374Y7153481D01*
X13331955Y7167059D01*
X13318378Y7177478D01*
X13302565Y7184027D01*
X13295462Y7184962D01*
X13290910Y7198371D01*
X13298022Y7205483D01*
X13299268Y7207640D01*
X13991499D01*
X14008469Y7209874D01*
X14024281Y7216423D01*
X14037859Y7226842D01*
X14818112Y8007095D01*
X14828531Y8020674D01*
X14835081Y8036486D01*
X14837315Y8053454D01*
Y8075300D01*
X14855400D01*
Y8282300D01*
X14851401D01*
Y8456100D01*
X14845860D01*
Y8639289D01*
X14846127Y8639932D01*
X14848360Y8656900D01*
X14846127Y8673868D01*
X14845300Y8675864D01*
Y8763150D01*
X14731000D01*
X14720300Y8763150D01*
Y8763150D01*
X14718298D01*
Y8763150D01*
X14593301D01*
Y8763150D01*
X14591299D01*
Y8763150D01*
X14466299D01*
Y8675864D01*
X14465472Y8673868D01*
X14463239Y8656900D01*
Y8636440D01*
X14443140D01*
Y8437440D01*
X14594141D01*
Y8461721D01*
X14606841Y8466032D01*
X14609442Y8462642D01*
X14623019Y8452223D01*
X14638832Y8445673D01*
X14655800Y8443439D01*
X14672768Y8445673D01*
X14688580Y8452223D01*
X14700400Y8445284D01*
Y8282300D01*
X14698399D01*
Y8075301D01*
X14698399Y8075300D01*
X14698399D01*
X14691406Y8065824D01*
X13964343Y7338761D01*
X13542313D01*
X13539929Y7350933D01*
X13555740Y7357483D01*
X13569318Y7367902D01*
X13579736Y7381480D01*
X13586287Y7397292D01*
X13588521Y7414260D01*
Y8794509D01*
X13588560Y8794812D01*
Y8842489D01*
X13588828Y8843132D01*
X13591060Y8860100D01*
X13588828Y8877068D01*
X13588000Y8879064D01*
Y8966350D01*
X13473700D01*
X13463000Y8966350D01*
Y8966350D01*
X13460999D01*
Y8966350D01*
X13336002D01*
X13336000Y8966350D01*
X13334000D01*
Y8966350D01*
X13323300Y8966350D01*
X13281502D01*
X13267751Y8968160D01*
X13125000D01*
Y9055400D01*
X12910001D01*
Y8775400D01*
X13125000D01*
Y8837039D01*
X13209000D01*
Y8753850D01*
X13332939D01*
Y7895689D01*
X13320500Y7895060D01*
X13320239Y7895060D01*
X13095500D01*
Y7670060D01*
X13320239D01*
X13320500Y7670060D01*
X13332939Y7669431D01*
Y7429427D01*
X13332632Y7428688D01*
X13330400Y7411720D01*
X13332632Y7394752D01*
X13339183Y7378940D01*
X13349602Y7365362D01*
X13363181Y7354943D01*
X13371585Y7351461D01*
X13369060Y7338761D01*
X13300838D01*
X13298022Y7343637D01*
X13277077Y7364582D01*
X13251424Y7379393D01*
X13222810Y7387060D01*
X13193188D01*
X13164577Y7379393D01*
X13138924Y7364582D01*
X13117978Y7343637D01*
X13103168Y7317983D01*
X13095500Y7289371D01*
Y7259749D01*
X13103168Y7231137D01*
X13117978Y7205483D01*
X13138924Y7184538D01*
X13164577Y7169727D01*
X13193188Y7162060D01*
X13216280D01*
X13221539Y7149360D01*
X13183942Y7111761D01*
X10524557D01*
X10502146Y7134171D01*
X10508720Y7145558D01*
X10513489Y7144280D01*
X10543111D01*
X10571723Y7151947D01*
X10597377Y7166758D01*
X10618322Y7187703D01*
X10633133Y7213357D01*
X10640800Y7241969D01*
Y7271591D01*
X10633133Y7300203D01*
X10618322Y7325857D01*
X10597377Y7346802D01*
X10571723Y7361613D01*
X10543111Y7369280D01*
X10513489D01*
X10484877Y7361613D01*
X10459223Y7346802D01*
X10438278Y7325857D01*
X10423467Y7300203D01*
X10415800Y7271591D01*
Y7241969D01*
X10417078Y7237200D01*
X10405691Y7230626D01*
X10370200Y7266117D01*
Y7271591D01*
X10362534Y7300203D01*
X10347723Y7325857D01*
X10326777Y7346802D01*
X10301124Y7361613D01*
X10272511Y7369280D01*
X10242889D01*
X10214277Y7361613D01*
X10188624Y7346802D01*
X10167678Y7325857D01*
X10152867Y7300203D01*
X10145200Y7271591D01*
Y7241969D01*
X10152867Y7213357D01*
X10167678Y7187703D01*
X10188624Y7166758D01*
X10214277Y7151947D01*
X10242889Y7144280D01*
X10272511D01*
X10299399Y7151485D01*
X10451042Y6999842D01*
X10455024Y6996786D01*
X10450713Y6984086D01*
X9250363Y6984086D01*
X9248376Y6996630D01*
X9252218Y6997878D01*
X9296396Y7020388D01*
X9336509Y7049531D01*
X9371569Y7084591D01*
X9400712Y7124704D01*
X9423222Y7168882D01*
X9438543Y7216037D01*
X9446300Y7265009D01*
Y7314591D01*
X9438543Y7363563D01*
X9423222Y7410718D01*
X9400712Y7454896D01*
X9371569Y7495009D01*
X9336509Y7530069D01*
X9296396Y7559212D01*
X9252218Y7581722D01*
X9205063Y7597043D01*
X9156091Y7604800D01*
X9106509D01*
X9057537Y7597043D01*
X9010382Y7581722D01*
X8966204Y7559212D01*
X8926091Y7530069D01*
X8891031Y7495009D01*
X8861888Y7454896D01*
X8844637Y7421039D01*
X8831937Y7424088D01*
X8831936Y11779562D01*
X8844285Y11782527D01*
X8849188Y11772904D01*
X8878331Y11732791D01*
X8913391Y11697731D01*
X8953504Y11668588D01*
X8997682Y11646078D01*
X9044837Y11630757D01*
X9093809Y11623000D01*
X9143391D01*
X9192363Y11630757D01*
X9239518Y11646078D01*
X9283696Y11668588D01*
X9323809Y11697731D01*
X9358869Y11732791D01*
X9388012Y11772904D01*
X9410522Y11817082D01*
X9425843Y11864237D01*
X9433600Y11913209D01*
Y11962791D01*
X9425843Y12011763D01*
X9410522Y12058918D01*
X9388012Y12103096D01*
X9358869Y12143209D01*
X9323809Y12178269D01*
X9283696Y12207412D01*
X9271720Y12213514D01*
X9274685Y12225863D01*
X11940000Y12225864D01*
X14550516D01*
X14553481Y12213514D01*
D02*
G37*
%LPC*%
G36*
X9454300Y10927500D02*
X9189300D01*
Y10662500D01*
X9454300D01*
Y10927500D01*
D02*
G37*
G36*
X14625320Y10267489D02*
X14594936Y10264497D01*
X14580110Y10260000D01*
X14569418D01*
X14567680Y10260720D01*
X14545799D01*
X14544061Y10260000D01*
X14501401D01*
Y10208084D01*
X14418668Y10125352D01*
X14399300Y10101750D01*
X14384906Y10074823D01*
X14376044Y10045605D01*
X14373050Y10015220D01*
Y9624060D01*
X14376044Y9593675D01*
X14384906Y9564457D01*
X14399300Y9537530D01*
X14418668Y9513928D01*
X14442270Y9494559D01*
X14469197Y9480166D01*
X14498415Y9471303D01*
X14528799Y9468310D01*
X14559184Y9471303D01*
X14588403Y9480166D01*
X14615331Y9494559D01*
X14638931Y9513928D01*
X14657600Y9536676D01*
X14661725Y9536672D01*
X14670300Y9534524D01*
Y9511560D01*
X14717239D01*
Y9305550D01*
X14593300D01*
Y9218265D01*
X14592473Y9216269D01*
X14590239Y9199300D01*
X14592473Y9182332D01*
X14593300Y9180336D01*
Y9093050D01*
X14718298D01*
Y9093050D01*
X14720300D01*
Y9093050D01*
X14845300D01*
Y9180336D01*
X14846127Y9182332D01*
X14848361Y9199300D01*
Y9511560D01*
X14895300D01*
Y9736560D01*
X14684550D01*
Y9950000D01*
X14711400D01*
Y9977556D01*
X14735452Y10001608D01*
X14754820Y10025210D01*
X14769214Y10052137D01*
X14778078Y10081355D01*
X14781068Y10111740D01*
X14778078Y10142125D01*
X14769214Y10171343D01*
X14754820Y10198270D01*
X14735452Y10221872D01*
X14711850Y10241241D01*
X14711400Y10241482D01*
Y10260000D01*
X14670531D01*
X14655705Y10264497D01*
X14625320Y10267489D01*
D02*
G37*
G36*
X11358300Y10264200D02*
X11148300D01*
Y9954200D01*
X11358300D01*
Y10264200D01*
D02*
G37*
G36*
X13034779Y10263643D02*
X12824780D01*
Y9953643D01*
X12915141D01*
X12917661Y9952600D01*
X12939540D01*
X12942058Y9953643D01*
X13034779D01*
Y10263643D01*
D02*
G37*
G36*
X13906500Y9389161D02*
X13889532Y9386927D01*
X13873720Y9380377D01*
X13860143Y9369958D01*
X13849722Y9356381D01*
X13843173Y9340569D01*
X13840939Y9323600D01*
Y9214900D01*
X13806500D01*
Y9059900D01*
X14006500D01*
Y9214900D01*
X13972061D01*
Y9323600D01*
X13969827Y9340569D01*
X13963277Y9356381D01*
X13952858Y9369958D01*
X13939281Y9380377D01*
X13923468Y9386927D01*
X13906500Y9389161D01*
D02*
G37*
G36*
X10553700D02*
X10536732Y9386927D01*
X10520920Y9380377D01*
X10507342Y9369958D01*
X10496923Y9356381D01*
X10490373Y9340569D01*
X10488139Y9323600D01*
Y9214900D01*
X10453700D01*
Y9059900D01*
X10653700D01*
Y9214900D01*
X10619261D01*
Y9323600D01*
X10617027Y9340569D01*
X10610477Y9356381D01*
X10600058Y9369958D01*
X10586480Y9380377D01*
X10570668Y9386927D01*
X10553700Y9389161D01*
D02*
G37*
G36*
X12230100Y9379761D02*
X12213132Y9377527D01*
X12197320Y9370977D01*
X12183742Y9360558D01*
X12173323Y9346981D01*
X12166773Y9331169D01*
X12164539Y9314200D01*
Y9202200D01*
X12130100D01*
Y9047200D01*
X12330100D01*
Y9202200D01*
X12295661D01*
Y9314200D01*
X12293427Y9331169D01*
X12286877Y9346981D01*
X12276458Y9360558D01*
X12262880Y9370977D01*
X12247068Y9377527D01*
X12230100Y9379761D01*
D02*
G37*
G36*
X14006500Y9024900D02*
X13806500D01*
Y8869900D01*
Y8717000D01*
X13997501D01*
Y8700200D01*
X14196500D01*
Y8851200D01*
X14006500D01*
Y8869900D01*
Y9024900D01*
D02*
G37*
G36*
X11448600Y9053600D02*
X11233600D01*
Y8773600D01*
X11275539D01*
Y8719600D01*
X11241100D01*
Y8564600D01*
X11441100D01*
Y8719600D01*
X11406661D01*
Y8773600D01*
X11448600D01*
Y8824339D01*
X11532600D01*
Y8741150D01*
X11656539D01*
Y8632456D01*
X11582328Y8558245D01*
X11570820Y8553477D01*
X11557242Y8543059D01*
X11546823Y8529481D01*
X11540273Y8513669D01*
X11538039Y8496700D01*
X11540273Y8479732D01*
X11542969Y8473223D01*
X11540130Y8460471D01*
X11536149Y8458419D01*
X11524220Y8453477D01*
X11510642Y8443059D01*
X11500223Y8429481D01*
X11493673Y8413669D01*
X11491439Y8396700D01*
X11493673Y8379732D01*
X11495882Y8374400D01*
X11487396Y8361700D01*
X11454117D01*
X11451258Y8364559D01*
X11441100Y8372353D01*
Y8529600D01*
X11241100D01*
Y8374600D01*
Y8227800D01*
X11419400D01*
Y8210700D01*
X11557307D01*
X11587839Y8180168D01*
Y8059456D01*
X11578344Y8049961D01*
X11485100D01*
X11468132Y8047727D01*
X11466136Y8046900D01*
X11378851D01*
X11378850Y8046901D01*
Y8046901D01*
X11366150Y8045519D01*
X11360819Y8047727D01*
X11343850Y8049961D01*
X11277423D01*
X11022066Y8305318D01*
Y8588795D01*
X11019832Y8605763D01*
X11013283Y8621575D01*
X11002863Y8635153D01*
X10833358Y8804659D01*
X10831000Y8806468D01*
Y8844300D01*
X10713748D01*
X10711268Y8845327D01*
X10694300Y8847561D01*
X10653700D01*
Y9024900D01*
X10453700D01*
Y8869900D01*
Y8717000D01*
X10561942D01*
X10566200Y8716440D01*
X10632000D01*
Y8693300D01*
X10737742D01*
X10742000Y8692740D01*
X10759844D01*
X10890944Y8561639D01*
Y8278162D01*
X10893178Y8261194D01*
X10899728Y8245382D01*
X10910147Y8231804D01*
X11203909Y7938042D01*
X11217487Y7927623D01*
X11233299Y7921074D01*
X11250267Y7918840D01*
X11343850D01*
X11360819Y7921074D01*
X11366150Y7923282D01*
X11369060Y7922965D01*
X11378850Y7914796D01*
Y7794900D01*
X11466136D01*
X11468132Y7794074D01*
X11485100Y7791840D01*
X11629300D01*
X11646269Y7794074D01*
X11662081Y7800623D01*
X11675659Y7811042D01*
X11686077Y7824620D01*
X11692627Y7840432D01*
X11694861Y7857400D01*
X11692627Y7874369D01*
X11692077Y7875696D01*
X11702844Y7882890D01*
X11755490Y7830244D01*
Y7716450D01*
X11757724Y7699482D01*
X11764273Y7683670D01*
X11774692Y7670092D01*
X11885242Y7559542D01*
X11898820Y7549123D01*
X11910740Y7544186D01*
X11921250Y7538900D01*
Y7493265D01*
X11919359Y7488700D01*
Y7466820D01*
X11921250Y7462255D01*
Y7424600D01*
X11921250Y7413901D01*
X11921250D01*
Y7411900D01*
X11921250D01*
Y7297600D01*
X11921250Y7286901D01*
X11921250D01*
Y7284900D01*
X11921250D01*
Y7159900D01*
X12008536D01*
X12010532Y7159074D01*
X12027500Y7156840D01*
X12898994D01*
X12915962Y7159074D01*
X12920950Y7161140D01*
X12922589Y7160700D01*
X12952211D01*
X12980824Y7168367D01*
X13006477Y7183178D01*
X13027423Y7204124D01*
X13042233Y7229777D01*
X13049899Y7258389D01*
Y7288011D01*
X13042233Y7316624D01*
X13027423Y7342277D01*
X13006477Y7363223D01*
X12980824Y7378034D01*
X12952211Y7385700D01*
X12922589D01*
X12900717Y7379839D01*
X12894144Y7391226D01*
X12918668Y7415751D01*
X12922589Y7414700D01*
X12952211D01*
X12980824Y7422367D01*
X13006477Y7437178D01*
X13027423Y7458124D01*
X13042233Y7483777D01*
X13049899Y7512389D01*
Y7542011D01*
X13042233Y7570624D01*
X13027423Y7596277D01*
X13006477Y7617223D01*
X12980824Y7632034D01*
X12952211Y7639700D01*
X12922589D01*
X12893977Y7632034D01*
X12868324Y7617223D01*
X12847379Y7596277D01*
X12832567Y7570624D01*
X12824899Y7542011D01*
Y7512389D01*
X12825951Y7508468D01*
X12729944Y7412461D01*
X12289108D01*
X12280622Y7425161D01*
X12282598Y7429932D01*
X12284832Y7446900D01*
X12282598Y7463868D01*
X12276048Y7479681D01*
X12265630Y7493259D01*
X12238630Y7520259D01*
X12225051Y7530678D01*
X12209240Y7537227D01*
X12192271Y7539461D01*
X12145854D01*
X12133750Y7540901D01*
Y7664840D01*
X12238900D01*
X12255869Y7667074D01*
X12271681Y7673623D01*
X12285259Y7684042D01*
X12619358Y8018142D01*
X12629777Y8031720D01*
X12636327Y8047532D01*
X12638561Y8064500D01*
Y8633924D01*
X12636327Y8650892D01*
X12629777Y8666704D01*
X12619359Y8680282D01*
X12507682Y8791959D01*
X12507400Y8792175D01*
Y8831600D01*
X12418666D01*
X12409669Y8835327D01*
X12392700Y8837561D01*
X12330100D01*
Y9012200D01*
X12130100D01*
Y8857200D01*
Y8704300D01*
X12308400D01*
Y8680600D01*
X12433607D01*
X12507439Y8606768D01*
Y8091656D01*
X12211744Y7795961D01*
X12133750D01*
Y7919900D01*
X12133751D01*
Y7921901D01*
X12133750D01*
Y8046900D01*
X12046465D01*
X12044469Y8047727D01*
X12027500Y8049961D01*
X11883300D01*
X11866332Y8047727D01*
X11850520Y8041177D01*
X11836942Y8030759D01*
X11826523Y8017181D01*
X11819974Y8001369D01*
X11817740Y7984400D01*
X11819712Y7969416D01*
X11815409Y7965680D01*
X11808240Y7962927D01*
X11740409Y8030759D01*
X11726831Y8041178D01*
X11718961Y8044438D01*
Y8207324D01*
X11716727Y8224292D01*
X11710177Y8240104D01*
X11699758Y8253682D01*
X11635001Y8318440D01*
X11640261Y8331140D01*
X11668220D01*
X11685189Y8333373D01*
X11701000Y8339923D01*
X11714579Y8350342D01*
X11895459Y8531222D01*
X11905877Y8544800D01*
X11912427Y8560612D01*
X11914661Y8577580D01*
Y8806150D01*
X11912427Y8823118D01*
X11911600Y8825114D01*
Y8953650D01*
X11786601D01*
X11786600Y8953650D01*
X11784599D01*
Y8953650D01*
X11773900Y8953650D01*
X11659601D01*
X11659600Y8953650D01*
X11657599D01*
Y8953650D01*
X11646900Y8953650D01*
X11605102D01*
X11591350Y8955460D01*
X11448600D01*
Y9053600D01*
D02*
G37*
G36*
X13049899Y7893700D02*
X12824899D01*
Y7825261D01*
X12750800D01*
X12733832Y7823027D01*
X12718020Y7816477D01*
X12704442Y7806058D01*
X12694023Y7792480D01*
X12687473Y7776668D01*
X12685239Y7759700D01*
X12687473Y7742732D01*
X12694023Y7726920D01*
X12704442Y7713342D01*
X12718020Y7702923D01*
X12733832Y7696373D01*
X12750800Y7694139D01*
X12824899D01*
Y7668700D01*
X13049899D01*
Y7893700D01*
D02*
G37*
G36*
X9772200Y9053600D02*
X9557200D01*
Y8773600D01*
X9772200D01*
Y8848039D01*
X9854727D01*
X9855373Y8843131D01*
X9856200Y8841135D01*
Y8753850D01*
X9980139D01*
Y7976780D01*
X9982373Y7959812D01*
X9988923Y7944000D01*
X9999342Y7930422D01*
X10145200Y7784563D01*
Y7652280D01*
X10370200D01*
Y7813570D01*
X10381934Y7818430D01*
X10415800Y7784563D01*
Y7652280D01*
X10640800D01*
Y7877280D01*
X10508517D01*
X10428163Y7957633D01*
X10427392Y7958225D01*
X10238261Y8147357D01*
Y8860100D01*
X10236027Y8877068D01*
X10235200Y8879064D01*
Y8966350D01*
X10110201D01*
Y8966350D01*
X10108199D01*
Y8966350D01*
X9983201D01*
X9983200Y8966350D01*
X9981199D01*
Y8966350D01*
X9970500Y8966350D01*
X9941978D01*
X9936730Y8970377D01*
X9920918Y8976927D01*
X9903950Y8979161D01*
X9772200D01*
Y9053600D01*
D02*
G37*
G36*
X10543111Y7623280D02*
X10513489D01*
X10484877Y7615613D01*
X10459223Y7600802D01*
X10438278Y7579857D01*
X10423467Y7554203D01*
X10415800Y7525591D01*
Y7495969D01*
X10423467Y7467357D01*
X10438278Y7441703D01*
X10459223Y7420758D01*
X10484877Y7405947D01*
X10513489Y7398280D01*
X10543111D01*
X10571723Y7405947D01*
X10597377Y7420758D01*
X10618322Y7441703D01*
X10633133Y7467357D01*
X10640800Y7495969D01*
Y7525591D01*
X10633133Y7554203D01*
X10618322Y7579857D01*
X10597377Y7600802D01*
X10571723Y7615613D01*
X10543111Y7623280D01*
D02*
G37*
G36*
X10272511D02*
X10242889D01*
X10214277Y7615613D01*
X10188624Y7600802D01*
X10167678Y7579857D01*
X10152867Y7554203D01*
X10145200Y7525591D01*
Y7495969D01*
X10152867Y7467357D01*
X10167678Y7441703D01*
X10188624Y7420758D01*
X10214277Y7405947D01*
X10242889Y7398280D01*
X10272511D01*
X10301124Y7405947D01*
X10326777Y7420758D01*
X10347723Y7441703D01*
X10362534Y7467357D01*
X10370200Y7495969D01*
Y7525591D01*
X10362534Y7554203D01*
X10347723Y7579857D01*
X10326777Y7600802D01*
X10301124Y7615613D01*
X10272511Y7623280D01*
D02*
G37*
G36*
X11591350Y7411900D02*
X11378850D01*
Y7286901D01*
X11378850Y7286901D01*
Y7284900D01*
X11378850D01*
X11378850Y7274200D01*
Y7159900D01*
X11466136D01*
X11468132Y7159074D01*
X11485100Y7156840D01*
X11629300D01*
X11646269Y7159074D01*
X11662081Y7165623D01*
X11675659Y7176042D01*
X11686077Y7189620D01*
X11692627Y7205432D01*
X11694861Y7222400D01*
X11692627Y7239369D01*
X11686077Y7255181D01*
X11675659Y7268759D01*
X11662081Y7279177D01*
X11646269Y7285727D01*
X11629300Y7287961D01*
X11591350D01*
Y7411900D01*
D02*
G37*
%LPD*%
G54D20*
X12469780Y10108643D02*
D03*
X12929781D02*
D03*
X12168000Y10108900D02*
D03*
X11708000D02*
D03*
X10793300Y10109200D02*
D03*
X11253300D02*
D03*
X13384631Y10109057D02*
D03*
X13844632D02*
D03*
X14146400Y10105000D02*
D03*
X14606400D02*
D03*
X10491600Y10108900D02*
D03*
X10031600D02*
D03*
G54D21*
X12699781Y10798643D02*
D03*
X11938000Y10798900D02*
D03*
X11023300Y10799200D02*
D03*
X13614632Y10799057D02*
D03*
X14376401Y10795000D02*
D03*
X10261600Y10798900D02*
D03*
G54D29*
X14354640Y8536940D02*
D03*
X14518640D02*
D03*
X14775900Y8356600D02*
D03*
X14611900D02*
D03*
G54D30*
X11518900Y8122200D02*
D03*
Y8286200D02*
D03*
X10731500Y8604800D02*
D03*
Y8768800D02*
D03*
X12407900Y8592100D02*
D03*
Y8756100D02*
D03*
X14097000Y8611700D02*
D03*
Y8775700D02*
D03*
G54D31*
X14610899Y8178800D02*
D03*
X14776900D02*
D03*
G54D32*
X11341100Y8913600D02*
D03*
Y9323600D02*
D03*
X13017500Y8915400D02*
D03*
Y9325400D02*
D03*
X9664700Y8913600D02*
D03*
Y9323600D02*
D03*
G54D33*
X11485100Y7222400D02*
D03*
Y7349400D02*
D03*
Y7476400D02*
D03*
Y7603400D02*
D03*
Y7730400D02*
D03*
Y7857400D02*
D03*
Y7984400D02*
D03*
X12027500D02*
D03*
Y7857400D02*
D03*
Y7730400D02*
D03*
Y7603400D02*
D03*
Y7476400D02*
D03*
Y7349400D02*
D03*
Y7222400D02*
D03*
G54D34*
X12306300Y9861300D02*
D03*
Y9671300D02*
D03*
X11341100Y8305300D02*
D03*
Y8115300D02*
D03*
X11709400Y9683000D02*
D03*
Y9873000D02*
D03*
X12230100Y8591800D02*
D03*
Y8781800D02*
D03*
X11341100Y8452100D02*
D03*
Y8642100D02*
D03*
X13906500Y8604500D02*
D03*
Y8794500D02*
D03*
Y8947400D02*
D03*
Y9137400D02*
D03*
X12230100Y8934700D02*
D03*
Y9124700D02*
D03*
X10553700Y8604500D02*
D03*
Y8794500D02*
D03*
Y8947400D02*
D03*
Y9137400D02*
D03*
X13982700Y9658600D02*
D03*
Y9848600D02*
D03*
X13385800Y9645900D02*
D03*
Y9835900D02*
D03*
X10680700Y9671300D02*
D03*
Y9861300D02*
D03*
X10033000Y9696700D02*
D03*
Y9886700D02*
D03*
G54D35*
X11595100Y8847400D02*
D03*
X11722100D02*
D03*
X11849100D02*
D03*
X11976100D02*
D03*
Y9389800D02*
D03*
X11849100D02*
D03*
X11722100D02*
D03*
X11595100D02*
D03*
X13271500Y8860100D02*
D03*
X13398500D02*
D03*
X13525500D02*
D03*
X13652499D02*
D03*
Y9402500D02*
D03*
X13525500D02*
D03*
X13398500D02*
D03*
X13271500D02*
D03*
X9918700D02*
D03*
X10045700D02*
D03*
X10172700D02*
D03*
X10299700D02*
D03*
Y8860100D02*
D03*
X10172700D02*
D03*
X10045700D02*
D03*
X9918700D02*
D03*
X14782800Y9199300D02*
D03*
X14655800D02*
D03*
X14528799D02*
D03*
X14401801D02*
D03*
Y8656900D02*
D03*
X14528799D02*
D03*
X14655800D02*
D03*
X14782800D02*
D03*
G54D36*
X14528799Y8547100D02*
Y8656900D01*
X14518640Y8536940D02*
X14528799Y8547100D01*
X12757100Y7346900D02*
X12937399Y7527200D01*
X12030001Y7346900D02*
X12757100D01*
X12030001Y7473900D02*
X12192271D01*
X12219271Y7446900D01*
X10045700Y7976780D02*
X10257700Y7764780D01*
X10045700Y7976780D02*
Y8860100D01*
X10172700Y8120201D02*
X10381626Y7911275D01*
X10381805D02*
X10528300Y7764780D01*
X10381626Y7911275D02*
X10381805D01*
X13017500Y8902600D02*
X13267751D01*
X13269000Y8862600D02*
X13271500Y8860100D01*
X13269000Y8862600D02*
Y8901350D01*
X13267751Y8902600D02*
X13269000Y8901350D01*
X13017500Y8905240D02*
Y8915400D01*
X13014960Y8902700D02*
X13017500Y8905240D01*
X11341100Y8889900D02*
X11591350D01*
X11592600Y8888650D01*
Y8849900D02*
Y8888650D01*
Y8849900D02*
X11595100Y8847400D01*
X11341100Y8642100D02*
Y8889900D01*
Y8885900D02*
Y8889900D01*
Y9323600D02*
Y9347300D01*
X11383600Y9389800D01*
X11595100D01*
X13525500Y9537700D02*
Y9798899D01*
Y9402500D02*
Y9537700D01*
X13271500Y9402500D02*
Y9550400D01*
X13844632Y10059057D02*
Y10109057D01*
X13804633Y10019057D02*
X13844632Y10059057D01*
X13745657Y10019057D02*
X13804633D01*
X13525500Y9798899D02*
X13745657Y10019057D01*
X10172700Y8120201D02*
Y8860100D01*
Y9575800D02*
Y9791324D01*
Y9402500D02*
Y9575800D01*
X11603600Y8496700D02*
X11613501D01*
X12027500Y7349400D02*
X12030001Y7346900D01*
X12027500Y7476400D02*
X12030001Y7473900D01*
X12750800Y7759700D02*
X12915900D01*
X12937399Y7781200D01*
X11883300Y7984400D02*
X12027500D01*
X11557000Y8396700D02*
X11668220D01*
X11613501Y8496700D02*
X11722100Y8605300D01*
X11668220Y8396700D02*
X11849100Y8577580D01*
X11931600Y7605900D02*
X12025000D01*
X12027500Y7222400D02*
X12898994D01*
X11485100Y7857400D02*
X11629300D01*
X11485100Y7222400D02*
X11629300D01*
X12027500Y7730400D02*
X12238900D01*
X11821051Y7857400D02*
X12027500D01*
X11485100Y7984400D02*
X11605500D01*
X12025000Y7605900D02*
X12027500Y7603400D01*
X12399262Y8758938D02*
X12437362D01*
Y8750638D02*
Y8758938D01*
Y8750638D02*
X12442400Y8745600D01*
X12461324D01*
X12573000Y8633924D01*
Y8064500D02*
Y8633924D01*
X12238900Y7730400D02*
X12573000Y8064500D01*
X12937399Y7260807D02*
Y7273200D01*
X12898994Y7222400D02*
X12937399Y7260807D01*
X11821051Y7716450D02*
Y7857400D01*
Y7716450D02*
X11931600Y7605900D01*
X11250267Y7984400D02*
X11343850D01*
X10956505Y8278162D02*
X11250267Y7984400D01*
X13991499Y7273200D02*
X14771754Y8053454D01*
Y8173654D02*
X14776900Y8178800D01*
X14771754Y8053454D02*
Y8173654D01*
X13209360Y7273200D02*
X13991499D01*
X14776401Y8179300D02*
X14776900Y8178800D01*
X13208000Y7274560D02*
X13209360Y7273200D01*
X14776401Y8179300D02*
Y8322100D01*
X14775900Y8322600D02*
X14776401Y8322100D01*
X14775900Y8322600D02*
Y8356600D01*
X14780299Y8361000D01*
Y8654400D01*
X14782800Y8656900D01*
X11341100Y8318000D02*
Y8452100D01*
X11518900Y8286200D02*
X11523100Y8282000D01*
X11384400Y8318200D02*
X11404900D01*
X11384000Y8317800D02*
X11384400Y8318200D01*
X11376100Y8317800D02*
X11384000D01*
X11363600Y8305300D02*
X11376100Y8317800D01*
X11341100Y8305300D02*
X11363600D01*
X11510400Y8294700D02*
X11523100Y8282000D01*
X11428400Y8294700D02*
X11510400D01*
X11404900Y8318200D02*
X11428400Y8294700D01*
X11523100Y8282000D02*
X11578724D01*
X11605500Y7984400D02*
X11653400Y8032300D01*
Y8207324D01*
X11578724Y8282000D02*
X11653400Y8207324D01*
X11722100Y8605300D02*
Y8847400D01*
X12392900Y8765100D02*
Y8766600D01*
X10956505Y8278162D02*
Y8588795D01*
X10731500Y8768800D02*
X10742000Y8758300D01*
X10787000D01*
X10956505Y8588795D01*
X10707500Y8768800D02*
X10731500D01*
X10694300Y8782000D02*
X10707500Y8768800D01*
X10566200Y8782000D02*
X10694300D01*
X10553700Y8794500D02*
X10566200Y8782000D01*
X14087601Y8785100D02*
X14097000Y8775700D01*
X13915900Y8785100D02*
X14087601D01*
X13906500Y8794500D02*
X13915900Y8785100D01*
X14097000Y8775700D02*
X14109700D01*
X13062100Y9402500D02*
X13271500D01*
X11849100Y9389800D02*
Y9537700D01*
X11595100Y9389800D02*
Y9537700D01*
X11849100D02*
Y9829800D01*
X12168000Y10060300D02*
Y10108900D01*
X12128000Y10020300D02*
X12168000Y10060300D01*
X12039600Y10020300D02*
X12128000D01*
X11849100Y9829800D02*
X12039600Y10020300D01*
X10451600Y10018900D02*
X10491600Y10058900D01*
X10172700Y9791324D02*
X10400276Y10018900D01*
X10451600D01*
X9918700Y9402500D02*
Y9575800D01*
X10491600Y10058900D02*
Y10108900D01*
X12376075Y9861100D02*
X12429781Y9914805D01*
Y10068643D02*
X12469780Y10108643D01*
X12429781Y9914805D02*
Y10068643D01*
X11976100Y9389800D02*
Y9474795D01*
X12160105Y9658800D02*
X12293800D01*
X11976100Y9474795D02*
X12160105Y9658800D01*
X12293800D02*
X12306300Y9671300D01*
Y9861300D02*
X12306500Y9861100D01*
X12376075D01*
X11849100Y8577580D02*
Y8806150D01*
X13522960Y7414260D02*
Y8794772D01*
X13398500Y7414260D02*
Y8860100D01*
X10750100Y9908200D02*
X10753300D01*
Y10019200D02*
X10793300Y10059200D01*
X10703200Y9861300D02*
X10750100Y9908200D01*
X10753300D02*
Y10019200D01*
X14782800Y9199300D02*
Y9624060D01*
X10261600Y7236460D02*
X10307141D01*
X10497400Y7046200D02*
X13211098D01*
X10307141Y7236460D02*
X10497400Y7046200D01*
X10257700Y7240360D02*
X10261600Y7236460D01*
X10257700Y7240360D02*
Y7256780D01*
X13211098Y7046200D02*
X13285597Y7120701D01*
X13522960Y8794772D02*
X13523000Y8794812D01*
Y8857600D02*
X13525500Y8860100D01*
X13523000Y8794812D02*
Y8857600D01*
X13395959Y7411720D02*
X13398500Y7414260D01*
X10299700Y9458300D02*
X10439400Y9598000D01*
X10299700Y9402500D02*
Y9458300D01*
X10439400Y9598000D02*
Y9598000D01*
X10507900Y9666500D01*
X10675900D01*
X10680700Y9671300D01*
Y9861300D02*
X10703200D01*
X10793300Y10059200D02*
Y10109200D01*
X13398500Y9402500D02*
Y9633400D01*
X13857350Y9646100D02*
X13970200D01*
X13982700Y9658600D01*
X13655000Y9443750D02*
X13857350Y9646100D01*
X13982700Y9848600D02*
X13995399D01*
X14146400Y10055000D02*
Y10105000D01*
X14026794Y9935395D02*
X14146400Y10055000D01*
X14026794Y9861100D02*
Y9935395D01*
X14014294Y9848600D02*
X14026794Y9861100D01*
X13995399Y9848600D02*
X14014294D01*
X9664700Y8913600D02*
X9903950D01*
X9918700Y8860100D02*
Y8898850D01*
X9903950Y8913600D02*
X9918700Y8898850D01*
X9711100Y9402500D02*
X9918700D01*
X9664700Y9356100D02*
X9711100Y9402500D01*
X9664700Y9323600D02*
Y9356100D01*
X11708000Y10108900D02*
X11708700Y10108200D01*
Y9873700D02*
Y10108200D01*
Y9873700D02*
X11709400Y9873000D01*
X10031600Y10108900D02*
X10032300Y10108200D01*
Y9887400D02*
X10033000Y9886700D01*
X10032300Y9887400D02*
Y10108200D01*
X12230100Y8781800D02*
Y8934700D01*
X12246250Y8772000D02*
X12392700D01*
X12395200Y8769500D01*
X12236450Y8781800D02*
X12246250Y8772000D01*
X13906500Y8794500D02*
Y8947400D01*
X13900250Y8941150D02*
X13906500Y8947400D01*
X11605500Y7984400D02*
X11694051D01*
X14655800Y8509000D02*
Y8656900D01*
X11694051Y7984400D02*
X11821051Y7857400D01*
X13906500Y9137400D02*
Y9323600D01*
X10553700Y8794500D02*
Y8947400D01*
X12230100Y9124700D02*
Y9314200D01*
X10553700Y9137400D02*
Y9323600D01*
X14655800Y9199300D02*
X14782800D01*
X13384631Y10109057D02*
X13385216Y10108473D01*
Y9836484D02*
Y10108473D01*
Y9836484D02*
X13385800Y9835900D01*
X11722100Y9389800D02*
Y9402500D01*
Y9683000D01*
X11709400D02*
X11722100D01*
X10045700Y9402500D02*
Y9684200D01*
X13017500Y9357900D02*
X13062100Y9402500D01*
X13017500Y9325400D02*
Y9357900D01*
X13385800Y9645900D02*
X13386000D01*
X13398500Y9633400D01*
X10033000Y9696700D02*
X10033200D01*
X10045700Y9684200D01*
X13906700Y9137400D02*
X13919200Y9149900D01*
X13906500Y9137400D02*
X13906700D01*
G54D37*
X14528799Y10015220D02*
X14625320Y10111740D01*
X14528799Y9624060D02*
Y10015220D01*
G54D38*
X13941689Y11709400D02*
X14376401Y11274689D01*
Y10795000D02*
Y11274689D01*
X13436600Y11709400D02*
X13941689D01*
X11023300Y10799200D02*
Y11121601D01*
X12700000Y10798863D02*
Y11468100D01*
X11611099Y11709400D02*
X11950700D01*
X11023300Y11121601D02*
X11611099Y11709400D01*
X12699781Y10798643D02*
X12700000Y10798863D01*
G54D39*
X14097575Y10412000D02*
X14101401D01*
X13844632Y10109057D02*
Y10159057D01*
X14097575Y10412000D01*
X10748600Y10415900D02*
Y10524500D01*
X11023300Y10799200D01*
X10491600Y10158900D02*
X10748600Y10415900D01*
X10491600Y10108900D02*
Y10158900D01*
X12424781Y10415680D02*
Y10523643D01*
X12168000Y10158900D02*
X12424781Y10415680D01*
Y10523643D02*
X12699781Y10798643D01*
X14101401Y10520000D02*
X14376401Y10795000D01*
X14101401Y10412000D02*
Y10520000D01*
G54D40*
X13208000Y7274560D02*
D03*
Y7528560D02*
D03*
X14528799Y9624060D02*
D03*
X14274800D02*
D03*
X10528300Y7510780D02*
D03*
Y7256780D02*
D03*
X12937399Y7527200D02*
D03*
Y7273200D02*
D03*
X10257700Y7510780D02*
D03*
Y7256780D02*
D03*
G54D41*
X13208000Y7782560D02*
D03*
X10528300Y7764780D02*
D03*
X12937399Y7781200D02*
D03*
X10257700Y7764780D02*
D03*
G54D42*
X14782800Y9624060D02*
D03*
G54D43*
X13200000Y11709400D02*
D03*
G54D44*
X12700000D02*
D03*
X12200000D02*
D03*
X9321800Y10295000D02*
D03*
G54D45*
Y10795000D02*
D03*
G54D46*
X9118600Y11938000D02*
D03*
X14706599D02*
D03*
X14693900Y7289800D02*
D03*
X9131300D02*
D03*
G54D47*
X12219271Y7446900D02*
D03*
X11974359Y7477760D02*
D03*
X14556740Y10205720D02*
D03*
Y10124440D02*
D03*
X14605000Y10088880D02*
D03*
X14655800Y10124440D02*
D03*
X14556740Y10048240D02*
D03*
X14655800D02*
D03*
X14605000Y10007600D02*
D03*
X14655800Y10205720D02*
D03*
X14605000Y10165080D02*
D03*
X13014960Y8902700D02*
D03*
X11341100Y8885900D02*
D03*
X13525500Y9537700D02*
D03*
X13271500Y9550400D02*
D03*
X10259060Y10543540D02*
D03*
Y11064240D02*
D03*
Y10750640D02*
D03*
Y10949940D02*
D03*
Y10645140D02*
D03*
Y10848340D02*
D03*
X10513060Y10645140D02*
D03*
Y10949940D02*
D03*
Y10543540D02*
D03*
Y11064240D02*
D03*
Y10848340D02*
D03*
Y10746740D02*
D03*
X10005060Y10543540D02*
D03*
Y10746740D02*
D03*
Y10645140D02*
D03*
Y10848340D02*
D03*
Y10949940D02*
D03*
Y11064240D02*
D03*
X13647420Y8864600D02*
D03*
X11971020Y8844280D02*
D03*
X11523980Y7472680D02*
D03*
X10297160Y8864600D02*
D03*
X11603600Y8496700D02*
D03*
X12750800Y7759700D02*
D03*
X11883300Y7984400D02*
D03*
X11557000Y8396700D02*
D03*
X11343850Y7984400D02*
D03*
X11629300Y7857400D02*
D03*
X14097000Y8775700D02*
D03*
X10172700Y9575800D02*
D03*
X9918700D02*
D03*
X11595100Y9537700D02*
D03*
X11849100D02*
D03*
X12928600Y10007600D02*
D03*
X12979401Y10124440D02*
D03*
X12928600Y10165080D02*
D03*
Y10088880D02*
D03*
X12979401Y10048240D02*
D03*
X12880341Y10124440D02*
D03*
X12979401Y10205720D02*
D03*
X12880341D02*
D03*
Y10048240D02*
D03*
X11252200Y10010140D02*
D03*
X11303000Y10126980D02*
D03*
X11252200Y10167620D02*
D03*
Y10091420D02*
D03*
X11303000Y10050780D02*
D03*
X11203940Y10126980D02*
D03*
X11303000Y10208260D02*
D03*
X11203940D02*
D03*
Y10050780D02*
D03*
X13614400Y10541000D02*
D03*
X13360400Y11061700D02*
D03*
Y10947400D02*
D03*
Y10845800D02*
D03*
Y10642600D02*
D03*
Y10744200D02*
D03*
Y10541000D02*
D03*
X13868401Y10744200D02*
D03*
Y10845800D02*
D03*
Y11061700D02*
D03*
Y10541000D02*
D03*
Y10947400D02*
D03*
Y10642600D02*
D03*
X13614400Y10845800D02*
D03*
Y10642600D02*
D03*
Y10947400D02*
D03*
Y10748100D02*
D03*
Y11061700D02*
D03*
X11684000D02*
D03*
Y10947400D02*
D03*
Y10845800D02*
D03*
Y10642600D02*
D03*
Y10744200D02*
D03*
Y10541000D02*
D03*
X12192000Y10744200D02*
D03*
Y10845800D02*
D03*
Y11061700D02*
D03*
Y10541000D02*
D03*
Y10947400D02*
D03*
Y10642600D02*
D03*
X11938000Y10845800D02*
D03*
Y10642600D02*
D03*
Y10947400D02*
D03*
Y10748100D02*
D03*
Y11061700D02*
D03*
Y10541000D02*
D03*
X13522960Y7414260D02*
D03*
X13395959Y7411720D02*
D03*
X9664700Y8885900D02*
D03*
X14655800Y8509000D02*
D03*
X13906500Y9323600D02*
D03*
X12230100Y9314200D02*
D03*
X10553700Y9323600D02*
D03*
X13285597Y7120701D02*
D03*
X11629300Y7222400D02*
D03*
M02*
