G04*
G04 #@! TF.GenerationSoftware,Altium Limited,Altium Designer,24.0.1 (36)*
G04*
G04 Layer_Physical_Order=2*
G04 Layer_Color=16711680*
%FSLAX45Y45*%
%MOMM*%
G71*
G04*
G04 #@! TF.SameCoordinates,0B170F52-40F4-4D68-8434-06CE0CB0BF9C*
G04*
G04*
G04 #@! TF.FilePolarity,Positive*
G04*
G01*
G75*
%ADD29R,0.91000X1.39000*%
%ADD31R,0.97000X1.47000*%
%ADD32R,1.55000X2.20000*%
%ADD36C,0.70000*%
%ADD37C,2.50000*%
%ADD38C,7.00000*%
%ADD40C,1.65000*%
%ADD41R,1.65000X1.65000*%
%ADD42R,1.65000X1.65000*%
%ADD43R,2.05000X2.05000*%
%ADD44C,2.05000*%
%ADD45R,2.05000X2.05000*%
%ADD46C,5.70000*%
%ADD47C,0.50000*%
%ADD48R,2.50000X1.60000*%
G36*
X14553481Y12213514D02*
X14541504Y12207412D01*
X14501392Y12178269D01*
X14466331Y12143209D01*
X14437189Y12103096D01*
X14414677Y12058918D01*
X14399358Y12011763D01*
X14391600Y11962791D01*
Y11913209D01*
X14399358Y11864237D01*
X14414677Y11817082D01*
X14437189Y11772904D01*
X14466331Y11732791D01*
X14501392Y11697731D01*
X14541504Y11668588D01*
X14585683Y11646078D01*
X14632837Y11630757D01*
X14681808Y11623000D01*
X14731390D01*
X14780363Y11630757D01*
X14827518Y11646078D01*
X14871696Y11668588D01*
X14911809Y11697731D01*
X14946869Y11732791D01*
X14976012Y11772904D01*
X14980914Y11782525D01*
X14993263Y11779561D01*
X14993263Y7424087D01*
X14980563Y7421038D01*
X14963312Y7454896D01*
X14934169Y7495009D01*
X14899109Y7530069D01*
X14858997Y7559212D01*
X14814818Y7581722D01*
X14767664Y7597043D01*
X14718690Y7604800D01*
X14669109D01*
X14620137Y7597043D01*
X14572981Y7581722D01*
X14528804Y7559212D01*
X14488692Y7530069D01*
X14453632Y7495009D01*
X14424487Y7454896D01*
X14401978Y7410718D01*
X14386658Y7363563D01*
X14378900Y7314591D01*
Y7265009D01*
X14386658Y7216037D01*
X14401978Y7168882D01*
X14424487Y7124704D01*
X14453632Y7084591D01*
X14488692Y7049531D01*
X14528804Y7020388D01*
X14572981Y6997878D01*
X14576822Y6996630D01*
X14574837Y6984087D01*
X13405296Y6984086D01*
X13400436Y6995820D01*
X13569318Y7164701D01*
X13579736Y7178280D01*
X13586287Y7194092D01*
X13588521Y7211060D01*
Y7414260D01*
X13586287Y7431228D01*
X13579736Y7447040D01*
X13569318Y7460618D01*
X13555740Y7471037D01*
X13539928Y7477587D01*
X13522960Y7479821D01*
X13505992Y7477587D01*
X13490179Y7471037D01*
X13476602Y7460618D01*
X13466183Y7447040D01*
X13465807Y7446133D01*
X13457092Y7445045D01*
X13451859Y7445645D01*
X13442319Y7458078D01*
X13428740Y7468497D01*
X13412927Y7475047D01*
X13395959Y7477281D01*
X13378992Y7475047D01*
X13363181Y7468497D01*
X13349602Y7458078D01*
X13339183Y7444500D01*
X13332632Y7428688D01*
X13330399Y7411720D01*
Y7301495D01*
X13317699Y7299823D01*
X13312833Y7317983D01*
X13298022Y7343637D01*
X13277077Y7364582D01*
X13251424Y7379393D01*
X13222810Y7387060D01*
X13193188D01*
X13164577Y7379393D01*
X13138924Y7364582D01*
X13117978Y7343637D01*
X13103168Y7317983D01*
X13095500Y7289371D01*
Y7270017D01*
X13055426Y7229943D01*
X13044038Y7236517D01*
X13049899Y7258389D01*
Y7288011D01*
X13042233Y7316624D01*
X13027423Y7342277D01*
X13006477Y7363223D01*
X12980824Y7378034D01*
X12952211Y7385700D01*
X12922589D01*
X12893977Y7378034D01*
X12868324Y7363223D01*
X12847379Y7342277D01*
X12832567Y7316624D01*
X12824899Y7288011D01*
Y7258389D01*
X12832567Y7229777D01*
X12847379Y7204124D01*
X12848508Y7202994D01*
X12843646Y7191261D01*
X12560556D01*
X12278815Y7473002D01*
X12276048Y7479680D01*
X12265630Y7493259D01*
X12252051Y7503677D01*
X12247281Y7505654D01*
X12244301Y7520634D01*
X12417805Y7694139D01*
X12750800D01*
X12767768Y7696373D01*
X12783580Y7702923D01*
X12797158Y7713342D01*
X12807578Y7726920D01*
X12812199Y7738081D01*
X12824899Y7735555D01*
Y7668700D01*
X13049899D01*
Y7893700D01*
X12902287D01*
X12897427Y7905434D01*
X13110432Y8118439D01*
X13911700D01*
X13928668Y8120673D01*
X13944479Y8127223D01*
X13958058Y8137642D01*
X14143358Y8322941D01*
X14153777Y8336520D01*
X14160327Y8352332D01*
X14162561Y8369300D01*
Y8775700D01*
X14160327Y8792668D01*
X14153777Y8808480D01*
X14143358Y8822058D01*
X14129781Y8832477D01*
X14113968Y8839027D01*
X14097000Y8841261D01*
X14080032Y8839027D01*
X14064220Y8832477D01*
X14050642Y8822058D01*
X14040224Y8808480D01*
X14033673Y8792668D01*
X14031439Y8775700D01*
Y8396456D01*
X13884544Y8249561D01*
X13468201D01*
Y8418000D01*
X13458261D01*
Y8600700D01*
X13456027Y8617669D01*
X13449477Y8633480D01*
X13442000Y8643225D01*
Y8771400D01*
X13238977D01*
X12854819Y9155558D01*
X12841240Y9165977D01*
X12825429Y9172527D01*
X12808459Y9174761D01*
X12337600D01*
Y9454200D01*
X12215317D01*
X12130458Y9539058D01*
X12118400Y9548311D01*
Y9647700D01*
X11945861D01*
Y9768400D01*
X11955800D01*
Y9953450D01*
X12908279D01*
X12914200Y9954033D01*
X12917661Y9952600D01*
X12939540D01*
X12942999Y9954033D01*
X12948920Y9953450D01*
X13317200D01*
Y9781100D01*
X13327139D01*
Y9660400D01*
X13141901D01*
Y9440400D01*
X13451900D01*
Y9479698D01*
X13464600Y9482224D01*
X13468723Y9472271D01*
X13479143Y9458693D01*
X13491901Y9448903D01*
Y9440400D01*
X13518587D01*
X13525500Y9439490D01*
X13532413Y9440400D01*
X13687640D01*
X13691901Y9439839D01*
X13730045D01*
X13799001Y9370883D01*
Y9183600D01*
X14014000D01*
Y9463600D01*
X13891718D01*
X13803558Y9551758D01*
X13801900Y9553031D01*
Y9660400D01*
X13622261D01*
Y9781100D01*
X13632201D01*
Y9953450D01*
X14592007D01*
X14594060Y9952600D01*
X14615939D01*
X14625215Y9956442D01*
X14625224Y9956443D01*
X14654443Y9965306D01*
X14681371Y9979699D01*
X14704971Y9999068D01*
X14724341Y10022670D01*
X14738734Y10049597D01*
X14747597Y10078815D01*
X14750591Y10109200D01*
X14747597Y10139585D01*
X14738734Y10168803D01*
X14724341Y10195730D01*
X14710800Y10212230D01*
Y10216660D01*
X14702428Y10236875D01*
X14686955Y10252347D01*
X14666740Y10260720D01*
X14644859D01*
X14638284Y10257996D01*
X14625224Y10261957D01*
X14594839Y10264950D01*
X12948920D01*
X12928600Y10262948D01*
X12908279Y10264950D01*
X11351260D01*
X11327130Y10262573D01*
X11303000Y10264950D01*
X11201400D01*
X11171015Y10261957D01*
X11141797Y10253094D01*
X11114870Y10238701D01*
X11091268Y10219332D01*
X11071899Y10195730D01*
X11057506Y10168803D01*
X11048643Y10139585D01*
X11045650Y10109200D01*
X11048643Y10078815D01*
X11057506Y10049597D01*
X11071899Y10022670D01*
X11091268Y9999068D01*
X11114870Y9979699D01*
X11141797Y9965306D01*
X11171015Y9956443D01*
X11201400Y9953450D01*
X11303000D01*
X11327130Y9955827D01*
X11351260Y9953450D01*
X11640800D01*
Y9768400D01*
X11650739D01*
Y9647700D01*
X11458400D01*
Y9427700D01*
X11768400D01*
Y9498950D01*
X11770839Y9500869D01*
X11783539Y9494701D01*
Y9491980D01*
X11785773Y9475012D01*
X11792323Y9459200D01*
X11802742Y9445622D01*
X11808400Y9441280D01*
Y9427700D01*
X11839370D01*
X11849100Y9426419D01*
X11858830Y9427700D01*
X12004140D01*
X12008400Y9427139D01*
X12056944D01*
X12122600Y9361483D01*
Y9174761D01*
X12071100D01*
X12054132Y9172527D01*
X12038320Y9165977D01*
X12024742Y9155559D01*
X11640312Y8771128D01*
X11627883Y8758700D01*
X11561017D01*
X11387458Y8932258D01*
X11154758Y9164958D01*
X11141180Y9175377D01*
X11125369Y9181927D01*
X11108400Y9184161D01*
X10661200D01*
Y9463600D01*
X10576426D01*
X10574527Y9478027D01*
X10567978Y9493839D01*
X10557559Y9507417D01*
X10516553Y9548422D01*
X10502975Y9558841D01*
X10487163Y9565391D01*
X10470195Y9567625D01*
X10442000D01*
Y9685800D01*
X10269461D01*
Y9819200D01*
X10279400D01*
Y10018200D01*
X10128400D01*
Y9819200D01*
X10138339D01*
Y9685800D01*
X10132000D01*
Y9673537D01*
X10126342Y9667878D01*
X10118161Y9657217D01*
X10105461Y9660589D01*
Y9819200D01*
X10115400D01*
Y10018200D01*
X9964400D01*
Y9819200D01*
X9974339D01*
Y9685800D01*
X9782000D01*
Y9465800D01*
X10092000D01*
Y9585510D01*
X10094439Y9587429D01*
X10107139Y9581260D01*
Y9530080D01*
X10109373Y9513112D01*
X10115923Y9497300D01*
X10126342Y9483722D01*
X10132000Y9479380D01*
Y9465800D01*
X10162970D01*
X10172700Y9464519D01*
X10182430Y9465800D01*
X10349283D01*
X10359378Y9455705D01*
X10372956Y9445287D01*
X10388767Y9438737D01*
X10405736Y9436503D01*
X10443039D01*
X10445640Y9433903D01*
Y9366100D01*
X10446200Y9361842D01*
Y9184161D01*
X10391400D01*
X10374432Y9181927D01*
X10358620Y9175377D01*
X10345042Y9164958D01*
X9951483Y8771400D01*
X9871917D01*
X9730261Y8913056D01*
Y10413825D01*
X10134600D01*
X10167729Y10416432D01*
X13964920D01*
X13976625Y10418761D01*
X13986549Y10425391D01*
X13993179Y10435315D01*
X13995508Y10447020D01*
Y11148060D01*
X13993179Y11159765D01*
X13986549Y11169689D01*
X13976625Y11176319D01*
X13964920Y11178648D01*
X9911080D01*
X9899375Y11176319D01*
X9899159Y11176175D01*
X9321800D01*
X9262171Y11171482D01*
X9204011Y11157519D01*
X9148750Y11134629D01*
X9097751Y11103377D01*
X9052269Y11064531D01*
X9013423Y11019049D01*
X8982171Y10968050D01*
X8959281Y10912789D01*
X8945318Y10854629D01*
X8940625Y10795000D01*
X8945318Y10735371D01*
X8959281Y10677211D01*
X8982171Y10621950D01*
X9013423Y10570951D01*
X9052269Y10525469D01*
X9097751Y10486623D01*
X9148750Y10455371D01*
X9204011Y10432481D01*
X9262171Y10418518D01*
X9321800Y10413825D01*
X9599139D01*
Y8885900D01*
X9601373Y8868932D01*
X9607923Y8853120D01*
X9618342Y8839542D01*
X9779200Y8678683D01*
Y8551400D01*
X9969979D01*
Y8418000D01*
X9964400D01*
Y8219000D01*
X10115400D01*
Y8418000D01*
X10101101D01*
Y8689340D01*
X10098867Y8706308D01*
X10092317Y8722120D01*
X10090285Y8724768D01*
X10418556Y9053039D01*
X11081244D01*
X11294742Y8839542D01*
X11455600Y8678683D01*
Y8562261D01*
X11176433D01*
X11163959Y8567428D01*
X11146990Y8569662D01*
X10731681D01*
X10714713Y8567428D01*
X10698901Y8560879D01*
X10685323Y8550460D01*
X10063842Y7928979D01*
X10053423Y7915400D01*
X10046873Y7899589D01*
X10044640Y7882620D01*
Y7655356D01*
X10046873Y7638388D01*
X10053423Y7622576D01*
X10063842Y7608998D01*
X10145633Y7527206D01*
X10145200Y7525591D01*
Y7495969D01*
X10152867Y7467357D01*
X10167678Y7441703D01*
X10188624Y7420758D01*
X10214277Y7405947D01*
X10242889Y7398280D01*
X10272511D01*
X10301124Y7405947D01*
X10326777Y7420758D01*
X10347723Y7441703D01*
X10362534Y7467357D01*
X10370200Y7495969D01*
Y7525591D01*
X10362534Y7554203D01*
X10347723Y7579857D01*
X10326777Y7600802D01*
X10301124Y7615613D01*
X10272511Y7623280D01*
X10242889D01*
X10236662Y7621611D01*
X10217727Y7640547D01*
X10222587Y7652280D01*
X10370200D01*
Y7877280D01*
X10214170D01*
X10209310Y7889013D01*
X10758838Y8438541D01*
X11124949D01*
X11137423Y8433374D01*
X11154391Y8431140D01*
X11342273D01*
X11347133Y8419406D01*
X10652533Y7724806D01*
X10640800Y7729666D01*
Y7877280D01*
X10415800D01*
Y7652280D01*
X10563414D01*
X10568274Y7640547D01*
X10549338Y7621611D01*
X10543111Y7623280D01*
X10513489D01*
X10484877Y7615613D01*
X10459223Y7600802D01*
X10438278Y7579857D01*
X10423467Y7554203D01*
X10415800Y7525591D01*
Y7495969D01*
X10423467Y7467357D01*
X10438278Y7441703D01*
X10459223Y7420758D01*
X10484877Y7405947D01*
X10513489Y7398280D01*
X10543111D01*
X10571723Y7405947D01*
X10597377Y7420758D01*
X10618322Y7441703D01*
X10633133Y7467357D01*
X10640800Y7495969D01*
Y7525591D01*
X10640367Y7527207D01*
X11439783Y8326622D01*
X11552483D01*
X11569451Y8328856D01*
X11585263Y8335406D01*
X11598841Y8345825D01*
X11603358Y8350342D01*
X11613777Y8363920D01*
X11615400Y8367838D01*
X11628100Y8365311D01*
Y8219000D01*
X11779100D01*
Y8418000D01*
X11769161D01*
Y8707840D01*
X11768381Y8713764D01*
X12098256Y9043639D01*
X12781304D01*
X13132001Y8692943D01*
Y8551400D01*
X13327139D01*
Y8418000D01*
X13317200D01*
Y8249561D01*
X13083276D01*
X13066309Y8247327D01*
X13050496Y8240777D01*
X13036919Y8230358D01*
X12731820Y7925261D01*
X11933864D01*
X11929553Y7937961D01*
X11929659Y7938042D01*
X11940077Y7951620D01*
X11946627Y7967432D01*
X11948861Y7984400D01*
X11946627Y8001369D01*
X11940077Y8017181D01*
X11929659Y8030759D01*
X11916081Y8041177D01*
X11900269Y8047727D01*
X11883300Y8049961D01*
X11343850D01*
X11326882Y8047727D01*
X11311070Y8041177D01*
X11297492Y8030759D01*
X11287073Y8017181D01*
X11280523Y8001369D01*
X11278289Y7984400D01*
X11280523Y7967432D01*
X11287073Y7951620D01*
X11297492Y7938042D01*
X11311070Y7927623D01*
X11326882Y7921074D01*
X11343850Y7918840D01*
X11581036D01*
X11585347Y7906140D01*
X11585241Y7906058D01*
X11582942Y7903759D01*
X11572523Y7890181D01*
X11565974Y7874369D01*
X11563740Y7857400D01*
X11565974Y7840432D01*
X11572523Y7824620D01*
X11582942Y7811042D01*
X11596520Y7800623D01*
X11612332Y7794074D01*
X11629300Y7791840D01*
X11646269Y7794074D01*
X11646427Y7794139D01*
X12315779D01*
X12320639Y7782406D01*
X12045496Y7507263D01*
X12032713Y7508635D01*
X12030996Y7510724D01*
X12020718Y7524118D01*
X12007140Y7534537D01*
X11991328Y7541087D01*
X11974359Y7543321D01*
X11927600D01*
Y7583800D01*
X11924600D01*
Y7757600D01*
X11773600D01*
Y7583800D01*
X11770600D01*
Y7376800D01*
X11905511D01*
X11910371Y7365067D01*
X11833265Y7287961D01*
X11629300D01*
X11612332Y7285727D01*
X11596520Y7279177D01*
X11582942Y7268759D01*
X11572523Y7255181D01*
X11565974Y7239369D01*
X11563740Y7222400D01*
X11565974Y7205432D01*
X11572523Y7189620D01*
X11582942Y7176042D01*
X11596520Y7165623D01*
X11612332Y7159074D01*
X11629300Y7156840D01*
X11860421D01*
X11877390Y7159074D01*
X11893201Y7165623D01*
X11906779Y7176042D01*
X12120718Y7389980D01*
X12131137Y7403558D01*
X12133903Y7410237D01*
X12144211Y7420545D01*
X12158447Y7416820D01*
X12162494Y7407049D01*
X12172913Y7393471D01*
X12468389Y7097994D01*
X12463529Y7086261D01*
X10817242D01*
X10640800Y7262703D01*
Y7271591D01*
X10633133Y7300203D01*
X10618322Y7325857D01*
X10597377Y7346802D01*
X10571723Y7361613D01*
X10543111Y7369280D01*
X10513489D01*
X10484877Y7361613D01*
X10459223Y7346802D01*
X10438278Y7325857D01*
X10423467Y7300203D01*
X10415800Y7271591D01*
Y7241969D01*
X10423467Y7213357D01*
X10438278Y7187703D01*
X10459223Y7166758D01*
X10484877Y7151947D01*
X10513489Y7144280D01*
X10543111D01*
X10567307Y7150763D01*
X10722250Y6995820D01*
X10717390Y6984086D01*
X9250363Y6984086D01*
X9248376Y6996630D01*
X9252218Y6997878D01*
X9296396Y7020388D01*
X9336509Y7049531D01*
X9371569Y7084591D01*
X9400712Y7124704D01*
X9423222Y7168882D01*
X9438543Y7216037D01*
X9446300Y7265009D01*
Y7314591D01*
X9438543Y7363563D01*
X9423222Y7410718D01*
X9400712Y7454896D01*
X9371569Y7495009D01*
X9336509Y7530069D01*
X9296396Y7559212D01*
X9252218Y7581722D01*
X9205063Y7597043D01*
X9156091Y7604800D01*
X9106509D01*
X9057537Y7597043D01*
X9010382Y7581722D01*
X8966204Y7559212D01*
X8926091Y7530069D01*
X8891031Y7495009D01*
X8861888Y7454896D01*
X8844637Y7421039D01*
X8831937Y7424088D01*
X8831936Y11779562D01*
X8844285Y11782527D01*
X8849188Y11772904D01*
X8878331Y11732791D01*
X8913391Y11697731D01*
X8953504Y11668588D01*
X8997682Y11646078D01*
X9044837Y11630757D01*
X9093809Y11623000D01*
X9143391D01*
X9192363Y11630757D01*
X9239518Y11646078D01*
X9283696Y11668588D01*
X9323809Y11697731D01*
X9358869Y11732791D01*
X9388012Y11772904D01*
X9410522Y11817082D01*
X9425843Y11864237D01*
X9433600Y11913209D01*
Y11962791D01*
X9425843Y12011763D01*
X9410522Y12058918D01*
X9388012Y12103096D01*
X9358869Y12143209D01*
X9323809Y12178269D01*
X9283696Y12207412D01*
X9271720Y12213514D01*
X9274685Y12225863D01*
X11940000Y12225864D01*
X14550516D01*
X14553481Y12213514D01*
D02*
G37*
G36*
X13964920Y10447020D02*
X9911080D01*
Y10449560D01*
Y11148060D01*
X13964920D01*
Y10447020D01*
D02*
G37*
%LPC*%
G36*
X13332500Y11841900D02*
X13067500D01*
Y11576900D01*
X13332500D01*
Y11841900D01*
D02*
G37*
G36*
X12717444D02*
X12682556D01*
X12648857Y11832870D01*
X12618643Y11815426D01*
X12593974Y11790757D01*
X12576530Y11760543D01*
X12567500Y11726844D01*
Y11691956D01*
X12576530Y11658257D01*
X12593974Y11628043D01*
X12618643Y11603374D01*
X12648857Y11585930D01*
X12682556Y11576900D01*
X12717444D01*
X12751143Y11585930D01*
X12781357Y11603374D01*
X12806026Y11628043D01*
X12823470Y11658257D01*
X12832500Y11691956D01*
Y11726844D01*
X12823470Y11760543D01*
X12806026Y11790757D01*
X12781357Y11815426D01*
X12751143Y11832870D01*
X12717444Y11841900D01*
D02*
G37*
G36*
X12217444D02*
X12182556D01*
X12148857Y11832870D01*
X12118643Y11815426D01*
X12093974Y11790757D01*
X12076530Y11760543D01*
X12067500Y11726844D01*
Y11691956D01*
X12076530Y11658257D01*
X12093974Y11628043D01*
X12118643Y11603374D01*
X12148857Y11585930D01*
X12182556Y11576900D01*
X12217444D01*
X12251143Y11585930D01*
X12281357Y11603374D01*
X12306026Y11628043D01*
X12323470Y11658257D01*
X12332500Y11691956D01*
Y11726844D01*
X12323470Y11760543D01*
X12306026Y11790757D01*
X12281357Y11815426D01*
X12251143Y11832870D01*
X12217444Y11841900D01*
D02*
G37*
G36*
X14895300Y9736560D02*
X14670300D01*
Y9511560D01*
X14895300D01*
Y9736560D01*
D02*
G37*
G36*
X14543611D02*
X14513989D01*
X14485378Y9728893D01*
X14459723Y9714082D01*
X14438779Y9693137D01*
X14423967Y9667483D01*
X14416299Y9638871D01*
Y9609249D01*
X14423967Y9580637D01*
X14438779Y9554983D01*
X14459723Y9534038D01*
X14485378Y9519227D01*
X14513989Y9511560D01*
X14543611D01*
X14572223Y9519227D01*
X14597878Y9534038D01*
X14618822Y9554983D01*
X14633633Y9580637D01*
X14641299Y9609249D01*
Y9638871D01*
X14633633Y9667483D01*
X14618822Y9693137D01*
X14597878Y9714082D01*
X14572223Y9728893D01*
X14543611Y9736560D01*
D02*
G37*
G36*
X14655800Y8574560D02*
X14638832Y8572327D01*
X14623019Y8565777D01*
X14609441Y8555358D01*
X13900844Y7846761D01*
X13320500D01*
Y7895060D01*
X13095500D01*
Y7670060D01*
X13320500D01*
Y7715640D01*
X13928000D01*
X13944969Y7717874D01*
X13960780Y7724423D01*
X13974359Y7734842D01*
X14702158Y8462641D01*
X14712576Y8476220D01*
X14719127Y8492032D01*
X14721359Y8509000D01*
X14719127Y8525968D01*
X14712576Y8541780D01*
X14702158Y8555358D01*
X14688580Y8565777D01*
X14672768Y8572327D01*
X14655800Y8574560D01*
D02*
G37*
G36*
X12952211Y7639700D02*
X12922589D01*
X12893977Y7632034D01*
X12868324Y7617223D01*
X12847379Y7596277D01*
X12832567Y7570624D01*
X12824899Y7542011D01*
Y7512389D01*
X12832567Y7483777D01*
X12847379Y7458124D01*
X12868324Y7437178D01*
X12893977Y7422367D01*
X12922589Y7414700D01*
X12952211D01*
X12980824Y7422367D01*
X13006477Y7437178D01*
X13027423Y7458124D01*
X13042233Y7483777D01*
X13049899Y7512389D01*
Y7542011D01*
X13042233Y7570624D01*
X13027423Y7596277D01*
X13006477Y7617223D01*
X12980824Y7632034D01*
X12952211Y7639700D01*
D02*
G37*
G36*
X10272511Y7369280D02*
X10242889D01*
X10214277Y7361613D01*
X10188624Y7346802D01*
X10167678Y7325857D01*
X10152867Y7300203D01*
X10145200Y7271591D01*
Y7241969D01*
X10152867Y7213357D01*
X10167678Y7187703D01*
X10188624Y7166758D01*
X10214277Y7151947D01*
X10242889Y7144280D01*
X10272511D01*
X10301124Y7151947D01*
X10326777Y7166758D01*
X10347723Y7187703D01*
X10362534Y7213357D01*
X10370200Y7241969D01*
Y7271591D01*
X10362534Y7300203D01*
X10347723Y7325857D01*
X10326777Y7346802D01*
X10301124Y7361613D01*
X10272511Y7369280D01*
D02*
G37*
%LPD*%
G54D29*
X11867600Y8318500D02*
D03*
X11703600D02*
D03*
X10039900Y9918700D02*
D03*
X10203900D02*
D03*
X13556700Y8318500D02*
D03*
X13392700D02*
D03*
X11849100Y7658100D02*
D03*
X11685100D02*
D03*
X13392700Y9880600D02*
D03*
X13556700D02*
D03*
X11716300Y9867900D02*
D03*
X11880300D02*
D03*
X10203900Y8318500D02*
D03*
X10039900D02*
D03*
G54D31*
X11683100Y7480300D02*
D03*
X11849100D02*
D03*
G54D32*
X12230100Y9314200D02*
D03*
Y8904200D02*
D03*
X13906500Y9323600D02*
D03*
Y8913600D02*
D03*
X10553700Y9323600D02*
D03*
Y8913600D02*
D03*
G54D36*
X10790086Y7020700D02*
X13332600D01*
X10554007Y7256780D02*
X10790086Y7020700D01*
X12074359Y7436339D02*
Y7443410D01*
X11860421Y7222400D02*
X12074359Y7436339D01*
X12219271Y7439829D02*
Y7446900D01*
X12390650Y7759700D02*
X12750800D01*
X11629300Y7222400D02*
X11860421D01*
X12074359Y7443410D02*
X12390650Y7759700D01*
X12219271Y7439829D02*
X12533400Y7125700D01*
X13043900D01*
X11856720Y7477760D02*
X11974359D01*
X13197000Y8706400D02*
X13242000Y8661400D01*
X13287000D01*
X13197000Y8706400D02*
Y8720660D01*
X12808459Y9109200D02*
X13197000Y8720660D01*
X12071100Y9109200D02*
X12808459D01*
X11686670Y8724770D02*
X12071100Y9109200D01*
X11610600Y8648700D02*
X11686670Y8724770D01*
X11108400Y9118600D02*
X11341100Y8885900D01*
X11578300Y8648700D01*
X11610600D01*
X10391400Y9118600D02*
X11108400D01*
X9934200Y8661400D02*
X10391400Y9118600D01*
X13525500Y9550400D02*
Y9591040D01*
Y9505051D02*
Y9537700D01*
X13392700Y9557300D02*
Y9880600D01*
X13390880Y9555480D02*
X13392700Y9557300D01*
X13556700Y9595600D02*
Y9880600D01*
X13906500Y9323600D02*
Y9356100D01*
X13757201Y9505400D02*
X13906500Y9356100D01*
X13691901Y9505400D02*
X13757201D01*
X13646899Y9550400D02*
X13691901Y9505400D01*
X11849100Y9537700D02*
Y9583420D01*
Y9491980D02*
Y9537700D01*
X11880300Y9585960D02*
Y9867900D01*
X10172700Y9575800D02*
Y9621520D01*
Y9530080D02*
Y9575800D01*
X10203900Y9646920D02*
Y9918700D01*
X10172700Y9621520D02*
X10198100Y9646920D01*
X10022840Y9540240D02*
Y9616640D01*
X10039900Y9633700D02*
Y9918700D01*
X10022840Y9616640D02*
X10039900Y9633700D01*
X11716300Y9547140D02*
Y9867900D01*
X11706860Y9537700D02*
X11716300Y9547140D01*
X13373100Y8620300D02*
Y8686800D01*
Y8620300D02*
X13392700Y8600700D01*
Y8318500D02*
Y8600700D01*
X11703600Y8318500D02*
Y8707840D01*
X11154391Y8496700D02*
X11603600D01*
X11701780Y8709660D02*
X11703600Y8707840D01*
X10035540Y8322860D02*
Y8689340D01*
Y8322860D02*
X10039900Y8318500D01*
X11849100Y7480300D02*
Y7658100D01*
X11631600Y7859700D02*
X12758976D01*
X11629300Y7857400D02*
X11631600Y7859700D01*
X12758976D02*
X13083276Y8184000D01*
X11343850Y7984400D02*
X11883300D01*
X11146990Y8504101D02*
X11154391Y8496700D01*
X11552483Y8392183D02*
X11557000Y8396700D01*
X10731681Y8504101D02*
X11146990D01*
X11412627Y8392183D02*
X11552483D01*
X10110200Y7882620D02*
X10731681Y8504101D01*
X10531224Y7510780D02*
X11412627Y8392183D01*
X14097000Y8369300D02*
Y8775700D01*
X13911700Y8184000D02*
X14097000Y8369300D01*
X13083276Y8184000D02*
X13911700D01*
X11963400Y9537700D02*
X12008400Y9492700D01*
X12084100D01*
X12230100Y9346700D01*
Y9314200D02*
Y9346700D01*
X9918700Y9575800D02*
X9937000D01*
X10405736Y9502064D02*
X10470195D01*
X10332000Y9575800D02*
X10405736Y9502064D01*
X10287000Y9575800D02*
X10332000D01*
X10511200Y9366100D02*
X10553700Y9323600D01*
X10511200Y9366100D02*
Y9461059D01*
X10470195Y9502064D02*
X10511200Y9461059D01*
X10528300Y7510780D02*
X10531224D01*
X10553700Y9323600D02*
Y9356100D01*
X9664700Y8885900D02*
X9889200Y8661400D01*
X9664700Y8885900D02*
Y10748900D01*
X9710800Y10795000D01*
X10110200Y7655356D02*
Y7882620D01*
X13043900Y7125700D02*
X13192760Y7274560D01*
X13208000D01*
X13209360Y7781200D02*
X13928000D01*
X13208000Y7782560D02*
X13209360Y7781200D01*
X13928000D02*
X14655800Y8509000D01*
X10528300Y7256780D02*
X10554007D01*
X13522960Y7211060D02*
Y7414260D01*
X13332600Y7020700D02*
X13522960Y7211060D01*
X10110200Y7655356D02*
X10254777Y7510780D01*
X10257700D01*
X13285597Y7120701D02*
X13395959Y7231064D01*
Y7411720D01*
X9889200Y8661400D02*
X9934200D01*
G54D37*
X12948920Y10109200D02*
X14594839D01*
X11351260D02*
X12908279D01*
X11201400D02*
X11303000D01*
G54D38*
X9710800Y10795000D02*
X10134600D01*
X9321800D02*
X9710800D01*
G54D40*
X13208000Y7274560D02*
D03*
Y7528560D02*
D03*
X14528799Y9624060D02*
D03*
X14274800D02*
D03*
X10528300Y7510780D02*
D03*
Y7256780D02*
D03*
X12937399Y7527200D02*
D03*
Y7273200D02*
D03*
X10257700Y7510780D02*
D03*
Y7256780D02*
D03*
G54D41*
X13208000Y7782560D02*
D03*
X10528300Y7764780D02*
D03*
X12937399Y7781200D02*
D03*
X10257700Y7764780D02*
D03*
G54D42*
X14782800Y9624060D02*
D03*
G54D43*
X13200000Y11709400D02*
D03*
G54D44*
X12700000D02*
D03*
X12200000D02*
D03*
X9321800Y10295000D02*
D03*
G54D45*
Y10795000D02*
D03*
G54D46*
X9118600Y11938000D02*
D03*
X14706599D02*
D03*
X14693900Y7289800D02*
D03*
X9131300D02*
D03*
G54D47*
X12219271Y7446900D02*
D03*
X11974359Y7477760D02*
D03*
X14556740Y10205720D02*
D03*
Y10124440D02*
D03*
X14605000Y10088880D02*
D03*
X14655800Y10124440D02*
D03*
X14556740Y10048240D02*
D03*
X14655800D02*
D03*
X14605000Y10007600D02*
D03*
X14655800Y10205720D02*
D03*
X14605000Y10165080D02*
D03*
X13014960Y8902700D02*
D03*
X11341100Y8885900D02*
D03*
X13525500Y9537700D02*
D03*
X13271500Y9550400D02*
D03*
X10259060Y10543540D02*
D03*
Y11064240D02*
D03*
Y10750640D02*
D03*
Y10949940D02*
D03*
Y10645140D02*
D03*
Y10848340D02*
D03*
X10513060Y10645140D02*
D03*
Y10949940D02*
D03*
Y10543540D02*
D03*
Y11064240D02*
D03*
Y10848340D02*
D03*
Y10746740D02*
D03*
X10005060Y10543540D02*
D03*
Y10746740D02*
D03*
Y10645140D02*
D03*
Y10848340D02*
D03*
Y10949940D02*
D03*
Y11064240D02*
D03*
X13647420Y8864600D02*
D03*
X11971020Y8844280D02*
D03*
X11523980Y7472680D02*
D03*
X10297160Y8864600D02*
D03*
X11603600Y8496700D02*
D03*
X12750800Y7759700D02*
D03*
X11883300Y7984400D02*
D03*
X11557000Y8396700D02*
D03*
X11343850Y7984400D02*
D03*
X11629300Y7857400D02*
D03*
X14097000Y8775700D02*
D03*
X10172700Y9575800D02*
D03*
X9918700D02*
D03*
X11595100Y9537700D02*
D03*
X11849100D02*
D03*
X12928600Y10007600D02*
D03*
X12979401Y10124440D02*
D03*
X12928600Y10165080D02*
D03*
Y10088880D02*
D03*
X12979401Y10048240D02*
D03*
X12880341Y10124440D02*
D03*
X12979401Y10205720D02*
D03*
X12880341D02*
D03*
Y10048240D02*
D03*
X11252200Y10010140D02*
D03*
X11303000Y10126980D02*
D03*
X11252200Y10167620D02*
D03*
Y10091420D02*
D03*
X11303000Y10050780D02*
D03*
X11203940Y10126980D02*
D03*
X11303000Y10208260D02*
D03*
X11203940D02*
D03*
Y10050780D02*
D03*
X13614400Y10541000D02*
D03*
X13360400Y11061700D02*
D03*
Y10947400D02*
D03*
Y10845800D02*
D03*
Y10642600D02*
D03*
Y10744200D02*
D03*
Y10541000D02*
D03*
X13868401Y10744200D02*
D03*
Y10845800D02*
D03*
Y11061700D02*
D03*
Y10541000D02*
D03*
Y10947400D02*
D03*
Y10642600D02*
D03*
X13614400Y10845800D02*
D03*
Y10642600D02*
D03*
Y10947400D02*
D03*
Y10748100D02*
D03*
Y11061700D02*
D03*
X11684000D02*
D03*
Y10947400D02*
D03*
Y10845800D02*
D03*
Y10642600D02*
D03*
Y10744200D02*
D03*
Y10541000D02*
D03*
X12192000Y10744200D02*
D03*
Y10845800D02*
D03*
Y11061700D02*
D03*
Y10541000D02*
D03*
Y10947400D02*
D03*
Y10642600D02*
D03*
X11938000Y10845800D02*
D03*
Y10642600D02*
D03*
Y10947400D02*
D03*
Y10748100D02*
D03*
Y11061700D02*
D03*
Y10541000D02*
D03*
X13522960Y7414260D02*
D03*
X13395959Y7411720D02*
D03*
X9664700Y8885900D02*
D03*
X14655800Y8509000D02*
D03*
X13906500Y9323600D02*
D03*
X12230100Y9314200D02*
D03*
X10553700Y9323600D02*
D03*
X13285597Y7120701D02*
D03*
X11629300Y7222400D02*
D03*
G54D48*
X13296899Y9550400D02*
D03*
X13646899D02*
D03*
X11613400Y9537700D02*
D03*
X11963400D02*
D03*
X11960600Y8648700D02*
D03*
X11610600D02*
D03*
X9937000Y9575800D02*
D03*
X10287000D02*
D03*
X10284200Y8661400D02*
D03*
X9934200D02*
D03*
X13287000D02*
D03*
X13637000D02*
D03*
M02*
